<svg version="1.2" baseProfile="tiny" xmlns="http://www.w3.org/2000/svg" viewBox="0 0 50 50" overflow="visible"><circle fill="#FFF" cx="25" cy="25" r="25"/><path fill="#F4A427" d="M40.06 36.47c-.42 4.99-6.31 9.2-15.14 8.99-8.3-.21-14.14-3.68-14.56-8.67-.05-.63 0-1.26.05-1.94a14.7 14.7 0 0 1 1.94-5.47l.63.26c1.63-.63 3.31-1.1 5.05-1.42 2.26-.32 4.57-.37 6.83-.21 2.26-.16 4.57-.11 6.83.21 1.73.32 3.42.79 5.05 1.42l.63-.26.42-.21c1 1.68 1.68 3.52 2.05 5.47.11.58.16 1.21.11 1.79"/><path fill="#FFF" d="M40.06 36.47c-.42 4.94-6.25 8.99-15.14 8.94-8.3-.21-14.14-3.68-14.56-8.67-.05-.63 0-1.26.05-1.94a6.54 6.54 0 0 1 2.68-.05c1.68.26 2.63 1.31 3.84 1.84.68.32 1.37-.21 2-.79a9.33 9.33 0 0 1 6.25-2.63c2.37-.05 4.31.89 6.36 2.79.42.42 1 .68 1.58.63a3.96 3.96 0 0 0 1.47-.79 7.66 7.66 0 0 1 5.31-1.21c.16.67.21 1.25.16 1.88"/><path fill="#F79422" d="M15.62 24.17c-.58.58-1.31 1-2.1 1.16l-.32.05c-.32.11-.63.16-1 .16h-.21l-.53-.16a6.21 6.21 0 0 1-1.58-1 12.35 12.35 0 0 1-2.52-2.73 9.63 9.63 0 0 1 2-13.04c.26-.16.58-.16.79.11.11.16.16.32.11.47-.37 1.68-.68 4.31.89 6.57 1.37 1.89 4.2 3.73 5.94 3.73.37 2.11-.21 3.53-1.47 4.68"/><path fill="none" stroke="#221F1F" stroke-linejoin="round" d="M15.62 24.17c-.58.58-1.31 1-2.1 1.16l-.32.05c-.32.11-.63.16-1 .16h-.21l-.53-.16a6.21 6.21 0 0 1-1.58-1 12.35 12.35 0 0 1-2.52-2.73 9.63 9.63 0 0 1 2-13.04c.26-.16.58-.16.79.11.11.16.16.32.11.47-.37 1.68-.68 4.31.89 6.57 1.37 1.89 4.2 3.73 5.94 3.73.37 2.11-.21 3.53-1.47 4.68z"/><path fill="#5A595C" d="M23.19 16.92l-.68 6.73h-.05l-4.42.68c-1.79.26-4.2 1.52-5.62 2.37l-.16-1.1 1-.16.32-.05a4.18 4.18 0 0 0 2.1-1.16 4.77 4.77 0 0 0 1.42-4.73l.21.05a7.6 7.6 0 0 1 2.21-1.63 7.9 7.9 0 0 1 3.67-1"/><path fill="none" stroke="#221F1F" stroke-linejoin="round" d="M23.19 16.92l-.68 6.73h-.05l-4.42.68c-1.79.26-4.2 1.52-5.62 2.37l-.16-1.1 1-.16.32-.05a4.18 4.18 0 0 0 2.1-1.16 4.77 4.77 0 0 0 1.42-4.73l.21.05a7.6 7.6 0 0 1 2.21-1.63 7.9 7.9 0 0 1 3.67-1z"/><path fill="#929497" d="M38.53 29.01l-.42.21-.42.21-.63.26a28.01 28.01 0 0 0-5.05-1.42 37.17 37.17 0 0 0-6.83-.63 33.27 33.27 0 0 0-11.88 2.05 2.8 2.8 0 0 0-.63-.26l-.89-.42c.05-.74 0-1.16 0-1.89l.68-.42.05-.05c1.37-.84 3.78-2.05 5.57-2.37 1.94-.32 3.31-.53 4.42-.68.68-.05 1.42-.05 2.15-.05 1.1 0 2.1 0 3.1.05l4.47.68c1.84.26 4.26 1.52 5.68 2.37h.05c.26.16.47.26.63.42-.05.78-.1 1.2-.05 1.94"/><path fill="none" stroke="#221F1F" stroke-linecap="round" stroke-linejoin="round" d="M38.53 29.01l-.42.21h0l-.42.21-.63.26a28.01 28.01 0 0 0-5.05-1.42 42.07 42.07 0 0 0-6.83-.58h0c-2.31 0-4.57.16-6.83.58-1.73.32-3.42.79-5.05 1.42a2.8 2.8 0 0 0-.63-.26l-.89-.42c.05-.74 0-1.16 0-1.89l.68-.42.05-.05c1.37-.84 3.78-2.05 5.57-2.37 1.94-.32 3.31-.53 4.42-.68.68-.05 1.42-.05 2.15-.05 1.1 0 2.1 0 3.1.05l4.47.68c1.84.26 4.26 1.52 5.68 2.37h.05c.26.16.47.26.63.42-.05.78-.1 1.2-.05 1.94z"/><path fill="#929497" d="M27.71 23.65c-.95-.05-2-.11-3.1-.05-.74 0-1.47.05-2.15.05h.05l.68-6.73.16-1.37a3.41 3.41 0 0 1 1.73-.47h.11c.63 0 1.21.16 1.73.47l.16 1.37v.05l.63 6.68z"/><path fill="none" stroke="#221F1F" stroke-linecap="round" stroke-linejoin="round" d="M27.71 23.65c-.95-.05-2-.11-3.1-.05-.74 0-1.47.05-2.15.05h.05l.68-6.73.16-1.37a3.41 3.41 0 0 1 1.73-.47h.11c.63 0 1.21.16 1.73.47l.16 1.37v.05l.63 6.68zM38.11 29.22h0M40.06 36.52c-.42 4.99-6.78 8.99-15.14 8.99h0c-8.3-.21-14.14-3.68-14.51-8.67-.05-.63 0-1.26.05-1.94a14.7 14.7 0 0 1 1.94-5.47l.63.26c1.63-.63 3.31-1.1 5.05-1.42a42.1 42.1 0 0 1 6.83-.63h0c2.31 0 4.57.21 6.83.63 1.73.32 3.42.79 5.05 1.42l.68-.26.42-.21c1 1.68 1.68 3.52 2.05 5.47.17.62.17 1.26.12 1.83z"/><path fill="#F79422" d="M42.63 21.65c-.74 1-1.58 1.94-2.58 2.73-.47.42-1 .74-1.58 1l-.26.11-.16.05c-.37.11-.58 0-1.26-.11l-.32-.05a4.18 4.18 0 0 1-2.1-1.16 4.77 4.77 0 0 1-1.42-4.73c1.68.05 4.57-1.79 5.94-3.73 1.52-2.26 1.21-4.89.84-6.57a.58.58 0 0 1 .42-.68c.16-.05.37 0 .47.11a9.6 9.6 0 0 1 2.01 13.03"/><path fill="none" stroke="#221F1F" stroke-linejoin="round" d="M42.63 21.65c-.74 1-1.58 1.94-2.58 2.73-.47.42-1 .74-1.58 1l-.26.11-.16.05c-.37.11-.58 0-1.26-.11l-.32-.05a4.18 4.18 0 0 1-2.1-1.16 4.77 4.77 0 0 1-1.42-4.73c1.68.05 4.57-1.79 5.94-3.73 1.52-2.26 1.21-4.89.84-6.57a.58.58 0 0 1 .42-.68c.16-.05.37 0 .47.11a9.6 9.6 0 0 1 2.01 13.03z"/><path fill="#5A595C" d="M38.06 25.54l-.21 1.16c-1.42-.84-3.84-2.1-5.68-2.37-2-.32-3.36-.53-4.47-.68l-.68-6.73c1.21.05 2.42.42 3.52 1 .84.42 1.58 1 2.21 1.63l.21-.05a4.8 4.8 0 0 0 1.42 4.73c.58.58 1.31 1 2.1 1.16.05 0 .26.11.32.11.42.14.84.14 1.26.04"/><path fill="none" stroke="#221F1F" stroke-linejoin="round" d="M38.06 25.54l-.21 1.16c-1.42-.84-3.84-2.1-5.68-2.37-2-.32-3.36-.53-4.47-.68l-.68-6.73c1.21.05 2.42.42 3.52 1 .84.42 1.58 1 2.21 1.63l.21-.05a4.8 4.8 0 0 0 1.42 4.73c.58.58 1.31 1 2.1 1.16l.32.05c.68.1.89.2 1.26.1zM27.02 16.92h-.21"/><path fill="#F79422" d="M38.11 25.28c.37.42.26 1.05-.16 1.42l-.11.11"/><path fill="none" stroke="#221F1F" stroke-miterlimit="10" d="M38.11 25.28c.37.42.26 1.05-.16 1.42l-.11.11"/><path fill="#F79422" d="M12.2 25.28c-.37.42-.26 1.05.16 1.42l.11.11"/><path fill="none" stroke="#221F1F" stroke-miterlimit="10" d="M12.2 25.28c-.37.42-.26 1.05.16 1.42l.11.11"/><path fill="none" stroke="#171717" stroke-linecap="round" stroke-linejoin="round" d="M23.19 38.52c.37.11.79.05 1.16-.16.58-.21.95-.79.89-1.42a1.4 1.4 0 0 0 .89 1.42c.37.16.74.21 1.1.16"/><path fill="#171717" d="M27.29 35.16c0 .63-.95 1.47-2.1 1.47s-2.1-.84-2.1-1.47.95-.84 2.1-.84 2.1.26 2.1.84"/><path fill="#FFF" d="M26.02 34.95c0 .16-.42.37-.89.37-.47 0-.89-.21-.89-.32s.42-.11.89-.11c.47 0 .89-.1.89.06"/><path fill="none" stroke="#171717" stroke-linecap="round" stroke-linejoin="round" d="M21.87 36.94c-.05.74.42 1.37 1.16 1.52h.16M25.24 36.21v.74M27.29 38.52h.16c.74-.16 1.26-.79 1.16-1.52"/><path fill="none" stroke="#221F1F" stroke-linejoin="round" d="M40.64 8.61a9.55 9.55 0 0 1 1.94 12.98M15.62 24.17c-.58.58-1.31 1-2.1 1.16l-.32.05c-.32.11-.63.16-1 .16h-.21l-.53-.16a6.21 6.21 0 0 1-1.58-1 12.35 12.35 0 0 1-2.52-2.73 9.63 9.63 0 0 1 2-13.04c.26-.16.58-.16.79.11.11.16.16.32.11.47-.37 1.68-.68 4.31.89 6.57 1.37 1.89 4.2 3.73 5.94 3.73.37 2.11-.21 3.53-1.47 4.68z"/><path fill="#221F1F" d="M21.35 31.74c0 1.16-.68 2.05-1.52 2.05s-1.52-.95-1.52-2.05c0-1 .53-1.84 1.21-2.05l1.68 1.26c.09.27.15.53.15.79z"/><path fill="#FFF" d="M20.77 31.48c0 .42-.26.74-.53.74s-.53-.32-.53-.74.26-.74.53-.74.53.32.53.74"/><path fill="#221F1F" d="M19.51 33.32c-.58.47-1.1 1-1.58 1.58a4.14 4.14 0 0 0-.9 2c-.05.16-.05.37-.05.53v1.68l.16 1.16c.05.21.05.37.11.58.05.16.11.37.21.53-.11-.16-.16-.37-.26-.53-.05-.16-.16-.37-.21-.53l-.32-1.16-.16-1.16V37.42v-.58c.05-.42.11-.84.26-1.21.16-.37.32-.74.53-1.1.47-.68.95-1.31 1.52-1.84a.54.54 0 0 1 .68 0c.17.1.22.42.01.63z"/><path fill="#221F1F" d="M19.14 33.16h-.27l-.26-.05c-.16-.05-.32-.05-.47-.05-.32 0-.68 0-1 .11l-.47.16c-.47.21-.89.58-1.16 1 .16-.37.32-.68.58-.95.11-.16.26-.26.42-.37l.47-.32c.32-.21.68-.32 1.1-.42.21-.05.37-.05.58-.05h.53s.05 0 0 0c.26 0 .47.21.53.47.05.26-.27.47-.58.47.05 0 0 0 0 0M32.12 31.74c0 1.16-.68 2.05-1.47 2.05-.79 0-1.52-.95-1.52-2.05 0-.26.05-.53.11-.79l1.68-1.26c.68.21 1.2 1.05 1.2 2.05z"/><path fill="#FFF" d="M29.65 31.48c0 .42.26.74.53.74s.53-.32.53-.74-.26-.74-.53-.74-.53.32-.53.74"/><path fill="#221F1F" d="M31.6 32.58a9.9 9.9 0 0 1 2.05 2.89c.16.37.26.79.32 1.16.05.42.05.79 0 1.21L33.81 39c-.05.37-.16.74-.26 1.1-.05.16-.11.37-.21.53a2.6 2.6 0 0 1-.26.53c.05-.16.16-.37.21-.53l.16-.53c.05-.37.16-.74.16-1.1.05-.37.05-.74.05-1.16 0-.37-.05-.74-.11-1.1a5.9 5.9 0 0 0-.37-1 11.24 11.24 0 0 0-2.21-2.47c-.21-.21-.21-.47 0-.68a.47.47 0 0 1 .63-.05v.04"/><path fill="#221F1F" d="M31.28 32.21H31.86c.21 0 .42 0 .63.05.42.05.79.16 1.16.32.37.16.68.42 1 .68.26.26.47.63.63.95a2.7 2.7 0 0 0-.79-.79c-.32-.21-.63-.37-1-.42s-.74-.05-1.1-.05c-.16 0-.37.05-.53.05l-.26.05h-.26c-.26.05-.53-.16-.53-.42-.05-.26.16-.53.42-.53h.11"/></svg>
