<svg version="1.2" baseProfile="tiny" xmlns="http://www.w3.org/2000/svg" viewBox="0 0 50 50" overflow="visible"><circle fill="#FFF" cx="25" cy="25" r="25"/><path fill="#31201B" d="M20.6 45.71a6.86 6.86 0 0 1-1.48-.75c-.15-.1-.34-.05-.52-.06-.75-.02-1.5.05-2.24-.05a3.05 3.05 0 0 1-2.55-2.07 8.45 8.45 0 0 1-.62-2.53c-.01-.19-.15-.23-.27-.31a6.69 6.69 0 0 1-3.24-6.2 6.42 6.42 0 0 1 1.07-3.28c.16-.24.3-.49.65-.43.36.06.35.37.4.63a5.82 5.82 0 0 0 2.86 4.11c.29.17.29.17.31-.17a5.1 5.1 0 0 1 1.16-3.03c.25-.31.14-.89-.2-1.07a8.63 8.63 0 0 1-4.74-8.85c.1-1.11.3-2.2.66-3.26.08-.24.1-.47.04-.73-.72-2.91-.78-5.82.04-8.72.14-.5.32-.99.58-1.44.69-1.16 1.31-1.37 2.52-1.1 1.16.27 2.13.92 3.09 1.58.48.33.93.7 1.36 1.09.12.11.22.13.38.06a14.76 14.76 0 0 1 6.62-1.23c1.76.09 3.45.52 5.06 1.2.21.09.34.07.52-.08a13.87 13.87 0 0 1 3.55-2.35 4.1 4.1 0 0 1 1.69-.39c.48 0 .88.19 1.21.55a5.8 5.8 0 0 1 1.23 2.73 17.3 17.3 0 0 1-.12 8.03c-.06.24-.06.46.01.7.41 1.3.68 2.64.7 4.01a8.53 8.53 0 0 1-4.77 8.19c-.31.16-.47.76-.24 1.03 1.13 1.32 1.33 2.87 1.15 4.51-.03.27.03.41.27.57a3.36 3.36 0 0 1 1.43 2.19 6.41 6.41 0 0 1-.88 4.7 2.79 2.79 0 0 1-2.35 1.38c-.72.05-1.45.03-2.18.02-.21 0-.4.04-.57.18a3.2 3.2 0 0 1-1.46.57c-.04 0-.08.01-.09.06h-1.5c-.17-.06-.36-.04-.53-.09a2 2 0 0 1-.73-.46.57.57 0 0 0-.45-.18h-3.36c-.16 0-.31.03-.43.15-.33.32-.71.53-1.17.57h-.19c-.05-.05-.11-.02-.18-.03-.05 0-.1-.01-.14.03h-.37a.48.48 0 0 0-.37 0h-.25c-.04-.04-.08-.04-.12 0-.08.02-.17.02-.25.02z"/><path fill="#FEFEFE" d="M22.47 45.71c.48-.17.92-.4 1.27-.77.06-.07.16-.03.24-.03h3.52c.18 0 .31.03.43.19.18.23.45.35.72.48.02.1.21-.02.18.14l-6.36-.01z"/><path fill="#EEEDED" d="M28.83 45.71c-.04-.08-.16-.04-.18-.14.17.04.35.01.5.14h-.32z"/><path fill="#4B3C37" d="M21.23 45.71c.12-.1.25-.1.37 0h-.37z"/><path fill="#AAA3A1" d="M22.1 45.66c.07 0 .15-.05.19.05h-.19c-.02-.01-.03-.02-.02-.04l.02-.01z"/><path fill="#978F8C" d="M20.85 45.71c.04-.09.08-.08.12 0h-.12z"/><path fill="#8E8683" d="M22.1 45.66v.05h-.12c.02-.07.07-.07.12-.05z"/><path fill="#FDA524" d="M34.71 8.92c-.44.53-.95 1.02-1.31 1.62-.22.36-.19.54.15.79a14.49 14.49 0 0 1 5.77 9.75c.14.9.06 1.8.05 2.7 0 .07-.02.12-.07.17-.58.58-1.26.98-2.09 1.06a5.52 5.52 0 0 1-4.26-1.55c-1.13-.99-2.15-2.11-3.32-3.06a6.56 6.56 0 0 0-2.4-1.42 5.22 5.22 0 0 0-4.44.7c-.73.5-1.38 1.1-2.04 1.68-.94.83-1.75 1.82-2.78 2.54a5.1 5.1 0 0 1-2.22 1.01c-1.22.16-2.41.14-3.4-.77a.86.86 0 0 1-.18-.2 4.9 4.9 0 0 1-.1-1.66c.1-2.14.65-4.15 1.65-6.04a14.27 14.27 0 0 1 3.97-4.73c.66-.5.66-.62.18-1.29-.4-.56-.94-.99-1.33-1.56.17-.1.3.01.44.07a6.2 6.2 0 0 1 1.53 1.07l.74.62c.23.2.46.23.74.1a14.32 14.32 0 0 1 6.61-1.25c1.6.11 3.13.49 4.6 1.14l.31.13c.26.12.45.05.67-.14.66-.57 1.38-1.06 2.08-1.58.2-.13.35-.11.45.1z"/><path fill="#FDFEFD" d="M12.35 24.07c.25.16.49.36.76.49 1.17.55 2.36.46 3.53.02 1.23-.47 2.11-1.41 3.03-2.29a27.8 27.8 0 0 1 2.95-2.58 5.33 5.33 0 0 1 6.18-.03c1.06.78 2.01 1.67 2.95 2.58.44.42.89.84 1.35 1.25a5.5 5.5 0 0 0 3.52 1.47 3.1 3.1 0 0 0 2.03-.58c.21-.16.41-.32.65-.43-.02.31-.09.62-.19.92a9.66 9.66 0 0 1-4.26 3.74c-1.85.85-3.79 1.3-5.79 1.52-1.32.15-2.65.23-3.98.18a23.3 23.3 0 0 1-7.07-1.15 10.9 10.9 0 0 1-4.13-2.42 5.69 5.69 0 0 1-1.55-2.19c-.05-.14-.06-.29-.08-.42-.02-.11.03-.13.1-.08z"/><path fill="#DEDEDE" d="M12.35 24.07c-.12.14-.04.28 0 .41.17.56.56.99.9 1.44a9.28 9.28 0 0 0 4.16 2.93c1.47.58 2.99.96 4.56 1.14.81.1 1.63.14 2.44.2.67.04 1.35.06 2.02.04 2.18-.08 4.35-.29 6.45-.95 1.36-.43 2.65-1 3.81-1.85a8.91 8.91 0 0 0 2.04-2.16c.11-.15.23-.29.38-.41a7.05 7.05 0 0 1-2.99 4.19 13.38 13.38 0 0 1-5.29 2.07c-3.71.7-7.42.68-11.1-.21a12.09 12.09 0 0 1-4.9-2.27 7.21 7.21 0 0 1-2.63-4.5l-.01-.21.16.14z"/><path fill="#FDA524" d="M23.21 40.17c.01 1.09.03 2.18-.01 3.27-.15.08-.31.04-.46 0l-.85-.21a3.24 3.24 0 0 0-1.69.11c-.12.04-.25.11-.39.07a.1.1 0 0 1-.05-.09c.2-.25.15-.49 0-.74-.78-1.27-1.32-2.66-1.9-4.02a10.5 10.5 0 0 1-.78-4.07c0-.48.14-.94.21-1.42.01-.1.06-.21.2-.19.25.08.49.18.72.31-.06.72.18 1.36.53 1.95.4.65.91 1.21 1.4 1.79.77.9 1.7 1.62 2.49 2.48.22.26.45.47.58.76zM33.38 33.19c.19-.1.37-.21.58-.27.19-.06.21.1.23.21.13.68.23 1.35.19 2.06-.08 1.08-.3 2.12-.67 3.12a23.93 23.93 0 0 1-1.92 4.18c-.15.25-.25.52-.41.76-.38.03-.75-.09-1.14-.08-.48.01-.95.07-1.41.21-.11.03-.21.08-.33.05-.11-.06-.14-.16-.15-.27-.07-.26.01-.52-.05-.78v-.17c.05-.07.01-.16.05-.24.02-.48 0-.95.01-1.43v-.1l.02-.21c.21-.6.64-1.03 1.11-1.44 1.15-1 2.2-2.09 3.08-3.33a4.15 4.15 0 0 0 .81-2.27z"/><path fill="#DEDEDE" d="M21.23 34.1l2.35.28c.21.03.07.14.04.22-.42.93-.25 2 .42 2.69.76.78 1.98.93 2.96.37.91-.52 1.32-1.64 1.02-2.74-.05-.18-.23-.39-.13-.51.09-.1.35-.06.53-.08l1.79-.22c.13.21-.03.36-.12.51-.24.39-.56.72-.79 1.12-.44.76-.83 1.55-1.1 2.39-.04.12-.07.24-.13.35-.03.06-.06.18-.04.2-.53-.08-.65.01-.67.6-.02.84-.01 1.68-.01 2.52l-.01.31c-.34.28-.76.31-1.16.37-.6.09-1.2 0-1.77-.21-.1-.04-.21-.08-.26-.2l-.03-2.79c-.01-.55-.01-.55-.57-.67-.17-.2-.21-.45-.29-.68a12.47 12.47 0 0 0-1.73-3.16c-.16-.2-.34-.39-.3-.67z"/><path fill="#FDFEFD" d="M21.23 34.1c.3.68.84 1.2 1.19 1.85.46.85.88 1.71 1.12 2.65-.25.18-.33.42-.33.72 0 .29.06.57 0 .86-1.38-1.56-3.05-2.85-4.27-4.56a4.53 4.53 0 0 1-.82-2.06c-.01-.11-.11-.28.1-.34.93.35 1.88.57 2.84.82l.17.06zM28.02 38.67c0-.07-.15-.04-.06-.21.21-.36.29-.79.46-1.18.4-.89.83-1.75 1.46-2.51.15-.19.31-.39.32-.66.52-.13 1.04-.26 1.55-.41.54-.16 1.08-.34 1.62-.52.02.84-.28 1.59-.74 2.27a16.4 16.4 0 0 1-2.46 2.8c-.67.61-1.35 1.2-1.82 1.98-.17-.39-.06-.8-.1-1.19-.01-.17-.04-.31-.23-.37z"/><path fill="#F08102" d="M31.39 43.22c-.07-.25.11-.41.21-.59a21.91 21.91 0 0 0 2.43-5.73c.31-1.22.39-2.47.09-3.71-.02-.1-.01-.24-.17-.27l.23-.15c.82-.42.67-.52 1.07.38.48 1.07.42 2.2.22 3.33a18.95 18.95 0 0 1-1.55 4.39 12.9 12.9 0 0 1-1.7 2.89c-.17-.01-.24-.18-.39-.22-.14-.1-.34-.15-.44-.32zM17.49 32.91c-.07.04-.12.09-.13.17-.09.81-.26 1.6-.15 2.43.14 1.06.32 2.11.74 3.09.61 1.41 1.17 2.84 1.97 4.15.16.26.12.45-.14.59-.27.26-.54.12-.82 0a4.34 4.34 0 0 1-.6-.87 23.45 23.45 0 0 1-2.24-5.38 6.29 6.29 0 0 1-.03-3.62c.09-.26.21-.5.32-.74.1-.23.25-.31.48-.17l.6.35zM33.26 43.97a22.88 22.88 0 0 0 2.36-4.72c.19-.49.34-1 .51-1.5.03-.1.01-.23.14-.26.14-.03.23.06.32.16.51.58.75 1.26.8 2.02a6.4 6.4 0 0 1-.78 3.23c-.32.67-.92.97-1.63 1.06-.55.06-1.11.02-1.72.01zM18.15 43.97c-.72 0-1.42.1-2.1-.12a1.88 1.88 0 0 1-1.17-.96 6.72 6.72 0 0 1-.77-3.2 3.35 3.35 0 0 1 .87-2.08c.24-.19.31-.17.4.12.49 1.76 1.25 3.4 2.1 5.02.21.39.55.72.67 1.22z"/><path fill="#C74F02" d="M38.12 14.96a16.6 16.6 0 0 0-2.41-3c-.39-.37-.8-.72-1.21-1.07-.11-.1-.14-.16-.04-.28a11.3 11.3 0 0 1 2.85-2.53c.4.86.62 1.77.77 2.71.19 1.2.22 2.41.2 3.62 0 .2 0 .4-.16.55zM14.25 8.14a9.68 9.68 0 0 1 2.71 2.39c.13.17.15.26-.04.42a21.83 21.83 0 0 0-3.04 3.19c-.1.02-.12.12-.2.16-.05.05-.09.12-.14.16-.11.08-.19.05-.23-.09l-.02-.15c.01-1.23-.08-2.47.17-3.69.15-.82.37-1.64.79-2.39z"/><path fill="#E8C587" d="M34.71 8.92c-.17-.13-.29-.13-.48.02-.72.57-1.51 1.06-2.18 1.7-.11.11-.25.08-.38.03l-1.56-.6a12.75 12.75 0 0 0-5.51-.7c-1.43.13-2.86.42-4.16 1.07-.63.31-1.08.26-1.59-.23a6.85 6.85 0 0 0-1.83-1.37c-.15-.07-.31-.12-.46-.18l-1.57-1.18c.02-.16.12-.09.21-.08.67.19 1.24.56 1.82.93a16 16 0 0 1 2.15 1.69c.26.23.5.25.79.1a13.32 13.32 0 0 1 11.53-.02c.33.16.59.14.88-.11.93-.83 1.91-1.6 3.01-2.2.36-.19.72-.36 1.13-.45.07-.03.13-.05.13.07-.69.44-1.32.96-1.93 1.51z"/><path fill="#F08102" d="M10.82 32.61l.1-.42c.03-.09.02-.24.15-.24.1 0 .16.12.2.22.22.55.49 1.07.85 1.55a7.76 7.76 0 0 0 2.67 2.19c.12.07.26.1.27.3 0 .19-.08.27-.22.36-.43.25-.76.6-1.03 1.02-.05.08-.06.19-.17.21-.41-.12-.69-.41-.98-.69a5.77 5.77 0 0 1-1.62-2.66c-.11-.52-.25-1.04-.24-1.59 0-.09.04-.17.02-.25z"/><path fill="#DF6D03" d="M14.25 8.14c.04.09.05.17 0 .26-.45.75-.6 1.6-.75 2.45-.21 1.2-.09 2.4-.13 3.62.19-.04.24-.21.38-.27.03.04.04.08 0 .11l-1.15 2.1c-.14-.35-.17-.66-.2-.96-.19-2.17-.17-4.33.48-6.44.12-.37.28-.71.43-1.07.11-.24.24-.27.45-.13.17.11.34.2.49.33zM38.12 14.96c.18-2.14.03-4.25-.66-6.3-.06-.19-.22-.36-.15-.59l.07-.06c.64-.41.68-.41.97.31.44 1.07.68 2.2.77 3.35.08.97.13 1.95.06 2.92a8.71 8.71 0 0 1-.3 1.78l-.76-1.41z"/><path fill="#C74F02" d="M24.23 33.01v.22c.03.21-.06.26-.26.26-.74.01-1.46-.16-2.19-.27-1.27-.2-2.51-.56-3.7-1.07-.23-.1-.45-.22-.66-.34-.09-.05-.2-.09-.19-.22 0-.14-.04-.35.04-.42.1-.09.22.09.33.15.21.11.42.21.67.24.19.02.37.05.54.11.89.34 1.82.49 2.75.62.77.11 1.55.17 2.32.2.31.01.37.13.34.39l.01.13c-.01 0-.01 0 0 0z"/><path fill="#F08102" d="M24.13 42.06c.94.43 1.9.44 2.87.14l.32-.1c-.02.58.16 1.15-.04 1.73-.04.1-.04.16-.15.16h-2.86c-.13 0-.19-.05-.18-.19a101 101 0 0 0 .04-1.74z"/><path fill="#F2E156" d="M25.33 37.03c-.53-.13-1.01-.73-1.04-1.33-.04-.62.37-1.21.96-1.42.62-.21 1.28-.04 1.62.42-.04.24-.07.49-.07.74a1.7 1.7 0 0 1-1.47 1.59z"/><path fill="#C74F02" d="M31.33 32.05c.82-.18 1.63-.4 2.42-.7l.21-.06c.12-.02.3-.14.35.03.05.17.1.39-.15.51-1.13.53-2.3.95-3.52 1.22-.66.14-1.32.28-1.99.33-.29.04-.56.14-.85.14-.2 0-.43.02-.54-.21-.07-.15.13-.52.32-.63.15-.09.31-.11.48-.14.69-.12 1.38-.14 2.07-.25l1.2-.24z"/><path fill="#DEDEDE" d="M11.13 34.47a6.2 6.2 0 0 0 2.51 3.31c-.11.36-.23.71-.33 1.07-.05.2-.11.2-.27.09a5.95 5.95 0 0 1-2.43-4.07 4.43 4.43 0 0 1 .07-1.7c.16.02.16.16.18.28.03.26.1.52.08.79 0 .12.06.21.19.23z"/><path fill="#FDFEFD" d="M31.39 43.22l.5.26c-.09.21-.26.09-.37.05-.24-.08-.41-.02-.56.18-.22.3-.52.53-.79.81.15.11.37-.01.52.23-.61-.01-1.17.03-1.73-.03-.45-.19-.65-.55-.62-1.13.06-.04-.03-.2.12-.18.55-.15 1.09-.32 1.66-.33.44-.02.86.05 1.27.14zM23.04 44.22c-.11.25-.27.45-.56.5-.31.03-.66.12-.93-.07a3.13 3.13 0 0 1-1.07-1.1c-.11-.21-.03-.29.19-.33.74-.14 1.44.03 2.13.26.37.12.39.17.29.57-.03.05-.01.12-.05.17z"/><path fill="#DEDEDD" d="M23.04 44.22c.03-.57.03-.57-.56-.76-.6-.2-1.2-.27-1.83-.18-.17.02-.19.1-.12.22.29.5.71.86 1.19 1.16.22.14.51.01.77.05-1.52.2-2.38.12-3.18-.95-.08-.16.04-.22.15-.27.11-.04.22-.1.34-.1a4 4 0 0 1 2.83-.07c.19.06.39.08.58.12-.01.27-.04.54-.17.78z"/><path fill="#DEDEDE" d="M28.96 44.71h1.62c-.15-.09-.3-.05-.45-.06-.05 0-.11.01-.13-.05-.02-.06.02-.1.06-.13.38-.29.72-.63 1.01-1.01.09-.11.19-.09.31-.06.17.05.33.16.53.08.15.05.25.17.34.29a2.47 2.47 0 0 1-2.2 1.03c-.38-.04-.74.04-1.09-.09z"/><path fill="#FCFCFB" d="M25.33 37.03c.46-.15.86-.39 1.14-.81.18-.28.27-.57.26-.91-.01-.21-.05-.44.14-.6a1.45 1.45 0 1 1-1.54 2.32z"/><path fill="#613F36" d="M31.33 32.05c-.54.27-1.13.3-1.71.37-.61.08-1.21.12-1.81.24-.33.07-.41.3-.5.56-.05.16.08.15.16.17.28.06.56.04.83 0 .11-.01.22-.04.34-.02-.41.12-.8.32-1.26.19-.25-.08-.33-.22-.29-.46v-.03c.1-.62.14-.69.79-.7.98-.01 1.96-.14 2.92-.31.18-.03.36-.01.53-.01z"/><path fill="#DCDCDC" d="M25.73 33.26h-.06c-.5.01-.49.01-.48-.48 0-.2.05-.31.28-.29.16.02.33 0 .5 0 .27 0 .4.1.37.41-.02.27-.06.41-.36.35l-.25.01z"/><path fill="#FBF5EE" d="M11.13 34.47c-.01.06-.02.13-.11.07-.1-.07-.19-.13-.16-.3.05-.37-.01-.73-.17-1.07-.03-.13.02-.26.06-.38.04-.03.08-.03.1.01.05.57.17 1.11.28 1.67z"/><path fill="#F4A025" d="M19.79 43.4c-.15.14-.44.1-.49.37a1.42 1.42 0 0 1-.32-.42c.27 0 .55.13.82 0l-.01.05z"/><path fill="#988F8D" d="M28.34 42.03c0 .07.01.15-.07.2.03-.59-.05-1.18.05-1.77l.02.04c.03.5.05 1.02 0 1.53z"/><path fill="#DBBD93" d="M28.28 42.39c.13.24 0 .52.1.76-.04.06.01.13-.05.18-.12-.3-.07-.62-.05-.94z"/><path fill="#FAD8A5" d="M28.33 43.34c.02-.06-.01-.13.05-.18l.08.24-.12.18-.01-.24z"/><path fill="#C6A774" d="M15.19 7.4c-.07.02-.16-.01-.21.08l-.17-.08c.05-.14.15-.08.24-.05l.14.05z"/><path fill="#937955" d="M15.05 7.34c-.08.02-.18-.04-.24.05-.05-.03-.18-.05-.04-.11a.3.3 0 0 1 .28.06z"/><path fill="#D9B690" d="M10.86 32.8l-.1-.01c-.02-.08.04-.12.07-.19.05.06.05.13.03.2z"/><path fill="#CB6105" d="M13.74 14.32v-.11c.03-.05.04-.14.13-.06-.03.06-.05.15-.13.17z"/><path fill="#9A7F59" d="M36.63 7.41c-.02-.06-.08-.05-.13-.07.07-.06.15-.09.21-.03.04.04-.02.09-.08.1z"/><path fill="#31201B" d="M33.27 20.77a4.32 4.32 0 0 1-1.26-.17c-1.1-.36-1.47-1.29-.93-2.32a2.07 2.07 0 0 1 2.54-.96c.96.34 1.52 1.3 1.33 2.3-.11.61-.51 1-1.15 1.11-.21.03-.41.03-.53.04zM18.25 20.76c-.19 0-.42.01-.64-.04-.83-.21-1.21-.89-1.03-1.88a2.05 2.05 0 0 1 2.34-1.62 2 2 0 0 1 1.7 2.3c-.07.41-.32.68-.67.89-.45.25-.92.35-1.7.35z"/><path fill="#FDFEFD" d="M20.37 13.7c.91-.1 1.59 1.05 1.2 1.94a.85.85 0 0 1-.5.45c-.63.23-1.26.24-1.86-.09-.62-.33-.77-1.03-.32-1.58.37-.46.86-.74 1.48-.72zM31.22 16.27a4.67 4.67 0 0 1-.39-.04c-1.1-.18-1.22-1.12-.82-1.87.44-.83 1.42-.8 2.14-.35.1.06.18.14.26.22.31.31.57.66.41 1.13-.15.46-.52.72-.97.83-.21.05-.43.05-.63.08z"/><path fill="#31201B" d="M23.35 21.43c-.02-.65.23-1.06.83-1.32 1-.42 2.02-.43 3.03-.04.43.17.82.41.92.93.09.32.03.63-.1.93a2.71 2.71 0 0 1-1.4 1.39c-.07.03-.16.04-.21.12.1.17.33.17.41.36.8.51 1.34.42 1.92-.31.19-.24.33-.5.48-.77.14-.25.35-.28.58-.17.21.11.33.26.21.53a3.2 3.2 0 0 1-1.34 1.66.72.72 0 0 0-.36.53 3.7 3.7 0 0 1-1.3 2.35c-.82.66-1.88.64-2.68-.04a4.04 4.04 0 0 1-1.29-2.43.58.58 0 0 0-.28-.41 3.37 3.37 0 0 1-1.31-1.62c-.11-.29-.03-.48.22-.59.28-.12.45-.05.6.23.12.25.27.49.44.72.58.73 1.13.82 1.92.31.08-.19.3-.21.43-.38-.3-.15-.6-.3-.85-.5a2.45 2.45 0 0 1-.72-.88 1.27 1.27 0 0 1-.15-.6z"/><path fill="#DEDEDD" d="M26.84 23.81c-.21-.1-.41-.22-.61-.39 1.11-.45 1.89-1.13 1.91-2.41a2.1 2.1 0 0 1-.64 2.36c-.22.16-.48.23-.66.44z"/><path fill="#DDD" d="M23.35 21.43c.25 1.02.94 1.62 1.92 1.98-.2.18-.4.3-.61.4l-.64-.47c-.43-.3-.65-.73-.78-1.22-.06-.23.06-.45.11-.69z"/><path fill="#E5BA7E" d="M28.34 42.03l.01-1.54c.07.51.09 1.03-.01 1.54z"/><path fill="#FCFDFC" d="M33.28 18.52c0 .36-.26.67-.59.68-.4.01-.68-.26-.69-.67a.67.67 0 0 1 .65-.67c.3-.01.62.33.63.66zM19.48 18.54c0 .41-.24.63-.66.63-.39 0-.61-.24-.6-.67 0-.35.26-.62.6-.63.39 0 .66.27.66.67z"/><path fill="#614037" d="M25.76 21.58c-.39-.06-.79-.04-1.14-.25-.17-.1-.33-.22-.32-.42 0-.21.17-.35.36-.43a2.9 2.9 0 0 1 2.17 0c.19.07.36.19.38.41.02.24-.17.34-.34.44-.34.2-.73.21-1.11.25z"/><path fill="#F28B7E" d="M26.91 26.38l-.1.15c-.77.92-1.53.88-2.25-.1.05-.11.16-.16.27-.19.67-.2 1.34-.14 1.99.06.04.02.06.05.09.08z"/><path fill="#DDDBDB" d="M26.91 26.38c-.65-.13-1.31-.27-1.98-.08l-.38.13c-.22-.29-.22-.29.11-.4a3.63 3.63 0 0 1 2.14-.01c.27.08.31.18.11.36z"/></svg>