<svg xmlns="http://www.w3.org/2000/svg" width="50" height="50" viewBox="0 0 50 50"><g transform="translate(-0.265)"><circle cx="25" cy="25" r="25" transform="translate(0.265)" fill="#f0f3fa"/><g transform="translate(6.007 6.873)"><path d="M8.643,19.325l1.019-7.657L.822,5.531,8.9,8.267,10.806,5.34l6.965-4.322L33.124,9.477l.8,12.906-6.84,9.5-5.406.828,2.8-5.118V22.671l-2.033-3.848-2.066-1.368-3.177,3.275V24.2l-2.48,2.322-3.15.382-1.4.79L7.88,26.96l-.954-3.434,1.717-2.414V19.325Z" transform="translate(0.526 0.65)" fill="#fff"/><path d="M19.525,3.837A16.089,16.089,0,0,0,16,3.581s-.6,2.8-4.355,3.532A6.741,6.741,0,0,0,19.525,3.837Zm1.526,25.37a12.26,12.26,0,0,0,4.262-6.262c.033-.093.316-.256.507-.382.316-.191.638-.349.7-.6a13.411,13.411,0,0,0,.191-2.256c0-.283-.289-.572-.572-.856-.223-.191-.447-.414-.447-.572a12.084,12.084,0,0,0-3.782-7.565l-.223.223a11.863,11.863,0,0,1,3.69,7.374,1.613,1.613,0,0,0,.54.763c.223.191.48.48.48.6a12.934,12.934,0,0,1-.191,2.191c-.033.125-.316.256-.54.382-.316.158-.6.316-.665.572A11.752,11.752,0,0,1,20.163,29.4l2.414-5.248-.125-4.7-4.039-3.908-2.289.316-2.512,4.071a2.437,2.437,0,0,1-.48,3.243,7.527,7.527,0,0,1-2.894,2.1l-1.177-.638a12.391,12.391,0,0,1,1.591-1.559c.921-.763,1.842-.828,1.842-1.651.038-1.722-1.809-1.248-1.809-1.248l-.67.638-.283,2.354-1.4,1.749-.158-.033-2.289-.507s1.4-.73,1.624-1.559c.223-.8-.447-3.434-.48-3.592a3.467,3.467,0,0,1,.954,1.461,11.544,11.544,0,0,1,1.368-2.861c.191-.125,2.763-1.493,2.763-1.493l-.856,2.256.638-.349,1.526-3.75a7.481,7.481,0,0,1,2.605-.73c2-.033,4.96-2.48,3.624-6.867.382.158,6.992,3.466,8.137,9.952.856,4.987-1.973,9.658-6.742,12.361Z" transform="translate(3.76 2.278)" fill="#94a6c3"/><path d="M17.246,6.813a2.72,2.72,0,0,0,.447-2.131l-2.131,3.15A2.466,2.466,0,0,0,17.246,6.813Zm-7.156,17.2.256-1.27s-1.052,1.842-1.145,2.1c-.1.289.065.8.474.763a1.264,1.264,0,0,0,.921-1.079.455.455,0,0,0-.507-.512ZM28.975,3.793s1.591.065,3.243.256A16.135,16.135,0,0,0,22.108.267a13.817,13.817,0,0,0-6.774,1.717L16.576.011A6.6,6.6,0,0,0,9.867,4.78a26.131,26.131,0,0,1-.856-2.736A5.747,5.747,0,0,0,7.643,8.055L.3,5.45c-.223-.033-.289.065-.289.065s-.065.093.125.256c.354.278,7.031,5.21,8.5,6.164-.316,1.145-.316,1.684,0,2.224a2.217,2.217,0,0,1,.414,1.651L8.281,21.6c-.125.572-1.461,2.605-1.4,3.21s.888,3.177,1.624,3.466a10.206,10.206,0,0,0,2.763.6,1.128,1.128,0,0,0,.73-.191c.54-.474.7-.572,1.079-.572h.093c.158,0,.349.033.572.033a2.417,2.417,0,0,0,1.651-.54c.7-.7,1.908-1.651,2.289-2.1a2.952,2.952,0,0,0,.6-2.256,3.024,3.024,0,0,1,.8-2.1L20.8,18.934a8.676,8.676,0,0,1,3.564,6.954c0,4.96-4.322,8.965-9.663,8.965a10.229,10.229,0,0,1-2.414-.283,18.754,18.754,0,0,0,6.2,1.145,10.332,10.332,0,0,0,5.5-1.3,15.84,15.84,0,0,1-1.749,1.842h.033a13.024,13.024,0,0,0,8.84-5.723s-.223,1.591-.507,2.671c7.908-5.946,6.573-13.385,6.54-13.636.065.093.861,1.046,1.27,1.559,1.275-13.1-9.44-17.331-9.44-17.331ZM16.8,24.716c-.125.158-.665.638-1.046.986s-.8.7-1.112,1.019a1.111,1.111,0,0,1-.763.191h-.954A16.884,16.884,0,0,1,15.279,24.5c.572-.382.861-.763.507-1.428s-1.27-.507-1.27-.507a3.156,3.156,0,0,1,1.019-.223,1.964,1.964,0,0,0-1.717.349c-.382.349-.316,1.591-.474,2.382-.158.828-.7,1.243-1.526,2.006a1.57,1.57,0,0,1-1.019.54A10.859,10.859,0,0,1,9.175,27.2a9.1,9.1,0,0,1-.921-2.354,12.908,12.908,0,0,1,.665-1.368,5.989,5.989,0,0,0,.67-1.526c.125-.54.54-3.88.7-5.276.414.54.986,1.433.856,2.006a2.684,2.684,0,0,0-.065-3.085,3.5,3.5,0,0,1-.349-2.605c.316-1.079,1.461-4.071,1.461-4.071s.382.67.921.54S18,2.785,18,2.785s1.177,2.572-.065,4.453a5.239,5.239,0,0,1-2.512,2.224A4.76,4.76,0,0,0,18.794,8.6c.665,1.559,1.3,3.177,1.335,3.4l-1.493,3.466a3.179,3.179,0,0,1-.828.256,4.492,4.492,0,0,0-.986.349A35.5,35.5,0,0,0,15.1,20.427a2.639,2.639,0,0,0-1.559,1.112,4.5,4.5,0,0,1,1.433-.316,2.85,2.85,0,0,1,2.164,2.066v.065A1.964,1.964,0,0,1,16.8,24.716Zm-2.987.382a2.951,2.951,0,0,0,.289-1.335c.033-.223.093-.638.349-.7s.861.033.861.474c0,.414-.447.507-.763.8C14.319,24.553,13.873,25.032,13.813,25.1Zm12.682-6.077a15.261,15.261,0,0,0,.256-4.164,11.68,11.68,0,0,1,2.224,5.723,1.613,1.613,0,0,0,.54.763c.223.191.48.447.48.6a13.046,13.046,0,0,1-.191,2.2c-.033.093-.316.256-.54.382-.316.158-.6.316-.665.572a11.849,11.849,0,0,1-4.2,6.137C27.356,28.15,28.784,23.059,26.495,19.021Zm-2,12.5a12.235,12.235,0,0,0,4.355-6.328c.033-.093.316-.256.507-.382.316-.158.638-.349.7-.6a13.411,13.411,0,0,0,.191-2.256c0-.283-.289-.572-.572-.856-.158-.191-.414-.414-.414-.572a12.467,12.467,0,0,0-2.605-6.328A6.566,6.566,0,0,0,23.41,9.167a5.826,5.826,0,0,1,.572,5.276c-1.177,2.829-4.2,2.387-4.453,2.414-.256,0-1.237,1.27-2.48,3.624a3.432,3.432,0,0,0-1.591-.093c.572-1.591,1.433-3.848,1.591-4.039a4.846,4.846,0,0,1,.861-.283c.6-.158.888-.256.986-.382.065-.1.382-.828.7-1.591a7.176,7.176,0,0,0,1.079-.1,11.837,11.837,0,0,0,.67-1.809c0-.158-1.243-3.243-1.717-4.42a7.328,7.328,0,0,0,.665-.921,13.008,13.008,0,0,1,4.2,24.672ZM16.036,14.35a1.387,1.387,0,0,0-.828-2.224c.289-.665.7-2,.7-2s-3.243,5.085-3.526,5.183-.572-1.019-.572-1.019c-.6,2.322,1.019,2.638,1.21,1.908a8.132,8.132,0,0,0,3.019-1.848Z" transform="translate(0 0)" fill="#1b314f"/><path d="M8.1,10.617,9.75,7.789s.954.48.474,1.243A6.167,6.167,0,0,1,8.1,10.617Z" transform="translate(5.169 4.97)" fill="#ffd923"/><path d="M30.445,28.252a18.627,18.627,0,0,1-1.651,1.94,17.082,17.082,0,0,0,.033-15.386c.289.289.572.6.828.888A10.064,10.064,0,0,1,30.445,28.252ZM34.26,18.109A19.1,19.1,0,0,0,26.314,8.032a16.169,16.169,0,0,0-9.222-2.605h-.065A2.18,2.18,0,0,1,17.5,5.3a20.312,20.312,0,0,1,3.532-.73,10.46,10.46,0,0,1,9.1,3.112l.065.065A14.943,14.943,0,0,1,34.26,18.109ZM25.295,2.369c-4.736-.888-7.788-.447-9.985.382a9.427,9.427,0,0,0-.48-1.177c-.659.8-1.363,1.749-1.8,2.354A6.459,6.459,0,0,0,11.31,5.552,6.627,6.627,0,0,1,16.526.942,12.958,12.958,0,0,1,18.815.751a14.967,14.967,0,0,1,6.48,1.619ZM7.778,8.474C4.061,8.348,5.3,4.021,5.364,3.77,5.364,3.8,5.615,7.171,7.778,8.474ZM11.435.685C8.574,2.4,9.146,6.5,9.146,6.5,6.41,2.342,11.212.783,11.435.685Z" transform="translate(3.266 0.438)" fill="#d82122"/><path d="M8.121,6.9a.639.639,0,0,1,.158.861c-.125.223-.316.191-.6.065C7.292,7.641,5,6.305,2.938,4.937c2.354.828,4.736,1.717,5.118,1.908q.032.031.065.06Z" transform="translate(1.877 3.151)" fill="#fff"/></g></g></svg>
