<svg version="1.1" id="Layer_1" xmlns="http://www.w3.org/2000/svg" x="0" y="0" viewBox="0 0 50 50" xml:space="preserve"><style>.st2{fill:#fff}</style><circle cx="25" cy="25" r="25" fill-rule="evenodd" clip-rule="evenodd"/><path class="st2" d="M-9.24-3.08a2.65 2.65 0 0 0-.3-.71 2.17 2.17 0 0 0-.53-.53 1.99 1.99 0 1 0 .83 1.24zm-1.95 2.14a1.74 1.74 0 1 1 0-3.48 1.74 1.74 0 0 1 0 3.48z" transform="translate(130 50) scale(9.375)"/><path class="st2" d="M-11.2-1.09H-10.94l.05-.01h.02l.05-.01c-.15 0-.31-.01-.45-.04a1.47 1.47 0 0 1-.62-.29 1.23 1.23 0 0 1-.17-1.74c.23-.28.56-.42.9-.43h.05v-.29h-.05a1.42 1.42 0 0 0-.87.3 1.38 1.38 0 0 0-.4.47c-.05.09-.08.18-.11.27a1.4 1.4 0 0 0-.06.28l-.01.09v.05a1.42 1.42 0 0 0 .42 1c.29.23.64.35.99.35z" transform="translate(130 50) scale(9.375)"/><path class="st2" d="M-10.71-1.35l-.3-.03c-.42-.08-.78-.33-.91-.72a.9.9 0 0 1 1.19-1.12l.11-.24-.1-.04a1.13 1.13 0 0 0-1.27.4c-.05.06-.08.12-.12.19a1.22 1.22 0 0 0-.05.89c.05.15.14.29.24.41.1.11.22.19.36.27.15.08.33.12.52.15.12.02.29.02.38.02l.16-.06.12-.06.11-.07.02-.01c-.25.03-.31.02-.46.02z" transform="translate(130 50) scale(9.375)"/><path class="st2" d="M-10.21-1.65l-.26.01c-.18 0-.4-.02-.59-.08-.29-.1-.57-.35-.57-.66 0-.31.25-.56.56-.56.21 0 .39.12.49.29l.24-.12a.82.82 0 0 0-.73-.43.87.87 0 0 0-.59.24.82.82 0 0 0-.17.92 1.17 1.17 0 0 0 .69.58c.19.06.46.08.72.07l.22-.03c.09-.07.17-.15.24-.24-.06-.01-.17 0-.25.01z" transform="translate(130 50) scale(9.375)"/></svg>