<svg version="1.2" baseProfile="tiny" xmlns="http://www.w3.org/2000/svg" viewBox="0 0 50 50" overflow="visible"><circle fill="#FFF" cx="25" cy="25" r="25"/><g fill="#070001"><path d="M25 5.58c3.79 0 7.45 1.42 10.09 4.06 2.71 2.64 4.2 6.1 4.2 9.82v22.96H10.71V19.46c0-3.72 1.49-7.18 4.2-9.82A14.12 14.12 0 0 1 25 5.58m0-.75c-4 0-7.79 1.49-10.63 4.27s-4.4 6.43-4.4 10.36v23.7h30.07v-23.7c0-3.93-1.56-7.58-4.4-10.29A14.9 14.9 0 0 0 25 4.83z"/><path d="M33.84 11l-.68-.68a12.17 12.17 0 0 0-8.13-2.98c-3.32 0-6.5 1.3-8.8 3.66a12.36 12.36 0 0 0-3.66 8.8v20.72H37.5V19.88A12.6 12.6 0 0 0 33.84 11zm-3.86 28.24a11.2 11.2 0 0 1-3.72.61h-9v-4.13a11.65 11.65 0 0 1-2.91-7.79v-7.79c0-3.05 1.14-5.89 3.17-8.13a16.04 16.04 0 0 1 8.33 2.71c2.17 1.5 4.81 4.2 4.81 8.6v15.71c-.2.09-.4.16-.68.21z"/><path d="M25.92 14.73a16.76 16.76 0 0 0-7.38-2.64c-.34 0-.68-.07-.95-.07a12.01 12.01 0 0 0-3.18 8.13v7.8c0 2.57.81 5.08 2.37 7.1.2.2.34.48.54.69v4.12h9.01a11.42 11.42 0 0 0 4.46-.88V23.27c-.06-4.4-2.7-7.04-4.87-8.54zM18 39.13v-2.64a11.9 11.9 0 0 0 4.2 2.64H18zm11.98-.61a11.2 11.2 0 0 1-3.72.6c-2.98 0-5.76-1.14-7.92-3.31l-.4-.41a4.94 4.94 0 0 1-.75-.95 10.95 10.95 0 0 1-2.17-6.57v-7.72c0-2.71 1.02-5.35 2.78-7.38 4.74.2 12.12 3.45 12.12 10.5V38.5h.06z"/><g><path d="M22.16 30.05c-.2 0-.41-.2-.41-.41v-6.9a3.32 3.32 0 0 1 6.64 0c0 .2-.2.41-.41.41-.2 0-.41-.2-.41-.41 0-1.35-1.15-2.51-2.51-2.51s-2.51 1.15-2.51 2.51v6.91c0 .2-.2.4-.4.4z"/><path d="M26.29 24.7c-.2 0-.41-.2-.41-.41a.78.78 0 0 0-.81-.81.78.78 0 0 0-.81.81c0 .2-.2.41-.41.41-.2 0-.41-.2-.41-.41 0-.95.74-1.69 1.69-1.69s1.69.74 1.69 1.69c-.13.21-.33.41-.53.41zM22.16 30.05a2.25 2.25 0 0 1-2.23-2.23c0-.2.2-.41.4-.41s.42.2.42.41c0 .74.6 1.35 1.35 1.35.74 0 1.35-.61 1.35-1.35 0-.2.2-.41.4-.41s.42.2.42.41a2.11 2.11 0 0 1-2.11 2.23zM19.79 25.38c-.14 0-.2-.07-.27-.14l-1.83-1.82v1.56c0 .2-.2.41-.41.41s-.47-.2-.47-.47V22.4c0-.2.14-.34.27-.41.2-.07.34-.07.47.07l1.83 1.83v-1.08c0-.2.2-.41.4-.41s.42.2.42.41v2.1c0 .2-.14.34-.27.41-.01.06-.08.06-.14.06zM22.09 23.21c-.2 0-.41-.2-.41-.41 0-.07 0-1.76-1.15-1.76-.2 0-.41-.2-.41-.41s.2-.41.4-.41c1.57 0 1.97 1.69 1.97 2.57 0 .22-.2.42-.4.42z"/></g></g></svg>