<svg xmlns="http://www.w3.org/2000/svg" xmlns:xlink="http://www.w3.org/1999/xlink" width="50" height="50" viewBox="0 0 50 50"><defs><linearGradient id="a" x1="0.907" y1="0.227" x2="0.163" y2="0.853" gradientUnits="objectBoundingBox"><stop offset="0" stop-color="#b6509e"/><stop offset="1" stop-color="#2ebac6"/></linearGradient></defs><circle cx="25" cy="25" r="25" fill="url(#a)"/><path d="M28.7,28.224,20.247,7.789a2.273,2.273,0,0,0-2.119-1.573h-.748a2.273,2.273,0,0,0-2.119,1.573l-3.679,8.9H8.8A1.523,1.523,0,0,0,7.283,18.2v.021A1.523,1.523,0,0,0,8.8,19.735h1.5l-3.51,8.49a1.792,1.792,0,0,0-.1.579,1.6,1.6,0,0,0,.417,1.14,1.458,1.458,0,0,0,1.123.435,1.519,1.519,0,0,0,.873-.29,1.844,1.844,0,0,0,.6-.767l3.86-9.585h2.681a1.523,1.523,0,0,0,1.517-1.51v-.042a1.523,1.523,0,0,0-1.517-1.51H14.806l2.948-7.352,8.04,20a1.844,1.844,0,0,0,.6.767,1.519,1.519,0,0,0,.873.29,1.458,1.458,0,0,0,1.123-.435,1.6,1.6,0,0,0,.417-1.14,1.369,1.369,0,0,0-.1-.579Z" transform="translate(7.236 6.734)" fill="#fff"/></svg>
