<svg xmlns="http://www.w3.org/2000/svg" width="50" height="50" viewBox="0 0 50 50"><g transform="translate(-1792.235 -532)"><g transform="translate(1792.235 532)"><circle cx="25" cy="25" r="25" transform="translate(0 0)" fill="#242424"/></g><path d="M5.291,30.614l4.427-7.667,4.427-7.64,4.4-7.667.729-1.215L19.6,7.64l1.35,5.048-1.512,2.619-4.427,7.64-4.4,7.667H15.9l4.427-7.667,2.295-3.969,1.08,3.969,2.052,7.667h4.751l-2.052-7.667L26.4,15.307l-.54-1.971,3.294-5.7H24.351l-.162-.567L22.515.81,22.3,0H17.683l-.108.162L13.255,7.64,8.828,15.307l-4.4,7.64L0,30.614Z" transform="translate(1800.522 539.042)" fill="#fff"/></g></svg>