<svg xmlns="http://www.w3.org/2000/svg" xml:space="preserve" viewBox="0 0 50 50"><circle cx="25" cy="25" r="25" fill="#fff"/><linearGradient id="a" x1="25" x2="25" y1="1031.55" y2="1064.47" gradientTransform="translate(0 -1014)" gradientUnits="userSpaceOnUse"><stop offset="0" stop-color="#01e8f8"/><stop offset="1" stop-color="#01e8f8" stop-opacity="0"/></linearGradient><circle cx="25" cy="25" r="24.8" fill="url(#a)" fill-opacity=".05"/><linearGradient id="b" x1="40.43" x2="41.53" y1="1032.93" y2="1046.09" gradientTransform="translate(0 -1014)" gradientUnits="userSpaceOnUse"><stop offset="0" stop-color="#01e8f7"/><stop offset="1" stop-color="#00c2ff"/></linearGradient><path fill="url(#b)" d="M44.4 23.4c.2-3.6-2.3-5.9-5.2-7.6l-1.8 10.8c.8-.1 1.5.1 2.1.6.7.7.7 1.7.1 2.5 1.8-.3 4.6-2 4.8-6.3z"/><linearGradient id="c" x1="18.75" x2="31.53" y1="1025.86" y2="1046.15" gradientTransform="translate(0 -1014)" gradientUnits="userSpaceOnUse"><stop offset="0" stop-color="#01e8f7"/><stop offset="1" stop-color="#00b3ec"/></linearGradient><path fill="url(#c)" fill-rule="evenodd" d="m20.3 10.8-2.2-2.2c3.3-.4 12 .1 20.4 5.4.1.5.1.9 0 1.4l.7.4c1.1 1.9 1.5 4.2.9 6.3-.7 2.9-2 4.2-2.5 4.5-1.1 0-3 .7-3.7 3.5-.6 2.9-1.8 3.5-2.3 3.5l-12.4.1-8.2-4.8-1.2-10 2.3-3.1 4.2-3.4 3-1.2 1-.4zM35 14.9c-.4.4-.8.7-1.2.9-3.2-.7-4.3-2.3-4.3-2.3 2.7-.1 5.4.6 7.8 1.9-.8-.2-1.5-.4-2.3-.5z" clip-rule="evenodd"/><linearGradient id="d" x1="23.94" x2="25.08" y1="1035.31" y2="1068.05" gradientTransform="translate(0 -1014)" gradientUnits="userSpaceOnUse"><stop offset="0" stop-color="#01e8f7"/><stop offset="1" stop-color="#00c2ff"/></linearGradient><path fill="url(#d)" fill-rule="evenodd" d="M33.9 30.1c-2.4 1.1-5 1.7-7.6 1.7-7.8 0-14.2-4.9-14.2-11 0-4.5 3.5-8.3 8.4-10-9.4.5-17 8.1-17 17.5C3.5 39 13.1 48 25 48c8.4-.1 16.1-4.7 20.1-12-5.3 1.1-11.6-1.1-11.2-5.9z" clip-rule="evenodd"/></svg>