<svg xmlns="http://www.w3.org/2000/svg" xmlns:xlink="http://www.w3.org/1999/xlink" width="50" height="50" viewBox="0 0 50 50"><defs><radialGradient id="a" cx="0.5" cy="0.552" r="0.562" gradientTransform="translate(-0.597 0.585) rotate(90)" gradientUnits="objectBoundingBox"><stop offset="0.167" stop-color="#073183"/><stop offset="1" stop-color="#0054f9"/></radialGradient><clipPath id="b"><path d="M50,25A25,25,0,1,0,25,50,25,25,0,0,0,50,25Z"/></clipPath></defs><path d="M50,25A25,25,0,1,0,25,50,25,25,0,0,0,50,25Z" fill="url(#a)"/><g transform="translate(8.626 9.166)"><path d="M113.671,42.046a3.988,3.988,0,0,1-.377,1.239h0a6.863,6.863,0,0,0-.485,1.643c-.054.323-.108.593-.135.808v.027h0a5.127,5.127,0,0,1-.216,1,4.543,4.543,0,0,1-.754,1.509c-.377.485-1,1.32-1.832,1.428a1.105,1.105,0,0,1-.3-.027,39,39,0,0,0-5.092-2.29c-.808-.242-.7-2.02-.62-3.583a16.258,16.258,0,0,0,.054-1.94c-.108-1.994-.458-4.149-2.182-5.2A7.158,7.158,0,0,0,98.1,35.85c.242-.108.485-.269.781-.431h0a7.251,7.251,0,0,1,2.613-1.078c.3-.027.593-.054.889-.108a11.125,11.125,0,0,1,5.172.189,5.728,5.728,0,0,1,2.748,1.967,8.11,8.11,0,0,0,1.724,1.913c.512.458.835.727,1.078.943h0a1.478,1.478,0,0,1,.512.539A3.535,3.535,0,0,1,113.671,42.046Z" transform="translate(-80.298 -34.025)" fill="#fff"/><path d="M108.692,93.221a.167.167,0,0,1,.081.269c-.242.377-.539.916-.889,1.536-.162.3-.323.593-.458.808a3.936,3.936,0,0,0-.512,1.967c-.027.566-.054.808-.4,1.024-.269.189-.566.242-2.505.539a1.515,1.515,0,0,0-.62.189c-.027.027-.081.027-.108.054-.108.054-.216-.054-.216-.162.027-.269.027-.62.027-1.078v-.081c0-.377,0-.7-.027-.943a1.455,1.455,0,0,1,.108-.916,1.384,1.384,0,0,1,.485-.485,3.879,3.879,0,0,0,1.266-1.239,2.2,2.2,0,0,0,.431-.862c.027-.081.027-.108.269-.3a2.663,2.663,0,0,1,2.02-.62A6.285,6.285,0,0,1,108.692,93.221Z" transform="translate(-83.913 -77.037)" fill="#fff"/><path d="M93.276,123.72a.192.192,0,0,1-.162.081.5.5,0,0,1-.431-.162,1.651,1.651,0,0,1-.135-1.024l.835-.216A2.278,2.278,0,0,1,93.276,123.72Z" transform="translate(-76.228 -98.592)" fill="#fff"/><path d="M93.381,115.769a1.784,1.784,0,0,0-.027.4v.62a2.4,2.4,0,0,1-.754.081v-.7a2.474,2.474,0,0,1,.027-.485.786.786,0,0,0,.242-.054,1.924,1.924,0,0,1,.539-.054A.458.458,0,0,1,93.381,115.769Z" transform="translate(-76.28 -93.604)" fill="#fff"/><path d="M86.736,124.281c-.027.431-.162.943-.566,1.024a.336.336,0,0,1-.323-.081c-.269-.242-.3-1-.269-1.536a3.473,3.473,0,0,0,.674-.081c.162-.027.323-.081.458-.108A3.587,3.587,0,0,1,86.736,124.281Z" transform="translate(-71.143 -99.396)" fill="#fff"/><path d="M86.789,117.512l-.889.323c.054-.35.108-.835.135-1.158a.564.564,0,0,1,.108-.323.094.094,0,0,1,.054-.027h.054l.566-.027C86.789,116.569,86.789,117.162,86.789,117.512Z" transform="translate(-71.385 -94.135)" fill="#fff"/><path d="M80.439,117.635a4.185,4.185,0,0,0-.135.781l-1.1-.027a7.271,7.271,0,0,1,.242-.97c.108-.269.189-.485.3-.539a.515.515,0,0,1,.512.054A.539.539,0,0,1,80.439,117.635Z" transform="translate(-66.49 -94.527)" fill="#fff"/><path d="M79.85,127.094a.408.408,0,0,1-.3.189.357.357,0,0,1-.3-.081c-.35-.323-.323-1.374-.3-1.886a11.857,11.857,0,0,1,1.212-.216A4.138,4.138,0,0,1,79.85,127.094Z" transform="translate(-66.305 -100.565)" fill="#fff"/><path d="M73.978,118.215a2.371,2.371,0,0,0-.135.4,2.575,2.575,0,0,1-.943-.081l.269-1.751c.458-.135,1-.162,1.1-.027C74.463,116.948,74.112,117.837,73.978,118.215Z" transform="translate(-61.887 -94.407)" fill="#fff"/><path d="M70.709,128.578a1.1,1.1,0,0,1-1,.377.506.506,0,0,1-.485-.216,2.845,2.845,0,0,1,.242-1.94l1.509.081a1.657,1.657,0,0,1,.027.377A1.972,1.972,0,0,1,70.709,128.578Z" transform="translate(-59.131 -101.807)" fill="#fff"/><path d="M59.49,52.492c-1.374-.377-1.239-2.371-1.131-4.31.027-.673.081-1.32.054-1.859-.108-1.8-.4-3.772-1.859-4.661-1.562-.943-4.122-.727-5.684-.539h0a4.986,4.986,0,0,1-1.536.269,5.367,5.367,0,0,1-2.29-.781A3,3,0,0,0,45.7,40.1h-.054a3.361,3.361,0,0,0-2.29.835c-.135.108-.3.431-.808,1.913a6.318,6.318,0,0,0-.35,1.536,6.511,6.511,0,0,1-.269,1.293c-.135.377-.242.7-.323,1.024a6.589,6.589,0,0,1-1.051,2.317c-.081.081-.162.242-.269.377a6.948,6.948,0,0,1-.539.781,3.332,3.332,0,0,0-.485,1.266,2.161,2.161,0,0,0,.3.916,2.533,2.533,0,0,1,.35,1.051v.081c.054.7-.054,1.051-1.374,2.236a14.479,14.479,0,0,0-1.859,2.02c-.027.054,0,.108.081.108h.269a1.3,1.3,0,0,1,.862.4c.027.054.108.054.162.027a1.436,1.436,0,0,1,.673-.054,1.25,1.25,0,0,1,.754.3.21.21,0,0,0,.216.054,1.15,1.15,0,0,1,.673.027.957.957,0,0,1,.431.3.287.287,0,0,0,.323.054,1.6,1.6,0,0,1,.216-.108,1.26,1.26,0,0,1,.889.054,1.365,1.365,0,0,1,.4.189,1.3,1.3,0,0,1,.458.62.22.22,0,0,0,.35.081.552.552,0,0,1,.539-.135.362.362,0,0,1,.189.162c.081.108.216.216.323.162a1.938,1.938,0,0,1,1.4.162.938.938,0,0,1,.377.35h0v-.081c0-.027.027-.054.054-.081L46.4,60.3c.216-.081,1.347-.4,1.778.054a.051.051,0,0,0,.081,0c.054-.054.108-.108.135-.108a.989.989,0,0,1,1.1.108.167.167,0,0,0,.216-.027.21.21,0,0,1,.108-.108.593.593,0,0,1,.431-.135l.62-.027a6.955,6.955,0,0,0,.781-.081h.027a.833.833,0,0,0,.216-.054,1.518,1.518,0,0,1,.916,0c.269.135.242.431.216.7,0,.108-.027.216-.027.323v.162a4.181,4.181,0,0,1-.027.62h0l.027.135v.027c.027.108.162.189.242.108a2.242,2.242,0,0,0,.512-.4v-.027c0-.027.027-.081.054-.189a13.24,13.24,0,0,0,.081-1.643v-.108a8.668,8.668,0,0,0-.027-.889,1.981,1.981,0,0,1,.216-1.32,1.95,1.95,0,0,1,.727-.7,3.273,3.273,0,0,0,1.078-1.051,1.538,1.538,0,0,0,.3-.593c.054-.269.135-.431.539-.7a3.3,3.3,0,0,1,2.559-.754,11.835,11.835,0,0,1,1.8.566h0c.027,0,.054.027.081.027h.027a15.513,15.513,0,0,1,1.589.727.214.214,0,0,0,.269-.054,2.343,2.343,0,0,1,.4-.35.589.589,0,0,0,.135-.081.026.026,0,0,0,.027-.027.214.214,0,0,0-.027-.35A26.41,26.41,0,0,0,59.49,52.492Zm-12.985.4c-.431,1.832-3.287,3.879-4.58,3.879h-.081a.1.1,0,0,1-.081-.027H41.71a2.153,2.153,0,0,1-.808-.485,1.413,1.413,0,0,1-.35-.566c0-.027-.027-.081-.027-.108a1.877,1.877,0,0,1,.108-1.347c.027-.081.081-.162.108-.242,0-.027.027-.054.027-.081a1.313,1.313,0,0,1,.081-.189,1.056,1.056,0,0,1,.108-.242c0-.027.027-.054.027-.081a3.205,3.205,0,0,0,.108-.377,1.551,1.551,0,0,1,.054-.269,8,8,0,0,0,.162-.889,2.78,2.78,0,0,1,.377-1.239c.054-.054.081-.108.135-.162l.054-.054.054-.054a.675.675,0,0,1,.189-.108c.027,0,.054-.027.081-.027.054-.027.108-.027.162-.054a2.793,2.793,0,0,1,.835-.027,4.568,4.568,0,0,1,.943.162,2.752,2.752,0,0,1,.62.216c.027,0,.027.027.054.027.027.027.054.027.108.054s.081.027.135.054l.162.081.054.027a2.323,2.323,0,0,1,.512.3,1.172,1.172,0,0,1,.189.162c.027.027.054.027.054.054l.054.054A1.5,1.5,0,0,1,46.506,52.9Zm1.347-6.977-.054.323A2.252,2.252,0,0,1,46.29,48.29a10.582,10.582,0,0,1-2.02.35h-.054a1.874,1.874,0,0,1-1.778-1.185c-.108-.539.135-.943.512-1.589.054-.108.135-.216.216-.35a8.288,8.288,0,0,0,.889-2.047A2.833,2.833,0,0,1,44.7,42.2a1.055,1.055,0,0,1,.269-.216,1.5,1.5,0,0,1,.216-.135c.108-.054.216-.081.323-.135a2.434,2.434,0,0,1,.754-.108,2.147,2.147,0,0,1,1.374.431,1.692,1.692,0,0,1,.539,1.158A12.328,12.328,0,0,1,47.853,45.919Zm7.732,2.155A4.531,4.531,0,0,1,54.7,49.34a2.985,2.985,0,0,1-1.994.647,7.946,7.946,0,0,1-1.051-.108c-.647-.108-1.8-.323-2.209-1.266a.972.972,0,0,1-.081-.458,6.269,6.269,0,0,0-.081-.97v-.027a3.655,3.655,0,0,1,0-.943v-.054a10.486,10.486,0,0,1,.323-1.4.444.444,0,0,1,.62-.189.48.48,0,0,1,.216.593c-.027.054-.081.3-.269,1.185V46.4a1.886,1.886,0,0,0,0,.673V47.1a7.778,7.778,0,0,1,.081,1.078v.108a.9.9,0,0,0,.431.4.173.173,0,0,0,.242-.189,4.871,4.871,0,0,1,.189-2.883c.135-.242.35-.62.566-1h0a.2.2,0,0,0,.054-.108c.027-.027.027-.054.054-.081.108-.162.189-.3.269-.431,0-.027.027-.027.027-.054l.027-.027c.027-.027.027-.054.054-.081a.026.026,0,0,1,.027-.027h0l.027-.027c0-.027.027-.027.027-.054h0a2.248,2.248,0,0,0,.216-.323.15.15,0,0,0-.162-.242,4.361,4.361,0,0,0-.673.377.461.461,0,1,1-.566-.727,3.539,3.539,0,0,1,2.963-.673,3.339,3.339,0,0,1,1.832,1.428,3.487,3.487,0,0,1,.673,2.074A4.706,4.706,0,0,1,55.584,48.074Z" transform="translate(-35.412 -38.463)" fill="#fff"/><path d="M63.856,49.2c-.081.189-.162.4-.269.647a15.549,15.549,0,0,1-.62,1.455,8.036,8.036,0,0,1-.512.862,3.515,3.515,0,0,0-.377.7A2.915,2.915,0,0,0,62,54.4c-.3-.027-.754-.216-.808-.485-.027-.189.081-.377.4-.943a2.459,2.459,0,0,1,.216-.35,9.688,9.688,0,0,0,.97-2.236c.189-.566.269-.808.566-1.024A2.22,2.22,0,0,1,63.856,49.2Z" transform="translate(-53.328 -45.112)" fill="#fff"/><path d="M65.146,118.225a9.294,9.294,0,0,1-.943,1.536,6.836,6.836,0,0,1-.458-2.8v-.081a1.7,1.7,0,0,1,.269-.835.82.82,0,0,1,.673-.242,1.545,1.545,0,0,1,.673.162h0a.539.539,0,0,1,.269.539A3.507,3.507,0,0,1,65.146,118.225Z" transform="translate(-55.184 -93.77)" fill="#fff"/><path d="M61.182,96.344a.1.1,0,0,1,.027.081,2.017,2.017,0,0,1-.35.485,3.032,3.032,0,0,0-.512.754A4.33,4.33,0,0,0,60,99.711a17.1,17.1,0,0,0,.054,2.586,5.636,5.636,0,0,1-.027,1.347,6.542,6.542,0,0,1-1.185,2.559c-.7,1.078-1.4,2.182-2.586,2.532a1.34,1.34,0,0,1-.431.027c-.269,0-.727,0-1.562.027a19.433,19.433,0,0,0-2.99.216,7.763,7.763,0,0,0-1.428.431,6.893,6.893,0,0,1-1.185.377,13.726,13.726,0,0,1-2.613.162,35.887,35.887,0,0,1-4.364-.162,11.484,11.484,0,0,1-3.664-.7c-1.563-.835-2.236-2.344-3.314-4.822h0a.058.058,0,0,1,.054-.054l.162.081a.293.293,0,0,0,.135.027.657.657,0,0,0,.323,0c.027,0,.027,0,.054-.027h0c.027,0,.054,0,.054.027a.9.9,0,0,0,.377.458,1.16,1.16,0,0,0,.593.108,5.233,5.233,0,0,0,.647-.054.332.332,0,0,1,.269.135c.189.485.431.808.808.862h.081a.7.7,0,0,0,.377-.135.35.35,0,0,1,.458.108,1.034,1.034,0,0,0,.3.3,3.3,3.3,0,0,0,2.047.566,2.476,2.476,0,0,0,1-.162c.323-.162.323-.377.3-.485-.027-.162-.054-.35-.081-.512,0-.027.027-.027.027,0,.054.108.108.216.242.242h.054c.216,0,.539.081.593.269a1.444,1.444,0,0,0,.135.3,1.077,1.077,0,0,0,.889.458h.027a1.619,1.619,0,0,0,1.347-.566c.027-.027.027-.054.054-.081a.415.415,0,0,1,.566-.027.869.869,0,0,0,.566.216h.108a.949.949,0,0,0,.673-.4,1.8,1.8,0,0,0,.242-.566.1.1,0,0,1,.162-.027.788.788,0,0,0,.566.216.669.669,0,0,0,.216-.027,1.212,1.212,0,0,0,.889-1c0-.027.027-.027.027,0a.975.975,0,0,0,.781.35h.054a.7.7,0,0,0,.539-.269,1.686,1.686,0,0,0,.242-.835.253.253,0,0,1,.162-.216,2.985,2.985,0,0,0,1.131-.862.026.026,0,0,1,.027-.027.2.2,0,0,1,.162-.135,2.114,2.114,0,0,0,.62-.189,1.576,1.576,0,0,1,.458-.135c1.967-.3,2.344-.377,2.775-.647a1.731,1.731,0,0,0,.7-1.589,3.34,3.34,0,0,1,.431-1.67c.135-.242.3-.512.458-.835a18.906,18.906,0,0,1,1-1.7.175.175,0,0,1,.242-.054A6.364,6.364,0,0,1,61.182,96.344Z" transform="translate(-33.978 -79.082)" fill="#fff"/><path d="M54.694,116.1a13.048,13.048,0,0,0-.027,2.775c.027.323.081.673.135,1.024a1.741,1.741,0,0,1-.862.108,2.77,2.77,0,0,1-1.616-.431l-.027-.027c-.162-.135-.3-.242-.3-.485a.568.568,0,0,1,.108-.3.94.94,0,0,0,.162-.242c.108-.162.269-.35.431-.62.458-.754.62-1,.835-1.293.027-.027.027-.054.054-.081.135-.162.269-.377.512-.727.162-.242.3-.458.431-.62a3.283,3.283,0,0,1,.4-.485,3.111,3.111,0,0,1-.054.431A3.868,3.868,0,0,0,54.694,116.1Z" transform="translate(-46.617 -92.966)" fill="#fff"/><path d="M55.831,80.354h0a3.019,3.019,0,0,0-.35.566,3.173,3.173,0,0,0-.35,1.536,1.413,1.413,0,0,1-.054.485,1.439,1.439,0,0,1-.162.377,3.374,3.374,0,0,0-.35,1.859,1.684,1.684,0,0,1-.458-.35c0-.054-.027-.081-.027-.135a1.155,1.155,0,0,1,.054-.781,4.612,4.612,0,0,0,.512-1.482c0-.054.027-.108.027-.189a9.032,9.032,0,0,0,.162-.97,1.943,1.943,0,0,1,.242-.862c.054-.081.189-.108.377-.108a1.011,1.011,0,0,1,.269.027h.027Z" transform="translate(-48.105 -67.834)" fill="#fff"/><path d="M52.052,113.2a2.2,2.2,0,0,0-.162-.7.271.271,0,0,1-.027-.081c-.027-.027-.027-.054-.054-.081h0l-.027-.027c-.027-.027-.027-.027-.054-.027h0l-.027-.027c-.027,0-.027-.027-.054-.027H51.62a2.02,2.02,0,0,0-.431-.135h-.135c-.027,0-.054.027-.108.027-.027,0-.027.027-.054.027l-.027.027h0l-.054.054-.027.027h0v.027l-.162.242c-.135.189-.269.4-.4.593s-.242.35-.377.539c-.081.108-.135.189-.216.3,0,.027-.027.027-.027.054.081.027.162.027.242.054.189.027.377.054.539.081a5.568,5.568,0,0,0,1.158.054h.054c.081-.135.216-.3.35-.512a2.248,2.248,0,0,0,.216-.323A.168.168,0,0,1,52.052,113.2Z" transform="translate(-44.864 -91.067)" fill="#fff"/><path d="M46.925,121.15a5.022,5.022,0,0,1-.862,1.778c-.431.593-.7.754-.754.754-.216-.027-.4-.539-.566-1.051-.054-.216-.135-.4-.162-.593a4,4,0,0,1-.108-1.239,5.2,5.2,0,0,0,2.263.3h0C46.79,121.123,46.871,121.123,46.925,121.15Z" transform="translate(-41.111 -97.423)" fill="#fff"/><path d="M45.247,111.566h0c-.189.3-.377.566-.566.835-.108.135-.189.269-.3.4-.054.081-.135.162-.189.242-.162-.027-.3-.081-.458-.108a2.111,2.111,0,0,1-.377-.135c-.027,0-.054-.027-.081-.027-.027-.027-.054-.081-.081-.108h0c.054-.081.081-.189.135-.269a4.358,4.358,0,0,1,.269-.485,2.153,2.153,0,0,1,.647-.754c.027,0,.027-.027.054-.027a1.353,1.353,0,0,1,.35-.135h.216c.027,0,.054.027.108.027a.026.026,0,0,1,.027.027c.027.027.054.027.081.054-.054-.027.054.081.054.054A2.245,2.245,0,0,1,45.247,111.566Z" transform="translate(-40.188 -90.263)" fill="#fff"/><path d="M40.286,109.933a2.759,2.759,0,0,0-.781,1.051l-.323.647a.094.094,0,0,1-.027.054c-.108-.027-.216-.054-.3-.081-.108-.027-.216-.081-.323-.108-.054-.027-.081-.054-.135-.081a6.444,6.444,0,0,1,.35-.566,7.254,7.254,0,0,1,.539-.727,2.057,2.057,0,0,1,.242-.242.512.512,0,0,1,.35-.027.856.856,0,0,1,.377.054C40.232,109.906,40.259,109.933,40.286,109.933Z" transform="translate(-36.681 -89.412)" fill="#fff"/><path d="M40.089,121.428l-.054.054h-.027c-.081,0-.162.027-.242.027a2.915,2.915,0,0,1-.485,0,.306.306,0,0,1-.216-.081,1.334,1.334,0,0,1-.108-.35A6.559,6.559,0,0,1,38.9,119.3a5.375,5.375,0,0,0,.943.242,4.945,4.945,0,0,0,.108,1.536A.941.941,0,0,1,40.089,121.428Z" transform="translate(-37.024 -96.327)" fill="#fff"/><path d="M35.343,108.737a7.274,7.274,0,0,0-.727,1.051c-.081.135-.189.3-.269.458a1,1,0,0,1-.3-.135,1.494,1.494,0,0,1-.216-.162c-.027-.027-.081-.054-.108-.081a.026.026,0,0,1-.027-.027c.027-.081.081-.135.081-.189a1.452,1.452,0,0,1,.189-.35c.135-.216.269-.431.431-.647a.374.374,0,0,1,.216-.189.765.765,0,0,1,.727.269Z" transform="translate(-33.247 -88.404)" fill="#fff"/><path d="M32.041,114.745c0-.027.027-.027,0,0a2.684,2.684,0,0,0,.3.269c.054.027.081.081.135.108v.027a6.285,6.285,0,0,0-.189,1.428c0,.027-.027.027-.027,0A5.984,5.984,0,0,1,32.041,114.745Z" transform="translate(-32.02 -92.985)" fill="#fff"/><path d="M35.3,117.916a6.1,6.1,0,0,0-.054,1.212,6.157,6.157,0,0,0,.054.673h-.216l-.108-.054a.584.584,0,0,1-.162-.189,1.228,1.228,0,0,1-.135-.62,4.824,4.824,0,0,1,.108-1.239,1.855,1.855,0,0,0,.216.081,1.445,1.445,0,0,0,.3.135Z" transform="translate(-33.959 -95.158)" fill="#fff"/></g><g clip-path="url(#b)"><g transform="translate(-4.748 -4.445)" opacity="0.8"><path d="M7.706,40.881c-1.832,0-3.556-.108-5.011-.216l-.4-.027-.4-.054q-.283-.04-.647-.081a21.169,21.169,0,0,1-6.9-1.778l-.458-.216-.4-.242a20.341,20.341,0,0,1-8.728-10.291c-.081-.162-.162-.35-.242-.539A20.648,20.648,0,0,1-16.7,24.287l-.054-.216-.054-.216a18.2,18.2,0,0,1-.647-7.759,16.593,16.593,0,0,1,2.856-7l.808-1.32a3.411,3.411,0,0,0,.35-.862,17.426,17.426,0,0,1,2.721-6.3,19.8,19.8,0,0,1,.943-3.718l.054-.189.081-.189a1.059,1.059,0,0,1,.054-.162A17.122,17.122,0,0,1-6.68-9.092l.7-.808.727-.647a16.475,16.475,0,0,1,6.412-3.61,17.406,17.406,0,0,1,4.095-.727h.323c.242,0,.485-.027.7-.027a16.749,16.749,0,0,1,2.586.216,2.927,2.927,0,0,0,1.589-.189,18.217,18.217,0,0,1,4.607-1.239c.135-.027.242-.027.35-.054.242-.027.647-.081,1.131-.135.835-.081,2.128-.189,3.5-.189a21.666,21.666,0,0,1,7.166,1.078l.189.054.162.054a18.857,18.857,0,0,1,8.675,6.331l.081.108.242.216a16.348,16.348,0,0,1,3.852,4.31l.323.512L41-3.3A16.759,16.759,0,0,1,42.269,7.18l-.027.081a19.424,19.424,0,0,1-.916,3.475,18.2,18.2,0,0,1-.754,3.179,18.542,18.542,0,0,1-2.613,5.145,18.368,18.368,0,0,1-2.209,2.586,1.728,1.728,0,0,0-.539,1.051c-.027.242-.081.485-.108.727a19.528,19.528,0,0,1-2.856,7.031L30.335,33.2A16.888,16.888,0,0,1,21.957,39l-.808.242-.862.162a16.115,16.115,0,0,1-3.017.269h-.835a4.146,4.146,0,0,0-1.131.189A24.691,24.691,0,0,1,7.706,40.881Z" transform="translate(17.624 16.5)" fill="none" stroke="#707070" stroke-miterlimit="10" stroke-width="1.055" opacity="0.8"/><path d="M13.737,45.983c-1.751,0-3.448-.108-4.849-.216l-.323-.027-.323-.054c-.216-.027-.458-.054-.7-.081a18.224,18.224,0,0,1-6.169-1.589l-.377-.189-.35-.189a17.75,17.75,0,0,1-7.812-9.213c-.081-.162-.162-.377-.269-.566A18.588,18.588,0,0,1-8.542,31l-.054-.189-.054-.162a16.094,16.094,0,0,1-.566-6.843A14.537,14.537,0,0,1-6.683,17.7L-5.632,16a2.637,2.637,0,0,0,.377-1A15.281,15.281,0,0,1-2.75,9.1l.081-.108.027-.054c0-.027.027-.054.027-.081.027-.135.081-.242.108-.35a17.509,17.509,0,0,1,.862-3.5l.054-.162.054-.162c.027-.054.027-.108.081-.269A14.346,14.346,0,0,1,1.076-.327l.593-.7.593-.539a14.038,14.038,0,0,1,5.55-3.125,14.9,14.9,0,0,1,3.61-.62h.269c.216,0,.4-.027.593-.027A14.2,14.2,0,0,1,14.9-5.418a3.278,3.278,0,0,0,1.967-.216,17.953,17.953,0,0,1,4.5-.943c.135-.027.242-.027.323-.054.242-.027.62-.081,1.051-.108.781-.081,1.994-.162,3.314-.162a20.142,20.142,0,0,1,6.439.943l.162.054.135.054a16.474,16.474,0,0,1,7.7,5.63c.081.108.189.216.216.269l.027.027.3.269L41.054.4a13.929,13.929,0,0,1,3.421,3.8l.269.431.216.458a14.455,14.455,0,0,1,1.078,9.133l-.027.081a17.439,17.439,0,0,1-.889,3.287,16.364,16.364,0,0,1-.7,3.017A17.289,17.289,0,0,1,42.1,25.158a15.655,15.655,0,0,1-2.344,2.64,2.227,2.227,0,0,0-.727,1.428c-.054.4-.108.781-.162,1.185a16.769,16.769,0,0,1-2.586,6.277l-1.563,2.263a14.813,14.813,0,0,1-7.489,5.307l-.673.216-.727.135a12.229,12.229,0,0,1-2.613.216H22.008a4.783,4.783,0,0,0-1.212.216A22.5,22.5,0,0,1,13.737,45.983Z" transform="translate(11.592 9.486)" fill="none" stroke="#707070" stroke-miterlimit="10" stroke-width="1.055" opacity="0.8"/><path d="M19.876,49.811c-1.67,0-3.314-.108-4.688-.216l-.269-.027-.269-.027c-.242-.027-.512-.054-.781-.081a15.872,15.872,0,0,1-5.469-1.4l-.3-.135-.269-.162a15.712,15.712,0,0,1-6.816-8.19c-.081-.189-.189-.431-.269-.62a15.767,15.767,0,0,1-1-2.586L-.3,36.233-.328,36.1A13.76,13.76,0,0,1-.84,30.225,12.508,12.508,0,0,1,1.4,24.918l.162-.216.162-.216a4.605,4.605,0,0,1,.3-.377l.62-1.158a3.227,3.227,0,0,0,.4-1.212,13.193,13.193,0,0,1,2.209-5.307h0a.588.588,0,0,1,.108-.135l.135-.189a3.136,3.136,0,0,0,.162-.4c.054-.162.135-.4.189-.62a14.894,14.894,0,0,1,.781-3.233l.054-.135.054-.135c.027-.108.081-.189.135-.377A11.631,11.631,0,0,1,9.02,7.165L9.478,6.6l.485-.431A12.246,12.246,0,0,1,14.677,3.5,13.558,13.558,0,0,1,17.8,2.962h.727a10.132,10.132,0,0,1,2.694.35,3.29,3.29,0,0,0,2.263-.242,14.328,14.328,0,0,1,4.391-1.347c.108-.027.216-.027.3-.054.216-.027.566-.081,1-.108a29.884,29.884,0,0,1,3.1-.162,17.362,17.362,0,0,1,5.711.835l.108.054.108.054a14.1,14.1,0,0,1,6.735,4.93c.3.35.323.4.512.593l.242.216.081.108a11.934,11.934,0,0,1,2.99,3.287l.216.35.189.35a12.168,12.168,0,0,1,.889,7.786l-.027.081a12.7,12.7,0,0,1-.889,3.1v.081a14.5,14.5,0,0,1-2.64,6.735,13.57,13.57,0,0,1-2.613,2.8,2.033,2.033,0,0,0-.566.7,2.428,2.428,0,0,0-.242.862,13.342,13.342,0,0,1-.216,1.778,15.462,15.462,0,0,1-2.29,5.55l-1.212,1.778a12.708,12.708,0,0,1-6.573,4.8l-.539.162-.593.108a12.323,12.323,0,0,1-2.236.189h-1l-.62.027a4.059,4.059,0,0,0-1.266.242A21.687,21.687,0,0,1,19.876,49.811Z" transform="translate(5.453 3.422)" fill="none" stroke="#707070" stroke-miterlimit="10" stroke-width="0.989" opacity="0.8"/><path d="M25.856,53.858c-1.589,0-3.179-.108-4.5-.216l-.189-.027-.189-.027c-.269-.027-.566-.081-.835-.108A14.677,14.677,0,0,1,15.377,52.3l-.216-.108-.216-.108c-3.583-2.02-4.9-4.984-5.873-7.139a7.323,7.323,0,0,1-.3-.673,17.093,17.093,0,0,1-.889-2.29l-.027-.108-.081-.081c-1.051-3.718-.647-6.331,1.4-9.321l.108-.162.108-.162c.135-.162.269-.35.4-.512.189-.242.377-.512.593-.754a2.2,2.2,0,0,0,.323-.539l.242-.593a2.931,2.931,0,0,0,.189-.808,10.609,10.609,0,0,1,1.94-4.984h0c.054-.054.108-.162.135-.189l.135-.216.054-.054a4.922,4.922,0,0,0,.323-.781c.054-.216.162-.566.269-.862v-.027a12.279,12.279,0,0,1,.7-2.936l.027-.081.027-.081c.054-.162.108-.3.162-.485A9.944,9.944,0,0,1,16.67,14.9l.35-.431.35-.323a10.51,10.51,0,0,1,6.492-2.64h.566a8.571,8.571,0,0,1,3.367.7,1.536,1.536,0,0,0,.593.108,1.154,1.154,0,0,0,.593-.162h0A13.32,13.32,0,0,1,34.1,10.269a1.208,1.208,0,0,1,.3-.027c.216-.027.539-.054.916-.108.7-.054,1.751-.135,2.883-.135a15.58,15.58,0,0,1,4.957.7l.081.027.081.027a11.935,11.935,0,0,1,5.765,4.2,6.354,6.354,0,0,0,.781.889l.189.162.135.162.108.081a9.929,9.929,0,0,1,2.478,2.694l.162.269.135.269a9.981,9.981,0,0,1,.673,6.412v.081a12.584,12.584,0,0,1-.808,2.775l-.027.081c0,.027,0,.027-.027.081a.746.746,0,0,0-.027.242l-.027.108a9.88,9.88,0,0,1-.539,2.344,12.071,12.071,0,0,1-1.724,3.367,10.836,10.836,0,0,1-2.478,2.586,3.29,3.29,0,0,0-.97,1.131,3.052,3.052,0,0,0-.35,1.455,11.186,11.186,0,0,1-.189,1.886,12.688,12.688,0,0,1-2.02,4.822l-.889,1.32a10.854,10.854,0,0,1-5.657,4.283l-.108.027a4.308,4.308,0,0,1-.566.135l-.135.027a10.829,10.829,0,0,1-1.859.162H34.288c-.3,0-.673.027-1,.027a4.43,4.43,0,0,0-1.32.269A21.212,21.212,0,0,1,25.856,53.858Z" transform="translate(-0.527 -2.861)" fill="none" stroke="#707070" stroke-miterlimit="10" stroke-width="0.924" opacity="0.8"/><path d="M31.945,57.613c-1.536,0-3.044-.108-4.337-.216h-.135l-.135-.027c-.3-.054-.62-.081-.916-.108a11.9,11.9,0,0,1-4.041-1l-.162-.081-.135-.081c-2.936-1.643-4.041-4.122-4.9-6.115-.108-.242-.216-.485-.323-.754a13.724,13.724,0,0,1-.781-1.994l-.027-.081-.027-.081c-.862-3.071-.566-5.011,1.1-7.435l.081-.108.081-.108c.135-.189.269-.35.4-.539.431-.566.862-1.131,1.482-1.8a.989.989,0,0,0,.242-.539l.027-.62-.027-.242v-.242a8,8,0,0,1,1.589-4.283c.054-.081.135-.189.162-.242l.081-.135.081-.108a12.533,12.533,0,0,0,.566-1.239c.081-.216.189-.647.323-1a2.369,2.369,0,0,0,.054-.377,10.809,10.809,0,0,1,.566-2.452l.027-.054.027-.054c.081-.216.135-.377.216-.593a7.989,7.989,0,0,1,1.374-2.64l.242-.3.242-.216a8.125,8.125,0,0,1,5.145-2.047h.4a8.471,8.471,0,0,1,3.233.889,1.226,1.226,0,0,0,.539.135,2.051,2.051,0,0,0,.566-.081,9.37,9.37,0,0,0,1.293-.566,10.923,10.923,0,0,1,4.31-1.616,1.011,1.011,0,0,1,.269-.027c.189-.027.485-.054.862-.108.647-.054,1.616-.135,2.667-.135a12.693,12.693,0,0,1,4.23.593l.054.027.054.027a9.628,9.628,0,0,1,4.8,3.5,6.813,6.813,0,0,0,1.051,1.158l.108.108.108.108a2.854,2.854,0,0,0,.323.269,7.149,7.149,0,0,1,1.913,2.1l.108.162.081.189a7.922,7.922,0,0,1,.485,5.065v.081a9.512,9.512,0,0,1-.673,2.263h0a3.814,3.814,0,0,0-.189.593,2.113,2.113,0,0,0-.054.377l-.027.108a9.357,9.357,0,0,1-.431,1.913,10.337,10.337,0,0,1-1.4,2.775,8.174,8.174,0,0,1-3.233,2.8,1.742,1.742,0,0,0-.754.647,1.976,1.976,0,0,0-.323.943v.323a13.2,13.2,0,0,1-.081,3.233,11.064,11.064,0,0,1-1.751,4.095s-2.748,3.825-5.253,4.607l-.269.081-.3.054a8.913,8.913,0,0,1-1.482.135h-.512a4.247,4.247,0,0,0-.512.027h-.108c-.97.027-1.859.054-2.128.108a2.245,2.245,0,0,0-.4.108A14.992,14.992,0,0,1,31.945,57.613Z" transform="translate(-6.615 -8.852)" fill="none" stroke="#707070" stroke-miterlimit="10" stroke-width="0.858" opacity="0.8"/><path d="M38.123,61.541c-1.455,0-2.909-.108-4.149-.189h-.108c-.35-.054-.673-.081-.97-.108a10.132,10.132,0,0,1-3.341-.781l-.081-.027-.081-.027c-2.29-1.293-3.152-3.206-3.96-5.065-.108-.269-.242-.539-.377-.808a9.989,9.989,0,0,1-.647-1.7v-.054c-.7-2.452-.512-3.691.781-5.577l.027-.054.027-.054c.162-.189.3-.377.431-.539a18.359,18.359,0,0,1,2.371-2.64h0a.647.647,0,0,0,.189-.323.525.525,0,0,0-.027-.35l-.216-.62a2.244,2.244,0,0,1-.081-.593h0v-.3a6.083,6.083,0,0,1,1.212-3.1c.081-.108.135-.216.189-.3l.054-.081.054-.081a10.667,10.667,0,0,0,.862-1.832c.054-.189.189-.647.323-1a4.3,4.3,0,0,0,.162-.808,8.043,8.043,0,0,1,.458-1.967v-.054a5.481,5.481,0,0,0,.242-.7,5.536,5.536,0,0,1,1-1.94l.108-.135.108-.108a5.94,5.94,0,0,1,3.8-1.482h.242a4.875,4.875,0,0,1,2.425.727l.135.054h.027c.162.081.269.162.4.216a1.5,1.5,0,0,0,1.078.108,12.3,12.3,0,0,0,2.667-1.078h.027a8.81,8.81,0,0,1,3.5-1.347.917.917,0,0,1,.269-.027c.162-.027.458-.054.781-.081.593-.054,1.509-.135,2.452-.135a11.256,11.256,0,0,1,3.5.458h.054a7.379,7.379,0,0,1,3.825,2.8,9.01,9.01,0,0,0,1.347,1.455l.054.054.054.054a5.276,5.276,0,0,0,.566.485,4.969,4.969,0,0,1,1.374,1.482l.054.081.054.081a5.894,5.894,0,0,1,.3,3.718v.081a7.3,7.3,0,0,1-.539,1.8,4.464,4.464,0,0,0-.3,1.024c-.027.216-.054.377-.081.512l-.027.108a6.925,6.925,0,0,1-.323,1.482,7.574,7.574,0,0,1-1.1,2.182,5.378,5.378,0,0,1-2.936,2.29,2.555,2.555,0,0,0-1.4,1.078l-.108.135-.108.135a5.524,5.524,0,0,0-.162,2.505,11.02,11.02,0,0,1-.054,2.667,8.554,8.554,0,0,1-1.482,3.341s-2.1,3.044-4.014,3.61l-.135.054-.135.027a7.308,7.308,0,0,1-1.1.108h-.539c-.135,0-.323,0-.647.027h-.054a23.734,23.734,0,0,0-2.478.162,4.265,4.265,0,0,0-.835.242A13.7,13.7,0,0,1,38.123,61.541Z" transform="translate(-12.794 -14.989)" fill="none" stroke="#707070" stroke-miterlimit="10" stroke-width="0.858" opacity="0.8"/></g></g></svg>