<svg xmlns="http://www.w3.org/2000/svg" width="50" height="50" viewBox="0 0 50 50"><circle cx="25" cy="25" r="25" transform="translate(0 0)" fill="#fff"/><g transform="translate(8.069 6.265)"><path d="M1153.316,1190.455l2.556,4.365,4.253,7.345c.1.172.182.354.273.525-.333.141-.485-.131-.657-.3-.606-.576-1.182-1.182-1.778-1.768l-1.253-1.3a2.753,2.753,0,0,1-.424-.344c-1.354-1.414-2.768-2.748-4.142-4.152a1.636,1.636,0,0,1-.576-.8,13.9,13.9,0,0,1,1.465-3.455A.229.229,0,0,1,1153.316,1190.455ZM1136,1198.113l6.829-12.043a.36.36,0,0,1,.1-.071c.242.222.151.495.091.748-.141.606-.283,1.212-.465,1.808-.232.667-.323,1.374-.556,2.041-.505,2.152-1.111,4.274-1.657,6.415a1.373,1.373,0,0,1-.4.828c-.434.3-.95.162-1.425.253-.606.121-1.232.111-1.849.2A.7.7,0,0,1,1136,1198.113Zm15.427,10.861H1137.3c.081-.344.394-.323.626-.384l2.132-.566a17.608,17.608,0,0,0,1.869-.505,2.077,2.077,0,0,1,.768-.283,31.3,31.3,0,0,0,3.708-.869c1.021-.212,2.011-.576,3.051-.717a2.8,2.8,0,0,1,1.354,1.718c.091.636.657,1,.616,1.606" transform="translate(-1129.956 -1179.544)" fill="#626362"/><path d="M1853.65,552.815l3.051-5.435c.293-.505.636-.515.94-.01.354.586.667,1.192,1,1.788-.636,1.707-1.455,3.344-2.172,5.011a9.821,9.821,0,0,1-.505,1.162c-.3.182-.424-.091-.6-.232l-.515-.515c-.283-.242-.546-.505-.808-.758a1.2,1.2,0,0,1-.394-1.01" transform="translate(-1840.394 -546.996)" fill="#464646"/><path d="M911.1,1171.881q1.294,2.024,2.394,4.163l-.01.091c-.374,1.253-1.051,2.374-1.505,3.6a.278.278,0,0,1-.141.121c-.465-.071-.677-.485-.98-.758-.505-.465-.98-.97-1.445-1.475a.657.657,0,0,1-.182-.313,1.113,1.113,0,0,1,0-1.01.464.464,0,0,0-.03-.495,1.032,1.032,0,0,1-.1-.384c-.02-.546.1-.626.667-.465.1-.253-.091-.465-.121-.7-.061-.566.111-.687.657-.485.091-.232-.1-.424-.1-.636,0-.3-.212-.788.445-.647.051.01.1.02.091-.01a.638.638,0,0,1-.03-.192C910.771,1172.083,910.761,1171.81,911.1,1171.881Zm-14.659,12.245a31.23,31.23,0,0,0,3.991-.4.253.253,0,0,1-.222.333c-1.192.151-2.394.222-3.587.414,1.2-.2,2.415-.263,3.617-.394.222.141.162.344.111.536a20.242,20.242,0,0,1-.677,2.4c-.151.2-.05.5-.242.687-.4.576-1.061.394-1.606.485-.6.1-1.233-.081-1.808.212a1.543,1.543,0,0,1-1.192.606c-.465.071-.788-.03-.828-.566Zm15.427,10.861-.556-.737c-.172-.232-.172-.232-.04-.566.051-.121-.071-.192-.131-.283l-1.162-1.616c.121-.3.414-.323.667-.384l2.213-.556a2.325,2.325,0,0,1,.7-.091,1.6,1.6,0,0,1,.8.728c.394.707,1.02,1.273,1.435,1.99.091.152.253.152.414.131.455.364.93.707.909,1.384h-5.243" transform="translate(-890.497 -1165.557)" fill="#606160"/><path d="M783.07,895.829c-.537.222,0,.667-.193.98-.223-.04-.233-.4-.5-.343-.436.505.557,1.071-.081,1.566-.162-.1-.193-.364-.446-.364-.446.505.527,1.071-.091,1.566-.162-.091-.213-.333-.477-.374a1.447,1.447,0,0,0-.01.879c-.446.242-.3.707-.385,1.081-.659-.051-.862-.687-1.318-1a3.224,3.224,0,0,1-.73-.879,2.989,2.989,0,0,1,.689-2.021,1.576,1.576,0,0,0,.284-.687.681.681,0,0,1,.294-.576c.253-.131.162-.374.253-.525.416-.677.416-1.556,1.044-2.132A25.806,25.806,0,0,1,783.07,895.829Zm-17.164,16.549c.456.606,1.125.556,2-.141a4.671,4.671,0,0,0,2.048.03,7.4,7.4,0,0,1,1.247-.172c.274.313-.01.586-.071.869-.071.364-.243.717-.324,1.081a1.251,1.251,0,0,1-.264.727,27.021,27.021,0,0,1-3.133.374,13.833,13.833,0,0,0-1.926.2c-.912.131-.994.081-.8-.828Zm23.206,6.557-.943-1.313a10.063,10.063,0,0,1-1.3-1.718c-.1-.162-.152-.354-.335-.475a.708.708,0,0,1-.3-.859c.324-.323.781-.273,1.166-.445a1.1,1.1,0,0,1,.923-.121c.081.05-.01.02.061.01.385-.03.243.525.669.535.365,0,.5.475.7.758.76,1,1.49,2.021,2.22,3.031.132.182.294.344.233.606l-3.092-.01" transform="translate(-762.399 -889.504)" fill="#565756"/><path d="M576,2896.439a9.9,9.9,0,0,1,.892-1.516c.294.2.659.051.9,0a30.323,30.323,0,0,1,3.019-.343,5.342,5.342,0,0,1,2.229-.121c.132.041.274-.364.527-.131.1.485-.233.879-.274,1.333a.968.968,0,0,1-.223.545c-.405.323-.882.071-1.307.112-.861.06-1.682.272-2.533.374a12.99,12.99,0,0,1-1.773.061,1.427,1.427,0,0,0-.588.061A.625.625,0,0,1,576,2896.439Zm33.153.909h-1.885c-.659-.07-.861-.677-1.145-1.1-.9-1.333-1.945-2.566-2.837-3.91-.061-.091-.142-.172-.1-.293.284-.323.719-.283,1.074-.414a1.031,1.031,0,0,1,.4-.01,3.223,3.223,0,0,1,1.6,1.707c.122.384.517.646.78.96a3.419,3.419,0,0,1,.638.909,4.855,4.855,0,0,0,1.246,1.627c.142.141.294.293.233.525" transform="translate(-575.71 -2867.918)" fill="#4a4a4a"/><path d="M682.828,764.323c-.152.4-.517.727-.324,1.243.071.192-.334.253-.334.283-.142.687-.618,1.233-.77,1.9a1.574,1.574,0,0,1-.253.505,3.14,3.14,0,0,0-.75,2.01c-.385.071-.507-.293-.75-.455-.142-.192-.416-.313-.334-.616a5.253,5.253,0,0,1,.7-1.849c.557-1.344,1.176-2.677,1.774-4,.061-.141.122-.293.294-.344A6.055,6.055,0,0,1,682.828,764.323Zm-11.209,22.863c-.507.5-1.206.3-1.773.374-.943.111-1.905.222-2.858.293-.578.04-1.166.091-1.733.172-.2.03-.233-.04-.253-.192a15.7,15.7,0,0,1,1.1-1.98c-.03.687.263.778.922.677,1.206-.192,2.432-.232,3.659-.344.405-.04.78-.465,1.216-.071.172.222.03.444,0,.667A.712.712,0,0,1,671.618,787.186Zm19.7-2.152c.466-.051.517.485.6.647a11.511,11.511,0,0,0,1.226,1.7,22.079,22.079,0,0,0,1.6,2.162c.213.222.324.546.618.707h-1.753l-2.939-4.011a5.771,5.771,0,0,0-.973-.8c.233-.556.811-.333,1.206-.515a.44.44,0,0,1,.416.111" transform="translate(-663.811 -760.818)" fill="#4f5150"/><path d="M580.746,2855.173a5.409,5.409,0,0,0-.973-1.122c-.517-.465-.507-1.212-1.033-1.576-.415-.293-.426-.99-1.074-1-.02,0-.071-.111-.061-.162a1.051,1.051,0,0,0-.821-1.233c-.355-.121-.1-.566-.466-.525.04-.384.4-.293.618-.4a4.143,4.143,0,0,1,.871-.151l3.252,5.556C581.222,2854.89,581.253,2855.163,580.746,2855.173Zm-33.151-.909c.446.394.922.162,1.408.1a9.228,9.228,0,0,0,2.27-.2,3.516,3.516,0,0,1,1.489-.273,17.742,17.742,0,0,1,1.814.111c.172.182.1.374.051.576a1.429,1.429,0,0,1-.314.616l-6.5.02c-.608-.02-.648-.232-.213-.95" transform="translate(-547.304 -2825.743)" fill="#3f403f"/><path d="M1771.849,1123a3.321,3.321,0,0,0,.505.929,9.879,9.879,0,0,1-.94,2.354c-.121.293-.354.354-.414-.071a24.792,24.792,0,0,0,.525-2.576l.323-.636" transform="translate(-1758.6 -1117.181)" fill="#2f302f"/><path d="M3310.2,2624.3a1.189,1.189,0,0,1-.808.273,19.988,19.988,0,0,1-1.586-2.091c-.1-.142-.182-.313-.03-.485l1.808,1.748c.172.162.3.394.566.434a.21.21,0,0,1,.05.121" transform="translate(-3279.712 -2601.036)" fill="#303130"/><path d="M1238,3358.845l.131-.646a9.5,9.5,0,0,1,2.657-.394c.131-.01.333.01.293.252l-2.819.8-.263-.01" transform="translate(-1231 -3329.405)" fill="#2f302f"/><path d="M2664.333,1585.424a14.583,14.583,0,0,0-1.617,3.627q-.318.06-.273-.273c.505-1.263,1.142-2.465,1.606-3.748l.02-.031a.76.76,0,0,1,.263.424" transform="translate(-2641.004 -1574.513)" fill="#606160"/><path d="M2295.821,1723.085a.485.485,0,0,0,.273.273l4.183,4.243.525.606c-.243.162-.414-.02-.6-.121-.525-.262-1.021-.6-1.546-.859a1.972,1.972,0,0,0-.657-.354,3.157,3.157,0,0,1-.889-.333c-.869-.9-2.1-1.222-3.122-1.9-.626-.414-1.273-.808-1.869-1.283-.233-1,.4-1.738.768-2.556.131-.3.333,0,.505,0l1.788,1.718.636.566" transform="translate(-2274.378 -1708.809)" fill="#565756"/><path d="M3111.091,2495.293c.172.657.717,1.061,1.051,1.606a3.136,3.136,0,0,1,.566.97c-.192.172-.5.05-.677.273h-.4c-.677-.515-.869-1.364-1.4-1.98a4.806,4.806,0,0,0-.808-.889.98.98,0,0,1-.414-.586l.03-.182a3.614,3.614,0,0,1,.849-.505l1.213,1.293" transform="translate(-3083.023 -2474.33)" fill="#343434"/><path d="M2928.992,2359.374c-.131.384-.485.414-.8.515-.242.091-.374-.091-.505-.222-.414-.394-.828-.788-1.2-1.212-.091-.111-.4-.283-.03-.455.778.243,1.374.818,2.132,1.091l.4.283" transform="translate(-2902.168 -2339.704)" fill="#292929"/><path d="M1438,1650.487l.808-2.96c-.051-.03-.061-.061-.051-.091a.052.052,0,0,1,.051-.04l.131-.273L1440.8,1640l.091.081a5.01,5.01,0,0,1,.131,1.455c.01.838-.04,1.667,0,2.505l.01,5.809a4.392,4.392,0,0,1-.041.727.418.418,0,0,1-.465.384c-.515.02-1.02.1-1.536.162-.576.081-.879-.071-.99-.636" transform="translate(-1428.973 -1628.957)" fill="#565756"/><path d="M1716.556,1216.283c.121.2.182.283.313-.02a14.37,14.37,0,0,1,1.051-2.263l.8.677a2.281,2.281,0,0,1-.495,1.3,1.548,1.548,0,0,0-.263.687,16.066,16.066,0,0,1-.636,1.606c-.081.313-.333.394-.6.475a.8.8,0,0,1-.454-.081c-.172-.061-.162-.242-.232-.374l-.041-.01a12.335,12.335,0,0,1,.556-2" transform="translate(-1704.156 -1207.261)" fill="#343434"/><path d="M1806.83,2831.374l-2.96.808-6.031,1.536a1.2,1.2,0,0,1-.839.071c.04-.415.424-.475.7-.636l.869-.506a3.538,3.538,0,0,0,.94-.555,2.222,2.222,0,0,1,.606-.455,13.363,13.363,0,0,0,2.324-1.293,13.7,13.7,0,0,1,2.8-1.344,3.542,3.542,0,0,1,1.6,2.374" transform="translate(-1784.323 -2805.945)" fill="#565756"/><path d="M1253.96,3235.317c-.414-.293-.839-.03-1.263-.02-.566.01-1.131.1-1.7.162a.919.919,0,0,0,.131-.536.907.907,0,0,0,.141-.535,10.1,10.1,0,0,1,2.122-.344c.536-.131,1.081.061,1.586-.162a.829.829,0,0,1,.768.081.515.515,0,0,1,.091.162,1.857,1.857,0,0,1,.02.667,9.614,9.614,0,0,1-1.9.525" transform="translate(-1243.867 -3206.675)" fill="#343434"/><path d="M1717.627,3177.847c-.232-.192-.111-.445-.141-.677.081-.081.04-.232.151-.283a8.969,8.969,0,0,1,2.031-.586c.111-.02.283-.01.243.2l-1.626,1.061-.657.283" transform="translate(-1705.622 -3149.73)" fill="#292929"/><path d="M1784,1286.021c.626-.323.687-1.03.97-1.566s.2-1.243.8-1.637c-.242-.374.162-.546.242-.818l.94.94.4.535c-.071.081-.242.111-.242.212,0,.667-.657,1.071-.657,1.738,0,.313-.384.424-.465.758-.111.455-.1.768.343,1a6.89,6.89,0,0,1,.778.505.963.963,0,0,1,.2.2c.192.293.364.606.061.909a1.056,1.056,0,0,0,.222,1.435,27.843,27.843,0,0,0,3,.929c.414.1.818.222,1.223.364.141.051.394.1.192.354-.384.172-.808.061-1.2.192a3.216,3.216,0,0,1-.687.1c-1.131-.162-2.273-.131-3.415-.253-.364-.04-.788-.081-.687-.6a1.018,1.018,0,0,0-.606-1.323c-.738-.273-.8-.384-.616-1.142a5.453,5.453,0,0,1,.3-1.162c.273-.566.061-.879-.445-1.1-.182-.081-.263-.283-.445-.364a.344.344,0,0,1-.212-.212" transform="translate(-1771.459 -1274.574)" fill="#3f403f"/><path d="M2091.131,1565.081l-.131-.131c.131-.424.071-.939.374-1.263a1.121,1.121,0,0,0,.343-.727c.051-.546.455-.778.9-.96l1.212,1.071c.232.04.313.232.4.4l.142.263a2.967,2.967,0,0,0-1.172,2.1c0,.152-.03.3-.041.455a4.175,4.175,0,0,1-2.031-1.212" transform="translate(-2075.354 -1551.745)" fill="#4f5150"/><path d="M2663.617,1589a6.287,6.287,0,0,1-.809,2.091,5.476,5.476,0,0,1-.808,1.657,10.771,10.771,0,0,1,1.01-2.505,3.749,3.749,0,0,1,.606-1.243" transform="translate(-2640.572 -1578.473)" fill="#626362"/><path d="M2355.38,1562.475a.789.789,0,0,1-.4-.4c-.151-.465-.384-.96.4-1.071.131.091.263.283.172.364-.354.344-.172.738-.172,1.111" transform="translate(-2336.508 -1550.755)" fill="#5a5b5a"/><path d="M1357.818,2678c.465.869,1.253.424,1.889.414a3.176,3.176,0,0,1,.929-.01c.333.455.152.98.182,1.475a1.123,1.123,0,0,1-.05.313c-.111.323-.3.394-.667.465-.98.182-1.98.212-2.96.435-.051.01-.1-.081-.141-.131a6.784,6.784,0,0,0,.535-1.879c-.081-.212.121-.354.131-.535.182-.162.04-.384.151-.546" transform="translate(-1348.793 -2656.47)" fill="#505150"/><path d="M1095.354,2731c.172.232-.061.364-.131.535a5.014,5.014,0,0,1-1.95.424c-.182.02-.364-.1-.586,0a.478.478,0,0,1-.687-.293,1.526,1.526,0,0,1,.788-.263,15.24,15.24,0,0,0,2.243-.111c.111,0,.212-.182.323-.293" transform="translate(-1086.479 -2708.935)" fill="#5a5b5a"/><path d="M1150.748,2372v.131l-3.748.414a16.784,16.784,0,0,1,3.748-.545" transform="translate(-1140.922 -2353.562)" fill="#626362"/><path d="M2610.844,2695.449a6.867,6.867,0,0,0-1.616-2.283c-.061-.344.242-.374.435-.475a3.386,3.386,0,0,0,1.071-.636c.2-.232.374-.535.758-.252a2.639,2.639,0,0,1,1.394,1.829.737.737,0,0,0,.434.606c.293.121.354.323.081.545-.384.212-.848.142-1.212.4a.626.626,0,0,1-.677.141l-.667.121" transform="translate(-2588.321 -2670.02)" fill="#505150"/><path d="M2836,3036.655a1.132,1.132,0,0,1,.677-.142c.01.414.465.566.565.818.3.808,1.071,1.313,1.324,2.142-.182.374-.4.152-.485-.03-.394-.869-1.263-1.414-1.576-2.333-.081-.212-.445-.192-.505-.455" transform="translate(-2812.806 -3011.357)" fill="#5b5c5b"/><path d="M1340.285,1423.419c-.313.4-.919.616-.758,1.313.02.1-.03.444-.344.414-.091-.01-.111.04-.121.1a1.747,1.747,0,0,1-.394,1.121,3.99,3.99,0,0,1-1.152-.667c-.344-.2-.192-1.324.2-1.475.212-.081.192-.172.182-.293-.051-.7.727-1.121.616-1.869-.02-.131.273.041.414,0l.667.536Zm-9.012,14.245a2.672,2.672,0,0,1,1.1-.2,2.278,2.278,0,0,0,.859-.081,2.222,2.222,0,0,1,1.425-.111c.041.01.162-.182.253-.283.374-.03.313.222.263.434a8.646,8.646,0,0,0-.152,1.435.369.369,0,0,1-.091.162c-1.081.162-2.192.141-3.273.384-.273.061-.455-.131-.657-.263l.131-.677A2.146,2.146,0,0,0,1331.273,1437.664Zm16.822.263.051-.121c-.909-.728-.738-2.283-2.061-2.7-.071-.313.192-.354.384-.444.4-.2.808-.374,1.222-.536a.376.376,0,0,1,.182.02c.162.222.242.465.566.586.424.152.505.677.667,1.02a3.658,3.658,0,0,0,.909,1.233.333.333,0,0,1,.1.414c-.364.263-.859.1-1.212.4a1.119,1.119,0,0,0-.808.121" transform="translate(-1323.03 -1413.174)" fill="#4a4a4a"/><path d="M1279.525,2561.517a7.46,7.46,0,0,0,2.869-.283c.283.465.738-.232,1.041.151.384.222.081.566.162.849a1.978,1.978,0,0,1-.162.626,5.321,5.321,0,0,1-1.758.182c-.293-.061-.636.455-.828-.061-.374.6-1.132-.142-1.515.445a2.019,2.019,0,0,1-.333-.151l.4-1.344Zm19.1-1.748c-.051-.4-.485-.445-.687-.748a8.976,8.976,0,0,1-.808-1.546c-.061-.152-.162-.344-.313-.313-.657.152-.424-.333-.475-.616.051-.445.5-.424.758-.616a.554.554,0,0,1,.455-.051c.172.435.748.546.828,1.051.536-.1.293.728.8.667-.111.505.606.657.5,1.2-.03.162.677.071.434.576-.3.272-.768.131-1.071.4l-.414-.01" transform="translate(-1271.551 -2535.552)" fill="#3f403f"/><path d="M2079.354,1867l2.021,1.212,3.253,1.97c.586.354,1.3.5,1.728,1.111a.332.332,0,0,1-.283.1c-.475-.081-.919-.242-1.394-.313a.619.619,0,0,1-.475-.2l-3.738-1.132-.444-.131-.849-.293c.243-.424-.131-.808-.061-1.212.02-.091-.132-.515.354-.364.131.041-.091-.485-.111-.748" transform="translate(-2063.571 -1853.664)" fill="#4a4a4a"/><path d="M2387.536,2253a5.316,5.316,0,0,1,1.354.394.913.913,0,0,0,1.192.293.92.92,0,0,1,.556.374c-.111.313.192.394.343.545.455.465.93.9,1.4,1.344v.131l-.4.142c-.576-.02-.788-.6-1.222-.829a2.269,2.269,0,0,1-.485-.455c-.6-.586-.646-.586-1.283.02a.406.406,0,0,1-.253.121,2.353,2.353,0,0,1-1.031-.6c-.434-.354-.707-.232-.95.2-.091.172-.212.344-.293.526a3.151,3.151,0,0,1-.718.99c-.555.252-.707.172-.737-.4a2.277,2.277,0,0,0-.01-.525,3.7,3.7,0,0,1,.545-1.9c.222-.03.212.182.3.293a.672.672,0,0,0,1.081.04,5.759,5.759,0,0,1,.606-.707" transform="translate(-2366.366 -2235.764)" fill="#2c2d2c"/><path d="M2767.96,2292.293c-.152.222-.414.465-.626.283-.192-.162-.738-.061-.566-.576h.263l.929.293" transform="translate(-2744.246 -2274.37)" fill="#212121"/><path d="M1718,2047.476v-1.616l.01-6.86c.313.01.293.293.364.485.2.566.323,1.162.546,1.728a4.016,4.016,0,0,1,.192.556c.4,1.505.818,3.01,1.162,4.536a2.226,2.226,0,0,1,.091.728c-.02.243-.212.546-.384.435-.414-.273-.606.252-.929.162a3.716,3.716,0,0,0-1.051-.152" transform="translate(-1706.136 -2023.926)" fill="#4a4a4a"/><path d="M1718.788,1673.062c-.4-.717-.424-1.576-.788-2.3V1668.2c.152-.384-.02-.849.263-1.2l.4.131.263.141a8.6,8.6,0,0,1-.465,2.415c-.051.323-.131.626.3.738.647.242.626.8.616,1.344a2.285,2.285,0,0,1-.212,1.1.44.44,0,0,1-.384.192" transform="translate(-1706.137 -1655.685)" fill="#282828"/><path d="M1718.262,1641.263a2.888,2.888,0,0,1-.263,1.2l.01-1.465.253.263" transform="translate(-1706.138 -1629.947)" fill="#202020"/><path d="M2106.782,2584.239c-.192.5-.727.495-1.091.737-.172.111-.435.091-.525.344a36.191,36.191,0,0,0-3.3,1.8,4.327,4.327,0,0,1-1.818.889.232.232,0,0,1-.021-.182c.3-.475.8-.778,1.1-1.243a2.851,2.851,0,0,1,.465-.576c.98-.98,2.041-1.869,3.021-2.839a1.021,1.021,0,0,1,1.839.4c.091.232.475.323.333.667" transform="translate(-2084.27 -2562.174)" fill="#4a4a4a"/><path d="M1712.281,3088.045c-.131-.182,0-.354,0-.536a2.129,2.129,0,0,1,1.081-.495,9.848,9.848,0,0,0,1.839-.616.263.263,0,0,1,.253.081.75.75,0,0,1,.2.495,1.626,1.626,0,0,1-.94.546,4.543,4.543,0,0,0-2.425.667l-.01-.141" transform="translate(-1700.416 -3060.737)" fill="#2e2f2e"/><path d="M2024.273,3068.379l-.273-.4c.424-.455.586-.475.808-.131l-.01.131-.525.4" transform="translate(-2009.037 -3042.142)" fill="#222"/><path d="M1895.967,2265.272a10.816,10.816,0,0,0-.566,2.01,10.751,10.751,0,0,1-.505,2.395c-.142.293-.1.677-.435.869-.263.02-.384-.192-.556-.333q-.215-.23-.444-.445c-.344-.333-.758-.575-1.071-.929l-1.616-1.616c-.172-.252-.546-.374-.444-.778a1.733,1.733,0,0,1,.535-.253l.97-.273a19.623,19.623,0,0,1,3.465-.808l.667-.111a.163.163,0,0,1,.03.232l-.03.04" transform="translate(-1876.698 -2247.643)" fill="#fefefe"/><path d="M1779.806,1725.627a31.906,31.906,0,0,1-3.5.95.8.8,0,0,0-.828-.97,5.879,5.879,0,0,0-.738-.051.734.734,0,0,1-.586-.182c.05-.434.131-.859.152-1.293a1.03,1.03,0,0,0-.556-1.121c-.051-.071-.121-.151-.1-.242a7.773,7.773,0,0,1,.778-2.718,1.544,1.544,0,0,1,.4.222c.222.212.515.313.242.808a8.859,8.859,0,0,0-.434,1.566c-.141.475.081.707.556.818.293.071.889.162.758.475-.182.445.222.586.2.879-.05.546-.061.465.576.556,1.02.182,2.061.02,3.071.3" transform="translate(-1761.217 -1708.149)" fill="#333"/><path d="M2447.053,2251.414l-.01-.263c.435-.242.909-.091,1.354-.151l.525.02a1.666,1.666,0,0,1-.565.879c-.152.141-.242.495-.556.313s-.919-.141-.748-.8" transform="translate(-2427.772 -2233.785)" fill="#1f2020"/><path d="M1738.3,1692.378l-.677,2.95c-.394.01-.566-.1-.424-.556.263-.879.465-1.778.7-2.667.242-.071.192.293.4.273" transform="translate(-1725.092 -1680.527)" fill="#2e2f2e"/><path d="M1716.084,2318.97l.535.647c.434.859.93,1.687,1.4,2.526a1.317,1.317,0,0,1,.172.444c-.03.172.05.293-.283.374a1.17,1.17,0,0,0-.818,1.395.854.854,0,0,1-.121.7,2.366,2.366,0,0,1-1.95.667c-.242-.05-.454.182-.707.091a3.176,3.176,0,0,1,.141-1.536c.081-.212.01-.273-.141-.354v-.263a.671.671,0,0,1,.778-.121c.566.333.768.061.849-.434.364,0,.02.586.384.455s.222-.475.151-.758l-1.2-4.8C1715.781,2318.111,1715.861,2318.6,1716.084,2318.97Zm4.011,4.011c.343-.162.151-.6.4-.808.465-.535.687-1.242,1.212-1.748a2.468,2.468,0,0,0,.667-.94c.212-.182.434-.242.636.02.414.525.849.5,1.3.051.141-.131.323-.131.485-.2l.131-.131c.182-.111.414-.3.545.01.212.5.687.646,1.061.94.283.232.707.424.546.929a4.516,4.516,0,0,1-1.212.646c-.162.081-.333.111-.4.293-.283-.364-.354.121-.535.131-.141-.343-.707-.465-.485-1,.041-.1-.111-.172-.232-.091-.1.071-.212.131-.293.01-.455-.677-.748-.172-1.071.141l-3.031,2.829c-.172-.435.192-.717.273-1.081" transform="translate(-1702.434 -2300.108)" fill="#3f403f"/><path d="M1716.02,2369.866c.344-.152.626-.455,1.091-.132.172.122.546-.394.929-.3.04-.313.394-.192.525-.374.091.1.232.081.333.152a.624.624,0,0,1,.162.313.367.367,0,0,1-.1.344c-.263.536-.849.394-1.263.585a11.647,11.647,0,0,1-1.7.5v-.94A.341.341,0,0,0,1716.02,2369.866Zm12.78-4.7c-.111-.687-.828-.8-1.212-1.222-.182-.192-.505-.182-.5-.606.01-.262-.293-.01-.434-.061.687-.808.727-.8,1.465-.091.525.5,1.091.96,1.627,1.435l-.808.536Zm-2.293-1.748-.556.475a.767.767,0,0,1-1.253-.131.473.473,0,0,0-.606-.212c.687-1.283.687-1.283,1.869-.5l.546.364" transform="translate(-1704.136 -2344.174)" fill="#343434"/><path d="M2331.212,2491.677l-.99,1.829c-.111.192-.192.091-.222-.081a15.593,15.593,0,0,1,.646-2.425c.212.131.041.333.051.485.03.515.232.414.515.192" transform="translate(-2311.936 -2471.36)" fill="#363636"/><path d="M1795.99,2253.572c-.465-.162-.435-.737-.828-.97l-.162-.515a.3.3,0,0,1,.283-.151h.667c.859.364,1.031.838.546,1.455l-.505.182" transform="translate(-1782.357 -2234.71)" fill="#202020"/><path d="M2160.323,2771.4c.293.455-.313.688-.272,1.071l-.4.535c-.263.172-.354-.051-.475-.2a1.453,1.453,0,0,1-.172-.455c.051-.95.182-1.142.909-1.354l.414.4" transform="translate(-2142.669 -2748.531)" fill="#212121"/><path d="M1892.97,2258.4c.141.081.192.293.394.262a6.2,6.2,0,0,1-1.2,1.212c-.343-.364-.546.041-.808.132l-.131-.141v-.4c-.071-.242.131-.3.273-.374A10.337,10.337,0,0,1,1892.97,2258.4Zm-2.425-5.526c.364-.687-.1-1.071-.546-1.455a4.348,4.348,0,0,1,1.192.152c.4.04.525.616.293,1.051a2.509,2.509,0,0,1-.94.252" transform="translate(-1876.392 -2234.18)" fill="#292929"/><path d="M2106.455,2718.1a1.446,1.446,0,0,0-.8,1.344.151.151,0,0,1-.182,0,1.939,1.939,0,0,1-.475-1.1c.262-.818.424-.919,1.051-.646a.967.967,0,0,1,.4.4" transform="translate(-2089.216 -2695.631)" fill="#2a2a2a"/><path d="M2046.866,2622.975c-.606-.182-.8.2-.929.667-.263.081-.151-.212-.263-.273l-.141-.4a2.268,2.268,0,0,1-.223-.4c-.091-.212-.172-.424.01-.616s.364.061.546.061l1,.97" transform="translate(-2030.032 -2600.91)" fill="#303130"/><path d="M1936.673,2479.6c-.566-.111-.646.132-.444.6.051.121.081.252.121.374a20.136,20.136,0,0,1-1.435-2.425c-.01-.02.071-.091.111-.141A10.254,10.254,0,0,1,1936.673,2479.6Zm-.182,1.364.263.272.4,1.071c-.111.313-.414.384-.667.505a2.425,2.425,0,0,0-.95.707c-.141.071-.273.1-.273-.131.061-.141.192-.293.1-.434-.354-.546.313-1,.121-1.536-.04-.1.131-.081.243-.061.333.04.667.04.758-.394" transform="translate(-1920.852 -2458.491)" fill="#343434"/><path d="M1996.4,2905.212a.558.558,0,0,1,.384-.606c.414-.192.818-.4,1.222-.606h.131l.141.4c-.455.566-1.242.6-1.748,1.071a.263.263,0,0,1-.131-.263" transform="translate(-1981.705 -2880.187)" fill="#2e2f2e"/></g></svg>
