<svg xmlns="http://www.w3.org/2000/svg" width="50" height="50" viewBox="0 0 50 50"><circle cx="25" cy="25" r="25"/><g transform="translate(4.869 5.792)"><path d="M30.633,138.682H27.245a1.386,1.386,0,0,1-1.03-.461l-1.368-1.56a1.082,1.082,0,0,0-1.613,0L22.051,138a2.017,2.017,0,0,1-1.521.684H2.006A18.666,18.666,0,0,0,1,143.422H18.494a1.127,1.127,0,0,0,.814-.346l1.629-1.7a1.057,1.057,0,0,1,.776-.33h.069a1.084,1.084,0,0,1,.807.361l1.375,1.552a1.386,1.386,0,0,0,1.03.461H39.261a19.351,19.351,0,0,0-1.006-4.74Z" transform="translate(0 -125.828)" fill="#fff"/><path d="M14.718,272.661a1.128,1.128,0,0,0,.814-.346l1.629-1.7a1.057,1.057,0,0,1,.776-.33h.069a1.084,1.084,0,0,1,.807.361l1.375,1.552a1.386,1.386,0,0,0,1.03.461H40.564a19.444,19.444,0,0,0,1.575-4.787H23.569a1.386,1.386,0,0,1-1.03-.461l-1.375-1.552a1.082,1.082,0,0,0-1.613,0l-1.176,1.329a2.017,2.017,0,0,1-1.521.684H4.4a18.821,18.821,0,0,0,1.575,4.787Z" transform="translate(-3.139 -245.102)" fill="#fff"/><path d="M70.637,7.668a1.127,1.127,0,0,0,.814-.346l1.629-1.7a1.057,1.057,0,0,1,.776-.33h.069a1.084,1.084,0,0,1,.807.361l1.375,1.552a1.386,1.386,0,0,0,1.03.461h3.68a19.215,19.215,0,0,0-30.717,0Z" transform="translate(-45.328 0)" fill="#fff"/><path d="M79.124,391.974H74.092a1.386,1.386,0,0,1-1.03-.461l-1.375-1.552a1.082,1.082,0,0,0-1.613,0L68.9,391.29a2.017,2.017,0,0,1-1.521.684H67.3a19.183,19.183,0,0,0,28.074,0Z" transform="translate(-61.206 -359.667)" fill="#fff"/></g></svg>
