<?xml version="1.0" encoding="utf-8"?>
<!-- Generator: Adobe Illustrator 27.0.0, SVG Export Plug-In . SVG Version: 6.00 Build 0)  -->
<svg version="1.1" id="Layer_1" xmlns="http://www.w3.org/2000/svg" xmlns:xlink="http://www.w3.org/1999/xlink" x="0px" y="0px"
	 viewBox="0 0 50 50" style="enable-background:new 0 0 50 50;" xml:space="preserve">
<style type="text/css">
	.st0{fill:#213147;}
	.st1{fill:none;}
	.st2{fill:#12AAFF;}
	.st3{fill:#9DCCED;}
	.st4{fill:#FFFFFF;}
</style>
<circle class="st0" cx="25" cy="25.01" r="25"/>
<g id="Layer_x0020_1">
	<g id="_2405588477232">
		<rect x="4.48" y="4.48" class="st1" width="41.04" height="41.04"/>
		<g>
			<g>
				<path class="st0" d="M8.19,16.96v16.09c0,1.03,0.54,1.97,1.44,2.5l13.94,8.04c0.89,0.51,1.99,0.51,2.87,0l13.94-8.04
					c0.89-0.51,1.44-1.46,1.44-2.5V16.96c0-1.03-0.54-1.97-1.44-2.5L26.44,6.42c-0.89-0.51-1.99-0.51-2.87,0L9.63,14.46
					c-0.89,0.51-1.43,1.46-1.43,2.5H8.19z"/>
				<g>
					<g>
						<g>
							<path class="st2" d="M28.04,28.12l-1.99,5.45c-0.05,0.15-0.05,0.31,0,0.48l3.41,9.37l3.96-2.28l-4.74-13.02
								C28.56,27.82,28.15,27.82,28.04,28.12z"/>
						</g>
						<g>
							<path class="st2" d="M32.03,18.96c-0.11-0.3-0.53-0.3-0.64,0l-1.99,5.45c-0.05,0.15-0.05,0.31,0,0.48L35,40.24l3.96-2.28
								l-6.93-18.98V18.96z"/>
						</g>
					</g>
				</g>
				<g>
					<path class="st3" d="M25,7.02c0.1,0,0.2,0.03,0.28,0.08l15.07,8.7c0.18,0.1,0.28,0.3,0.28,0.49v17.4c0,0.2-0.11,0.39-0.28,0.49
						l-15.07,8.7c-0.08,0.05-0.18,0.08-0.28,0.08s-0.2-0.03-0.28-0.08l-15.07-8.7c-0.18-0.1-0.28-0.3-0.28-0.49V16.28
						c0-0.2,0.11-0.39,0.28-0.49l15.07-8.7C24.8,7.04,24.9,7.01,25,7.01l0,0V7.02z M25,4.48c-0.54,0-1.07,0.13-1.56,0.41l-15.07,8.7
						c-0.97,0.56-1.56,1.58-1.56,2.69v17.4c0,1.12,0.59,2.13,1.56,2.69l15.07,8.7c0.48,0.28,1.02,0.41,1.56,0.41
						s1.07-0.13,1.56-0.41l15.07-8.7c0.97-0.56,1.56-1.58,1.56-2.69v-17.4c0-1.12-0.59-2.13-1.56-2.69l-15.09-8.7
						c-0.48-0.28-1.02-0.41-1.56-0.41l0,0H25z"/>
				</g>
				<polygon class="st0" points="15.02,40.25 16.41,36.44 19.2,38.76 16.59,41.15 				"/>
				<g>
					<path class="st4" d="M23.72,15.05h-3.83c-0.28,0-0.54,0.18-0.64,0.44l-8.19,22.46l3.96,2.28l9.03-24.74
						c0.08-0.23-0.08-0.46-0.31-0.46L23.72,15.05z"/>
					<path class="st4" d="M30.42,15.05h-3.83c-0.28,0-0.54,0.18-0.64,0.44l-9.36,25.64l3.96,2.28l10.18-27.93
						c0.08-0.23-0.08-0.46-0.31-0.46V15.05z"/>
				</g>
			</g>
		</g>
	</g>
</g>
</svg>
