<svg xmlns="http://www.w3.org/2000/svg" width="50" height="50" viewBox="0 0 50 50"><circle cx="25" cy="25" r="25" fill="#2e3148"/><circle cx="14.506" cy="14.506" r="14.506" transform="translate(10.494 10.494)" fill="#1b1e36"/><path d="M1013.117,159.47c-2.7,0-4.887,9.788-4.887,21.862s2.188,21.862,4.887,21.862,4.887-9.788,4.887-21.862S1015.815,159.47,1013.117,159.47Zm.337,42.491a.387.387,0,0,1-.617.1,11.609,11.609,0,0,1-1.864-4.115c-2.174-7-1.656-22.016-1.656-22.016,1.022-11.925,2.88-14.742,3.512-15.367a.386.386,0,0,1,.495-.04c.918.65,1.687,3.369,1.687,3.369a64.269,64.269,0,0,1,2.067,16.358,84.887,84.887,0,0,1-1.139,14.609C1014.9,200.725,1013.454,201.961,1013.454,201.961Z" transform="translate(-988.065 -156.281)" fill="#6f7390"/><path d="M334.591,669.389c-1.344-2.342-10.922.632-21.4,6.64s-17.869,12.778-16.527,15.118,10.922-.632,21.4-6.64,17.869-12.778,16.527-15.118ZM297.9,690.826c-.514-.065-.4-.488-.4-.488a11.63,11.63,0,0,1,2.639-3.665c4.989-5.367,18.276-12.393,18.276-12.393,10.851-5.048,14.221-4.835,15.076-4.6a.386.386,0,0,1,.28.412c-.1,1.12-2.083,3.14-2.083,3.14a64.16,64.16,0,0,1-13.157,9.936A84.733,84.733,0,0,1,305.3,689.45c-5.6,2.019-7.394,1.376-7.394,1.376h0Z" transform="translate(-290.577 -655.217)" fill="#6f7390"/><path d="M336.778,687.772c1.354-2.335-6.019-9.136-16.46-15.189s-20.018-9.064-21.371-6.724,6.019,9.136,16.466,15.189S335.425,690.112,336.778,687.772Zm-36.934-21.011a.391.391,0,0,1,.222-.588,11.6,11.6,0,0,1,4.495.451c7.143,1.627,19.88,9.605,19.88,9.605,9.807,6.862,11.311,9.885,11.536,10.743a.386.386,0,0,1-.214.449c-1.023.468-3.761-.229-3.761-.229a64.323,64.323,0,0,1-15.192-6.41,84.341,84.341,0,0,1-12.064-8.306c-4.558-3.837-4.9-5.709-4.9-5.709Z" transform="translate(-292.811 -651.764)" fill="#6f7390"/><circle cx="2.572" cy="2.572" r="2.572" transform="translate(22.428 22.428)" fill="#b7b9c8"/><ellipse cx="1.492" cy="1.543" rx="1.492" ry="1.543" transform="translate(34.053 13.58)" fill="#b7b9c8"/><ellipse cx="1.492" cy="1.543" rx="1.492" ry="1.543" transform="translate(9.568 18.827)" fill="#b7b9c8"/><ellipse cx="1.492" cy="1.543" rx="1.492" ry="1.543" transform="translate(20.473 37.757)" fill="#b7b9c8"/></svg>