<svg xmlns="http://www.w3.org/2000/svg" width="50" height="50" viewBox="0 0 50 50"><g transform="translate(-0.5 -1)"><rect width="30.892" height="28.096" transform="translate(10.037 9.555)" fill="#fff"/><path d="M50.5,26a25,25,0,1,1-25-25A25,25,0,0,1,50.5,26ZM18.416,35.949H13.564a3.9,3.9,0,0,1-1.83-.2,1.233,1.233,0,0,1-.559-.964c-.018-.362.233-.8.737-1.689l11.98-21.116c.51-.9.768-1.345,1.093-1.511a1.236,1.236,0,0,1,1.118,0c.325.166.583.614,1.093,1.511l2.463,4.3.013.022a8.064,8.064,0,0,1,.952,1.962,3.647,3.647,0,0,1,0,1.707,8.094,8.094,0,0,1-.958,1.984L23.372,33.081l-.016.028a7.98,7.98,0,0,1-1.224,1.832,3.663,3.663,0,0,1-1.492.866A8.778,8.778,0,0,1,18.416,35.949Zm12.252,0H37.62a3.867,3.867,0,0,0,1.849-.2,1.229,1.229,0,0,0,.559-.97c.018-.351-.229-.776-.711-1.609l-.05-.087-3.482-5.957-.04-.067c-.489-.827-.736-1.245-1.054-1.407a1.223,1.223,0,0,0-1.112,0c-.319.166-.577.6-1.087,1.48l-3.47,5.957-.012.021c-.508.877-.762,1.315-.744,1.675a1.244,1.244,0,0,0,.559.97A3.928,3.928,0,0,0,30.668,35.949Z" fill="#e84142" fill-rule="evenodd"/></g></svg>