<svg xmlns="http://www.w3.org/2000/svg" width="50" height="50" viewBox="0 0 50 50"><path d="M25,0A25,25,0,1,1,0,25,25,25,0,0,1,25,0Z" fill="#0055d5" fill-rule="evenodd"/><g transform="translate(10.648 14.601)"><path d="M215.917,293.963s-2.69-2.15-2.875,3.16c-.185,4.115-.18,12.105,1.725,15.88.8,1.42,1.88.985,3.88-.43,1.74-1.285,8.035-7.085,10.7-9.63s8.07-9.845,9.2-4.885a22.372,22.372,0,0,1,.575,8.48c-.13,1.425-.74,2.505-3.52.575-2.1-1.35-4.1-2.8-4.1-2.8s-.385-.69-1.295.43c-.715.895-1.075,1.115.07,1.795s6.965,4.69,9.2,5.315c1.84.535,2.89.525,2.945-3.09-.01-2.87-.175-11.085-1.22-14.585-.79-2.18-1.95-3.17-4.455-.72s-10.4,10.11-14.725,13.58c-2.865,2.15-4.09,4.09-5.17.505-.76-2.715-1.745-11.165,1.365-9.555,1.945.93,2.915.925,2.155,1.51s-2.945,2.585-2.945,2.585a1.633,1.633,0,0,0-.36,1.725c.315.825.315,1.235,2.01-.36s2.945-2.8,2.945-2.8.27-.425,1.075.36a7.187,7.187,0,0,1,.935,1.005s.215.585,1.075-.43,1.42-1.635-.215-2.585-8.97-5.035-8.97-5.035Z" transform="translate(-212.965 -292.024)" fill="#fff" fill-rule="evenodd"/></g></svg>
