<svg xmlns="http://www.w3.org/2000/svg" width="50" height="50" viewBox="0 0 50 50"><circle cx="25" cy="25" r="25" fill="#0ac18e"/><path d="M28.649,13.078C27.436,10,24.4,9.719,20.855,10.406l-1.261-4.4-2.675.767,1.228,4.281c-.7.2-1.419.422-2.13.641L14.783,7.391l-2.673.766,1.258,4.4c-.575.178-1.141.353-1.7.512l0-.016L7.977,14.106l.82,2.859s1.966-.606,1.942-.559a1.436,1.436,0,0,1,1.875.731l1.438,5.006a2.378,2.378,0,0,1,.288-.063l-.283.081,2.011,7.016a.984.984,0,0,1-.75,1.175c.042.02-1.947.556-1.947.556l.386,3.348,3.481-1c.648-.183,1.289-.355,1.916-.531l1.277,4.445,2.672-.766-1.261-4.4q1.075-.285,2.144-.594l1.253,4.38,2.677-.767-1.272-4.438c4.423-1.548,7.247-3.584,6.427-7.922-.659-3.491-2.694-4.55-5.423-4.431a4.3,4.3,0,0,0,1-5.156ZM27.633,23.656c.953,3.323-4.844,4.577-6.656,5.1l-1.689-5.891c1.813-.52,7.35-2.672,8.344.794ZM24.005,15.7c.866,3.023-3.98,4.031-5.491,4.464l-1.531-5.342c1.509-.433,6.117-2.273,7.022.88Z" transform="translate(4.487 3.381)" fill="#fff"/></svg>
