<svg xmlns="http://www.w3.org/2000/svg" width="50" height="50" viewBox="0 0 50 50"><g transform="translate(0.408 0.299)"><circle cx="25" cy="25" r="25" transform="translate(-0.408 -0.299)" fill="#0b0609"/><path d="M116.8,224.9c-.289.263-.569.538-.873.784a.657.657,0,0,1-.387.1q-6.038.008-12.075.009c-.29,0-.394-.1-.363-.376a1.747,1.747,0,0,1,.012-.377.72.72,0,0,1,.237-.257c.03-.025.1-.005.15-.005H116.72Z" transform="translate(-93.227 -203.084)" fill="#f46825"/><path d="M116.415,180.842h-.4l-12.841,0a.553.553,0,0,1-.512-.849.27.27,0,0,1,.177-.11,2.068,2.068,0,0,1,.343-.009c3.9,0,7.8.007,11.695-.014a1.346,1.346,0,0,1,1.195.5,2.221,2.221,0,0,0,.416.331Z" transform="translate(-92.758 -162.53)" fill="#f46825"/><path d="M116.982,165.047c-.326.308-.582.572-.864.8a.647.647,0,0,1-.386.11c-4.088,0-8.175,0-12.263.008-.32,0-.414-.127-.37-.408.035-.226-.154-.566.324-.566q6.666.008,13.333,0A1.858,1.858,0,0,1,116.982,165.047Z" transform="translate(-93.219 -149.112)" fill="#f46825"/><path d="M116.982,120.928c-.194.009-.317.02-.439.02q-6.364,0-12.728,0c-.168,0-.463-.022-.482-.092a2.306,2.306,0,0,1-.022-.748c0-.044.133-.1.211-.112a1.957,1.957,0,0,1,.343-.009c3.835,0,7.67.026,11.5-.023C116.166,119.949,116.5,120.421,116.982,120.928Z" transform="translate(-93.402 -108.45)" fill="#f46825"/><path d="M276.19,224.847h.375q5.656,0,11.312.005c.153,0,.428.043.437.1a3.3,3.3,0,0,1,0,.825c0,.035-.175.077-.268.077q-5.369.006-10.739,0a.556.556,0,0,1-.339-.127c-.284-.252-.548-.525-.82-.791Z" transform="translate(-249.466 -203.149)" fill="#f46825"/><path d="M114.895,239.749a2.075,2.075,0,0,1-1.7.992c-3.336-.058-6.674-.024-10.012-.025a.556.556,0,0,1-.514-.851.276.276,0,0,1,.178-.109,1.65,1.65,0,0,1,.3-.007h11.748Z" transform="translate(-92.762 -216.601)" fill="#f46825"/><path d="M115.517,105.887h-.435q-5.678,0-11.356-.006c-.15,0-.415-.049-.428-.115a2.03,2.03,0,0,1,.009-.749c.01-.056.241-.1.371-.1,1.4-.008,2.8-.007,4.206-.007,1.963,0,3.927.05,5.887-.022A2.04,2.04,0,0,1,115.517,105.887Z" transform="translate(-93.381 -94.842)" fill="#f46825"/><path d="M290.994,239.721h.335c3.311,0,6.622.005,9.933-.007.343,0,.478.08.462.442-.014.324-.01.544-.455.542-3.018-.017-6.036,0-9.054-.02a1.155,1.155,0,0,1-.6-.242,7.4,7.4,0,0,1-.68-.606Z" transform="translate(-262.817 -216.572)" fill="#f46825"/><path d="M276.067,210.835c-1.59,0-3.061,0-4.532-.01a.355.355,0,0,1-.246-.235c-.1-.726-.063-.765.677-.765.864,0,1.728.016,2.592-.008a.949.949,0,0,1,.829.35C275.563,210.378,275.78,210.558,276.067,210.835Z" transform="translate(-245.041 -189.578)" fill="#f46825"/><path d="M208.084,210.886c.186-.327.346-.631.531-.918a.362.362,0,0,1,.265-.091c.94-.006,1.88,0,2.819-.006.236,0,.322.1.308.319,0,.063,0,.127,0,.19,0,.505,0,.506-.5.506Z" transform="translate(-188.015 -189.628)" fill="#f46825"/><path d="M104.9,210.851c-.484,0-.967-.006-1.451,0-.214,0-.293-.08-.291-.292.009-.868-.066-.712.7-.72.8-.009,1.6.007,2.405-.009.287-.006.4.094.367.374a1.823,1.823,0,0,0,0,.342c.019.234-.088.312-.316.307-.471-.011-.942,0-1.413,0Z" transform="translate(-93.278 -189.593)" fill="#f46825"/><path d="M210,194.9h1.365c.673,0,1.346.009,2.019,0,.263,0,.356.088.36.351.01.609.021.621-.583.635-.837.02-1.675.015-2.513.029-.235,0-.323-.076-.36-.32A3.1,3.1,0,0,0,210,194.9Z" transform="translate(-189.747 -176.112)" fill="#f46825"/><path d="M104.8,195.915c-.457,0-.914-.008-1.37,0-.267.006-.371-.105-.345-.364.011-.113-.032-.243.011-.338s.167-.263.257-.265q1.466-.03,2.932,0c.091,0,.193.162.261.267.035.054.007.148.007.224,0,.5,0,.5-.5.506H104.8Z" transform="translate(-93.203 -176.144)" fill="#f46825"/><path d="M104.868,135.646c-.47,0-.94-.009-1.409,0-.243.006-.358-.074-.333-.327a2.053,2.053,0,0,0,0-.342c-.013-.2.065-.309.28-.311q1.447-.012,2.894-.033c.207,0,.308.077.294.291a2.3,2.3,0,0,0,0,.379c.028.273-.1.352-.358.344-.457-.014-.914,0-1.371,0Z" transform="translate(-93.25 -121.703)" fill="#f46825"/><path d="M208.039,134.885h.931c.853,0,1.706.018,2.559-.006.409-.012.448.191.447.515s-.039.493-.431.48c-.865-.029-1.731-.014-2.6-.005-.241,0-.384-.027-.447-.321C208.454,135.336,208.24,135.16,208.039,134.885Z" transform="translate(-187.974 -121.92)" fill="#f46825"/><path d="M210.074,151.132c.114-.288.194-.531.307-.757.045-.09.163-.2.249-.205q1.466-.021,2.932,0a.337.337,0,0,1,.231.22c.123.623.022.738-.6.739h-3.116Z" transform="translate(-189.811 -135.718)" fill="#f46825"/><path d="M273.314,194.865c.419,0,.84.024,1.257-.007.367-.027.483.119.435.457a1.067,1.067,0,0,0,0,.228c.016.212-.086.3-.292.3q-1.448,0-2.9,0c-.214,0-.293-.109-.284-.31a3.6,3.6,0,0,0,0-.38c-.012-.213.086-.292.3-.289C272.323,194.87,272.818,194.865,273.314,194.865Z" transform="translate(-245.299 -176.071)" fill="#f46825"/><path d="M273.213,180.9c-.459,0-.918-.008-1.376,0-.259.007-.359-.085-.362-.353-.006-.621-.018-.621.618-.621.828,0,1.657.018,2.485-.006.363-.01.394.17.375.445-.018.252.09.56-.364.535s-.917-.005-1.376-.005Z" transform="translate(-245.247 -162.588)" fill="#f46825"/><path d="M273.2,106.125c-.458,0-.917-.008-1.375,0-.239.006-.364-.064-.34-.322.012-.126-.033-.27.014-.376s.175-.262.27-.264q1.451-.028,2.9,0c.095,0,.226.153.268.263a1.533,1.533,0,0,1,.013.415c.016.224-.1.284-.3.281C274.173,106.12,273.688,106.125,273.2,106.125Z" transform="translate(-245.253 -95.082)" fill="#f46825"/><path d="M273.068,165.928c-.471,0-.943-.006-1.414,0-.228,0-.357-.09-.306-.313s-.2-.625.229-.642c1-.038,2.012-.016,3.018,0,.073,0,.18.145.206.24a2.19,2.19,0,0,1,.011.417c.015.215-.083.3-.292.293-.484-.006-.968,0-1.452,0Z" transform="translate(-245.107 -149.075)" fill="#f46825"/><path d="M273.258,151.064c-.471,0-.943-.013-1.414,0s-.325-.312-.346-.553.01-.435.355-.427c.93.02,1.86.014,2.79.005.251,0,.328.09.33.335.005.633.016.633-.606.634h-1.108Z" transform="translate(-245.264 -135.652)" fill="#f46825"/><path d="M104.832,150.088c.459,0,.918.013,1.376,0,.289-.011.372.1.37.378-.005.6.008.6-.606.6-.828,0-1.657-.023-2.484,0-.475.015-.363-.29-.386-.555-.026-.3.057-.445.394-.426.444.025.891.006,1.337.006Z" transform="translate(-93.226 -135.647)" fill="#f46825"/><path d="M273.28,135.942c-.482,0-.965-.007-1.447,0-.231.005-.328-.084-.311-.312a2.472,2.472,0,0,0,0-.342c-.014-.221.076-.328.307-.326q1.428.006,2.856,0c.227,0,.327.094.308.321a1.563,1.563,0,0,0,0,.3c.029.261-.074.364-.344.354-.456-.016-.914,0-1.371,0Z" transform="translate(-245.289 -121.999)" fill="#f46825"/><path d="M273.237,121.168c-.458,0-.917-.008-1.375,0-.241.006-.362-.071-.338-.326a2.282,2.282,0,0,0,0-.342c-.012-.207.075-.3.289-.3.967,0,1.935,0,2.9.014.094,0,.22.152.267.261s0,.25.012.376c.019.229-.074.32-.307.315-.483-.01-.967,0-1.451,0Z" transform="translate(-245.289 -108.67)" fill="#f46825"/><path d="M285.237,322.219c-.51.532-.848,1-1.643.989-3.873-.047-7.747-.021-11.621-.02-.53,0-.759-.334-.551-.819a.317.317,0,0,1,.2-.14,1.216,1.216,0,0,1,.3-.012l12.807,0Z" transform="translate(-245.132 -291.056)" fill="#f46825"/><path d="M285.9,337.976c-.178.011-.289.024-.4.024q-6.455,0-12.91,0c-.152,0-.42-.044-.436-.112a2.648,2.648,0,0,1-.015-.747c0-.038.114-.09.181-.1a2.809,2.809,0,0,1,.381-.009c3.82,0,7.64.03,11.459-.022A1.989,1.989,0,0,1,285.9,337.976Z" transform="translate(-245.829 -304.414)" fill="#f46825"/><path d="M120.288,382.584c-.29.264-.57.539-.874.784a.661.661,0,0,1-.389.1q-5.347.008-10.695-.005a.977.977,0,0,1-.532-.215c-.261-.2-.489-.438-.731-.661l.05-.088h13.088Z" transform="translate(-96.811 -345.487)" fill="#f46825"/><path d="M285.155,278.218h-.477l-12.615,0c-.552,0-.723-.235-.552-.781a.325.325,0,0,1,.205-.174,1.553,1.553,0,0,1,.38-.014c3.8,0,7.595.028,11.391-.021C284.29,277.219,284.668,277.652,285.155,278.218Z" transform="translate(-245.223 -250.443)" fill="#f46825"/><path d="M284.231,263.291H280.07q-3.762,0-7.524-.005c-.15,0-.416-.049-.429-.115a1.873,1.873,0,0,1,.011-.745c.014-.063.263-.106.4-.106,1.884-.008,3.768-.006,5.652-.006,1.528,0,3.056.016,4.583-.008a1.194,1.194,0,0,1,1.031.435,3.852,3.852,0,0,0,.516.439Z" transform="translate(-245.799 -236.968)" fill="#f46825"/><path d="M132.18,397.408c-.277.258-.543.529-.836.766a.671.671,0,0,1-.395.094c-2.613.005-5.225.008-7.838-.005a1.009,1.009,0,0,1-.538-.215,9.177,9.177,0,0,1-.707-.626l.064-.09H132.11Z" transform="translate(-110.172 -358.878)" fill="#f46825"/><path d="M199.109,368.031c.3-.274.583-.557.89-.817a.534.534,0,0,1,.32-.081c1.045-.006,2.091,0,3.136-.008.264,0,.358.09.365.352.018.664.028.664-.621.664h-4.013Z" transform="translate(-179.912 -331.605)" fill="#f46825"/><path d="M107.2,368.1c-1.437,0-2.875,0-4.312,0-.208,0-.311-.072-.3-.286a2.374,2.374,0,0,0,0-.342c-.03-.3.092-.4.394-.391.967.016,1.935.018,2.9,0a.931.931,0,0,1,.769.32,6.876,6.876,0,0,0,.659.561Z" transform="translate(-92.761 -331.561)" fill="#f46825"/><path d="M383.283,382.082c.458,0,.915.009,1.373,0,.235-.006.329.088.3.314a.651.651,0,0,0,0,.076c.007.621.007.621-.6.622-.826,0-1.653-.013-2.478.007-.31.007-.418-.1-.383-.395a1.4,1.4,0,0,0,0-.3c-.026-.257.1-.327.338-.321C382.316,382.091,382.8,382.082,383.283,382.082Z" transform="translate(-344.574 -345.107)" fill="#f46825"/><path d="M383.212,368.139c-.445,0-.891-.01-1.335,0-.252.008-.371-.056-.366-.336.016-.8-.048-.672.666-.678.814-.007,1.628.01,2.442-.006.29-.006.4.1.362.376a1,1,0,0,0,0,.266c.046.316-.107.392-.4.379C384.128,368.125,383.669,368.139,383.212,368.139Z" transform="translate(-344.594 -331.604)" fill="#f46825"/><path d="M273.587,383.1c-.446,0-.892-.012-1.337,0-.267.01-.377-.088-.356-.351a3.1,3.1,0,0,0,0-.381c-.009-.216.1-.286.3-.284q1.414.009,2.828,0c.212,0,.306.081.3.291a2.921,2.921,0,0,0,0,.381c.023.272-.1.352-.363.343C274.5,383.093,274.046,383.1,273.587,383.1Z" transform="translate(-245.624 -345.12)" fill="#f46825"/><path d="M273.594,367.136c.457,0,.914.01,1.371,0,.253-.008.347.1.33.337a2.192,2.192,0,0,0,0,.341c.023.272-.107.345-.363.341-.9-.011-1.8-.014-2.7,0-.289,0-.371-.1-.372-.376,0-.642-.015-.642.634-.642Z" transform="translate(-245.591 -331.612)" fill="#f46825"/><path d="M273.522,292.867c-.459,0-.918-.008-1.376,0-.238.006-.341-.072-.35-.324-.025-.655-.006-.687.664-.688.79,0,1.58.012,2.37-.007.323-.007.419.111.414.421-.011.594,0,.595-.575.6Z" transform="translate(-245.532 -263.644)" fill="#f46825"/><path d="M376.66,292.175c.14-.011.249-.026.358-.026,1.044,0,2.088.021,3.13-.007.433-.012.459.191.462.53s-.068.473-.44.463c-.89-.026-1.781-.01-2.672,0-.212,0-.328-.026-.388-.288A2.4,2.4,0,0,0,376.66,292.175Z" transform="translate(-340.215 -263.907)" fill="#f46825"/><path d="M378.68,308.385a8.083,8.083,0,0,1,.273-.786.369.369,0,0,1,.276-.172c.967-.012,1.935-.013,2.9.007.093,0,.226.152.262.26a.83.83,0,0,1,0,.451c-.024.092-.143.228-.22.228-1.169.008-2.339,0-3.508-.011C378.658,308.361,378.652,308.343,378.68,308.385Z" transform="translate(-342.02 -277.7)" fill="#f46825"/><path d="M379.034,352.209c1.117,0,2.262,0,3.407,0,.236,0,.323.092.3.318a1.334,1.334,0,0,1-.012.377c-.047.111-.171.268-.263.27-.967.02-1.935.018-2.9,0a.371.371,0,0,1-.273-.184A7.974,7.974,0,0,1,379.034,352.209Z" transform="translate(-342.358 -318.136)" fill="#f46825"/><path d="M273.509,353.2c-.42,0-.841-.022-1.259.007-.365.025-.486-.123-.444-.462a1.588,1.588,0,0,0,0-.266c-.009-.212.094-.29.3-.289.941.005,1.883.007,2.824,0,.236,0,.3.1.312.32.028.642.018.66-.632.662h-1.106Z" transform="translate(-245.54 -318.121)" fill="#f46825"/><path d="M213.924,352.15c.432,0,.864.013,1.3,0,.287-.012.419.074.411.383-.019.7.1.632-.627.629-.813,0-1.626-.035-2.438-.022-.436.007-.367-.271-.374-.533s-.019-.48.361-.457c.456.027.914.007,1.372.007Z" transform="translate(-191.721 -318.08)" fill="#f46825"/><path d="M213.865,337.214c.457,0,.915.009,1.372,0,.244-.006.357.08.337.329a2.833,2.833,0,0,0,0,.342c.008.2-.072.3-.288.3q-1.448-.007-2.9,0c-.22,0-.272-.112-.281-.31-.03-.657-.037-.657.613-.658h1.143Z" transform="translate(-191.639 -304.598)" fill="#f46825"/><path d="M383.309,397.006c.458,0,.916.013,1.373,0,.273-.011.371.095.343.355-.012.113.033.245-.012.338-.053.109-.174.262-.268.264-.966.019-1.932.01-2.9.013-.213,0-.3-.1-.285-.305a3.043,3.043,0,0,0,0-.38c-.015-.22.093-.285.3-.282C382.343,397.012,382.826,397.006,383.309,397.006Z" transform="translate(-344.638 -358.579)" fill="#f46825"/><path d="M213.927,323.155c-.457,0-.915-.012-1.371,0-.281.01-.377-.09-.375-.372,0-.6-.009-.6.6-.6.825,0,1.651.018,2.476-.01.43-.015.385.237.393.511s-.006.5-.392.472c-.443-.028-.888-.006-1.333-.006Z" transform="translate(-191.713 -291.027)" fill="#f46825"/><path d="M213.871,308.327c-.457,0-.915-.007-1.372,0-.246.005-.33-.092-.334-.337-.012-.631-.023-.632.6-.632.838,0,1.677.013,2.514-.008.387-.01.357.223.35.47s.071.53-.35.512c-.469-.02-.94,0-1.41,0Z" transform="translate(-191.697 -277.64)" fill="#f46825"/><path d="M104.312,353.153c-.444,0-.889-.012-1.332,0s-.35-.293-.361-.546-.009-.445.344-.438c.913.018,1.828.016,2.741,0,.319-.006.366.159.336.4s.141.58-.318.579Z" transform="translate(-92.791 -318.105)" fill="#f46825"/><path d="M213.852,263.336c-.459,0-.918-.008-1.377,0-.235.006-.3-.09-.312-.316-.02-.659-.028-.659.627-.66.8,0,1.606.014,2.409-.006.455-.012.383.284.4.561.019.3-.078.442-.409.424-.445-.024-.892-.006-1.338-.006Z" transform="translate(-191.693 -237.016)" fill="#f46825"/><path d="M104.31,323.231c-.458,0-.916-.008-1.374,0-.409.01-.3-.285-.313-.506s-.05-.467.32-.462c.929.013,1.858.008,2.787,0,.23,0,.307.09.315.316.025.649.034.649-.628.65H104.31Z" transform="translate(-92.793 -291.104)" fill="#f46825"/><path d="M104.262,263.322c-.445,0-.891-.009-1.336,0-.244.007-.336-.078-.343-.327-.017-.636-.018-.647.606-.648.8,0,1.6.021,2.405-.008.447-.016.4.245.416.536.014.308-.048.475-.412.45C105.155,263.3,104.708,263.322,104.262,263.322Z" transform="translate(-92.758 -237.001)" fill="#f46825"/><path d="M273.577,307.357c.458,0,.916.015,1.373-.005.346-.016.371.186.35.436-.019.229.108.545-.321.543-.928,0-1.856-.007-2.784,0-.427,0-.316-.3-.331-.535s-.015-.46.34-.445C272.661,307.372,273.119,307.357,273.577,307.357Z" transform="translate(-245.594 -277.639)" fill="#f46825"/><path d="M104.307,308.371c-.445,0-.891-.014-1.336,0-.387.016-.351-.239-.344-.482s-.074-.5.33-.491c.916.016,1.833.01,2.749,0,.238,0,.34.068.346.323.016.645.028.645-.637.646h-1.107Z" transform="translate(-92.798 -277.685)" fill="#f46825"/><path d="M213.929,293.218c-.47,0-.94-.006-1.41,0-.213,0-.3-.081-.291-.292a3.338,3.338,0,0,0,0-.38c-.011-.206.079-.3.289-.3.94,0,1.88,0,2.82,0,.447,0,.293.351.32.587.029.258-.056.4-.357.392-.457-.018-.915,0-1.372,0Z" transform="translate(-191.755 -263.999)" fill="#f46825"/><path d="M104.32,293.205c-.446,0-.893-.018-1.337.006-.334.019-.393-.151-.367-.417.024-.241-.112-.569.342-.565.917.008,1.834,0,2.752,0,.218,0,.339.076.325.311a3.35,3.35,0,0,0,0,.381c.012.217-.095.288-.3.285C105.263,293.2,104.792,293.2,104.32,293.205Z" transform="translate(-92.788 -263.986)" fill="#f46825"/><path d="M213.928,278.439c-.459,0-.918-.008-1.376,0-.238.006-.365-.065-.341-.323a2.207,2.207,0,0,0,0-.343c-.013-.207.074-.3.288-.3.943,0,1.886,0,2.829,0,.429,0,.29.328.312.555s-.015.426-.337.415c-.458-.017-.917,0-1.376,0Z" transform="translate(-191.738 -250.665)" fill="#f46825"/><path d="M104.325,278.353c-.445,0-.891-.011-1.335,0-.269.009-.39-.066-.39-.36,0-.607-.015-.607.6-.608.8,0,1.6.023,2.4-.009.436-.017.419.221.425.523s-.038.481-.409.456C105.192,278.331,104.758,278.353,104.325,278.353Z" transform="translate(-92.777 -250.579)" fill="#f46825"/><path d="M273.562,396.956c.458,0,.917.013,1.375,0,.273-.01.35.1.352.357.006.613.016.613-.6.614-.789,0-1.579-.02-2.368.01-.426.016-.468-.184-.472-.529s.088-.482.453-.454C272.72,396.979,273.142,396.955,273.562,396.956Z" transform="translate(-245.585 -358.529)" fill="#f46825"/><path d="M104.327,337.224c.458,0,.917.016,1.375-.005.366-.017.342.216.331.449s.1.533-.335.526q-1.375-.02-2.75,0c-.429.005-.322-.294-.335-.529s-.019-.461.34-.444C103.41,337.24,103.869,337.224,104.327,337.224Z" transform="translate(-92.785 -304.604)" fill="#f46825"/></g></svg>