<svg xmlns="http://www.w3.org/2000/svg" width="50" height="50" viewBox="0 0 50 50"><g transform="translate(-1878 -91)"><circle cx="25" cy="25" r="25" transform="translate(1878 91)" fill="#fff"/><g transform="translate(1878 91)"><path d="M24.067,20.167c0-.333,0-.5-.333-.667L20.067,17a.833.833,0,0,0-.833,0l-3.667,2.667a1,1,0,0,0-.5.833,1.667,1.667,0,0,1-.333,1,.833.833,0,0,0,0,.833l3.833,8L19.9,33.167l.333-.5,4.333-10c.167-.333.167-.5-.167-.667a2.167,2.167,0,0,1-.333-1.833ZM18.4,15.833,8.567,9,8.4,9.167,8.733,10l3.5,7.5c.333.667.5,1.333,1.5,1.5a1.5,1.5,0,0,0,.833-.167L17.733,16.5Z" transform="translate(5.6 6)" fill="#cd0124"/><path d="M25,0A25,25,0,1,0,50,25,25,25,0,0,0,25,0ZM38.5,14.5c-.333,0-.5.167-.667.5L33.667,25v.667a2.167,2.167,0,0,1-1.333,3l-.5.5L27.5,39.333a.833.833,0,0,0,0,.833A2.167,2.167,0,0,1,27.167,43a2,2,0,0,1-2.667.167A1.833,1.833,0,0,1,24,40.5a1,1,0,0,0,0-1l-4.833-10a1.167,1.167,0,0,0-.833-.667,2.167,2.167,0,0,1-1.5-3.167.833.833,0,0,0,0-.833L12.167,15c0-.167-.167-.333-.667-.333a2.167,2.167,0,0,1-1.833-2,2.5,2.5,0,0,1,1.5-2.167,2,2,0,0,1,2.5.833c.167.333.333.333.833.333H35.667c.333,0,.667,0,.833-.5a1.833,1.833,0,0,1,2.333-.833,2.333,2.333,0,0,1,1.5,2A2.167,2.167,0,0,1,38.5,14.5Z" fill="#cd0124"/><path d="M19.2,15.333a.833.833,0,0,0,.833,0L29.367,8.5l.333-.333V8H8.7a1.333,1.333,0,0,1,.5.333ZM20.867,16.5l4,2.667c.333.167.833,0,1.333,0l.333-.5,3.5-8.167L30.2,10h-.167Z" transform="translate(5.8 5.333)" fill="#cd0124"/></g></g></svg>