<svg xmlns="http://www.w3.org/2000/svg" width="50" height="50" viewBox="0 0 50 50"><g transform="translate(-2270 -439)"><circle cx="25" cy="25" r="25" transform="translate(2270 439)" fill="#2f0d30"/><g transform="translate(2278.344 447.312)"><path d="M23.5,16.974a3.366,3.366,0,1,0-4.91,2.988l-1.247,5.395h5.591l-1.247-5.395a3.363,3.363,0,0,0,1.818-2.988Z" transform="translate(-3.443 -2.794)" fill="#ff6b4e"/><path d="M29.858,20.932a10.354,10.354,0,0,1-10.252,9.015H13.775A10.353,10.353,0,0,1,3.433,19.606V13.775A10.353,10.353,0,0,1,13.775,3.433h5.831a10.354,10.354,0,0,1,10.252,9.015h3.455A13.793,13.793,0,0,0,19.6,0H13.773A13.789,13.789,0,0,0,0,13.773V19.6A13.788,13.788,0,0,0,13.773,33.376H19.6A13.792,13.792,0,0,0,33.31,20.93H29.855Z" fill="#ff6b4e"/></g></g></svg>