<svg xmlns="http://www.w3.org/2000/svg" width="49.998" height="50" viewBox="0 0 49.998 50"><g transform="translate(-0.972 -0.971)"><path d="M50.216,32.015a24.991,24.991,0,1,1-18.191-30.3A24.981,24.981,0,0,1,50.216,32.015Z" transform="translate(0 0)" fill="#e6007a"/><g transform="translate(7.687 8.504)"><ellipse cx="6.305" cy="3.664" rx="6.305" ry="3.664" transform="translate(11.98)" fill="#fff"/><ellipse cx="6.305" cy="3.664" rx="6.305" ry="3.664" transform="translate(11.98 27.607)" fill="#fff"/><ellipse cx="6.305" cy="3.664" rx="6.305" ry="3.664" transform="matrix(0.5, -0.866, 0.866, 0.5, 0.007, 14.198)" fill="#fff"/><ellipse cx="6.305" cy="3.664" rx="6.305" ry="3.664" transform="matrix(0.5, -0.866, 0.866, 0.5, 23.917, 27.999)" fill="#fff"/><ellipse cx="3.664" cy="6.305" rx="3.664" ry="6.305" transform="matrix(0.866, -0.5, 0.5, 0.866, 0, 20.739)" fill="#fff"/><ellipse cx="3.664" cy="6.305" rx="3.664" ry="6.305" transform="matrix(0.866, -0.5, 0.5, 0.866, 23.916, 6.943)" fill="#fff"/></g></g></svg>
