<svg xmlns="http://www.w3.org/2000/svg" width="50" height="50" viewBox="0 0 50 50"><g transform="translate(0.141)"><circle cx="25" cy="25" r="25" transform="translate(-0.141)" fill="#161618"/><g transform="translate(6.677 4.561)"><path d="M0,156.34c.5.264,1.148.667,1.613.977.171.116.365.217.551.334.1.062.163.093.256.155a1.262,1.262,0,0,0,.132.085l.14.078,5.973,3.677c.085.047.163.1.256.155l5.422,3.343c.062.039.085.047.14.085l2.591,1.59c.116.062.163.14.295.147V146.721l-.822-.473c-.078-.039-.124-.07-.2-.116l-.644-.372c-.915-.481-1.769-1.07-2.692-1.551-.093-.047-.124-.078-.225-.124l-.822-.473a12.859,12.859,0,0,0-1.28-.714v3.2l3.366,1.947c.093.054.155.093.24.14a.872.872,0,0,0,.256.124V162.01c-.59-.4-1.218-.752-1.823-1.117l-1.466-.908c-.6-.4-1.241-.737-1.838-1.132-.07-.047-.109-.062-.178-.109l-1.3-.8a3.724,3.724,0,0,1-.372-.233c-.473-.318-.985-.6-1.466-.908-.132-.085-.24-.14-.372-.225-.714-.481-1.482-.915-2.211-1.357-.062-.039-.116-.078-.171-.116l-.566-.349V138.306c-.109-.07-.217-.132-.341-.2s-.217-.124-.341-.2l-1.745-.993c-.132-.07-.233-.147-.357-.209v19.64Z" transform="translate(0 -126.097)" fill="#fff" fill-rule="evenodd"/><path d="M245.316,147.059v7.78l1.032-.582c.473-.248.908-.551,1.381-.8a1.2,1.2,0,0,0,.178-.109c.062-.039.124-.062.186-.093v-4.584a.493.493,0,0,0,.194-.085c.07-.047.116-.062.186-.1.365-.209.721-.458,1.094-.644.5-.248.985-.558,1.466-.845.124-.07.225-.132.357-.209l.729-.411.178-.109c.318-.163.613-.38.939-.551l.357-.209c.062-.039.124-.062.186-.093l2.381-1.381c.5-.264.97-.582,1.466-.845l.737-.434c.248-.147.489-.279.737-.434.132-.078.24-.132.357-.209l.388-.217v13.272a.657.657,0,0,0-.233.116l-.683.419c-.07.047-.124.085-.209.14s-.155.1-.233.147-.132.085-.217.132l-.69.411c-.621.357-1.2.76-1.823,1.117l-1.815,1.125c-.085.054-.132.078-.217.132-.814.551-1.683,1.008-2.505,1.544-.147.1-.3.186-.45.279l-2.273,1.4c-.07.039-.147.085-.217.132-.675.442-1.381.822-2.055,1.264l-.923.566v3.258a2.719,2.719,0,0,0,.543-.31c.186-.116.365-.209.551-.334.52-.349,1.086-.636,1.606-.985.1-.062.178-.116.271-.171l1.373-.845c.093-.054.163-.1.256-.155l7.307-4.5c.1-.062.186-.116.271-.171l4.879-3a2.6,2.6,0,0,1,.279-.163V137.1a.75.75,0,0,0-.271.14c-.1.054-.171.093-.264.147l-1.621.939c-.551.295-1.063.659-1.621.939l-4.336,2.5c-.194.109-.349.209-.535.318l-.8.465c-.566.287-1.388.776-1.908,1.1-.093.062-.171.085-.264.147l-1.761,1.024a1.35,1.35,0,0,0-.14.085l-.551.3c-.326.171-.613.38-.939.551-.078.039-.078.054-.14.085l-.551.3a17.218,17.218,0,0,1-1.621.915Z" transform="translate(-226.273 -126.466)" fill="#fff" fill-rule="evenodd"/><path d="M13.9,9.3a1,1,0,0,1,.271.14c.365.194.69.427,1.063.613l2.948,1.706c1.4.853,2.862,1.613,4.274,2.467l.264.147c.1.054.171.1.264.147l1.606.931c.07.039.062.039.116.07.752.458,1.544.845,2.288,1.319l2.389,1.373c.093.054.163.1.256.155a13.453,13.453,0,0,0,1.381.776,7.907,7.907,0,0,0,1.218-.675l.419-.248c.14-.085.264-.14.4-.225l.4-.233.814-.481c.14-.085.264-.147.4-.233l1.233-.7c.078-.039.132-.078.2-.116s.116-.07.2-.116l.822-.473a1.8,1.8,0,0,1,.434-.233c-.023-.093-.039-.085-.116-.132L34.82,13.768c-1.047.551-2.04,1.195-3.079,1.761a2.364,2.364,0,0,0-.233.147c-.163.1-.31.186-.481.279l-1.582-.915c-.551-.279-1.055-.644-1.606-.931-.124-.07-.248-.147-.357-.209l-3.211-1.846c-.062-.039-.116-.07-.178-.109s-.116-.062-.186-.1L19.8,9.471a.453.453,0,0,0-.194-.093c.085-.124.186-.132.326-.217.116-.078.225-.116.349-.186l3.576-1.931a1.641,1.641,0,0,1,.155-.093,1.423,1.423,0,0,0,.186-.1c.124-.078.248-.132.372-.194l4.46-2.4c.078-.039.1-.062.178-.109l1.815-.97c.1,0,1.474.8,1.792.962.078.039.132.062.209.109a1.542,1.542,0,0,0,.225.124l4.933,2.661c.434.271,1.753.962,2.218,1.195.527.264,1.032.582,1.559.845l2.932,1.59c.1.054.132.07.225.124.349.209.357.031.923-.279l1.047-.6a11.366,11.366,0,0,1,1.055-.59c-.031-.1-.124-.14-.217-.194L46.858,8.54c-.535-.271-1.07-.605-1.606-.861L44.19,7.1c-.365-.186-.729-.357-1.07-.574L37.759,3.63a2.123,2.123,0,0,1-.264-.147L35.339,2.319c-.1-.054-.163-.093-.264-.147-.054-.031-.078-.039-.124-.062L32.12.574A8.52,8.52,0,0,0,31.011,0,8.227,8.227,0,0,0,30.2.419l-6.135,3.32a2.975,2.975,0,0,0-.271.14L19.493,6.2c-.1.054-.147.093-.264.147l-.388.209c-.078.039-.078.054-.14.085-.085.054-.178.078-.271.14l-.822.442c-.109.054-.163.1-.264.147L16.1,8.051a.91.91,0,0,0-.085.039c-.178.1-.365.171-.535.287a2.976,2.976,0,0,1-.271.14L14,9.184c-.093.054-.07.008-.1.116Z" transform="translate(-12.822)" fill="#fff" fill-rule="evenodd"/></g></g></svg>
