<svg xmlns="http://www.w3.org/2000/svg" width="50" height="50" viewBox="0 0 50 50"><circle cx="25" cy="25" r="25" transform="translate(0 0)" fill="#7866d5"/><path d="M51.046,36.335c.846.106,1.728.176,2.574.317,1.657.317,2.221,1.164,1.939,2.856a1.421,1.421,0,0,1-1.2,1.234,4.572,4.572,0,0,1-1.2.071c-5.5,0-10.966.035-16.467.035a14.584,14.584,0,0,0-2.468.212c-2.715.423-3.773,1.551-3.984,4.3-.106,1.269-.106,1.269,1.2,1.269h22.5a2,2,0,0,1,.987.282c.987.635.74,1.657.705,2.574a1.341,1.341,0,0,1-1.269,1.3,4.494,4.494,0,0,1-.987.071H30.947c-.811,0-.811,0-.74.811a11.971,11.971,0,0,0,.282,2.221,3.381,3.381,0,0,0,2.539,2.574A18.026,18.026,0,0,0,37.576,57H53.62a1.832,1.832,0,0,1,1.728.705,2.248,2.248,0,0,1-.74,3.1,1.093,1.093,0,0,1-.458.212,12.307,12.307,0,0,1-3.6.494c-5.042.106-10.049.106-15.056,0a25.4,25.4,0,0,1-4.619-.529c-3.561-.74-5.36-2.574-5.959-6.171-.141-.811-.212-1.657-.317-2.5V45.75c.071-.635.141-1.3.212-1.939.458-4.055,2.292-6.065,6.276-6.982a35.818,35.818,0,0,1,4.3-.529l15.656.035Z" transform="translate(-15.926 -23.5)" fill="#fff"/><path d="M41.841,61.051c-2.539,0-5.042-.035-7.546-.071a23.7,23.7,0,0,1-4.725-.564c-3.843-.811-5.818-2.856-6.453-6.664a15.975,15.975,0,0,1-.212-1.763c-.035-.247-.071-.494-.106-.776v-6.7l.071-.635c.035-.458.106-.882.141-1.3.494-4.337,2.539-6.559,6.805-7.511a27.69,27.69,0,0,1,3.315-.458l1.058-.106h15.8a5.766,5.766,0,0,0,.776.071,17.509,17.509,0,0,1,1.834.247c2.01.388,2.786,1.516,2.433,3.561a2.057,2.057,0,0,1-1.763,1.763,7.819,7.819,0,0,1-1.3.106c-5.465.035-10.966.071-16.432.071a13.376,13.376,0,0,0-2.362.212c-2.433.388-3.244,1.269-3.456,3.738,0,.212-.035.423-.035.6h23.1a2.776,2.776,0,0,1,1.3.353A2.624,2.624,0,0,1,55.1,48c0,.106-.035.247-.035.353A1.961,1.961,0,0,1,53.3,50.226a5.881,5.881,0,0,1-1.093.071H29.676v.141a10.888,10.888,0,0,0,.282,2.151,2.73,2.73,0,0,0,2.08,2.08,16.409,16.409,0,0,0,4.408.494c4.161.035,8.392.035,12.518.035H52.49a2.422,2.422,0,0,1,2.257,1.023,2.824,2.824,0,0,1,.353,2.186,2.918,2.918,0,0,1-1.3,1.8,3.126,3.126,0,0,1-.6.282,13.493,13.493,0,0,1-3.773.529c-2.5,0-5.042.035-7.581.035ZM24.069,51.108a5.261,5.261,0,0,1,.071.74l.212,1.693c.564,3.315,2.151,4.937,5.465,5.642a24.267,24.267,0,0,0,4.513.529c4.972.106,10.049.106,15.056,0a13,13,0,0,0,3.385-.458c.106-.035.212-.106.317-.141a1.809,1.809,0,0,0,.74-1.023,1.544,1.544,0,0,0-.212-1.234c-.212-.317-.494-.423-1.164-.423H48.928c-4.09,0-8.357,0-12.518-.035a16.425,16.425,0,0,1-4.725-.564A3.9,3.9,0,0,1,28.724,52.8a10.811,10.811,0,0,1-.282-2.362V50.4c-.035-.494-.071-.846.212-1.164s.67-.317,1.164-.317H52.243a3.722,3.722,0,0,0,.882-.071c.564-.106.705-.353.74-.705,0-.141.035-.247.035-.388.071-.882.071-1.3-.423-1.622a1.32,1.32,0,0,0-.635-.176H30.275c-.776,0-1.234,0-1.587-.353s-.282-.846-.247-1.587c.247-3.032,1.516-4.408,4.513-4.866a20.531,20.531,0,0,1,2.574-.247c5.5,0,10.966-.035,16.467-.035a5.517,5.517,0,0,0,1.093-.071.751.751,0,0,0,.67-.67c.247-1.41-.106-1.869-1.446-2.151a13.872,13.872,0,0,0-1.693-.212,5.766,5.766,0,0,0-.776-.071H34.26L33.2,35.8a23.677,23.677,0,0,0-3.173.423c-3.7.917-5.324,2.715-5.748,6.523-.035.423-.106.846-.141,1.3l-.071.6v6.453Z" transform="translate(-14.761 -22.335)" fill="#fff"/></svg>
