<svg xmlns="http://www.w3.org/2000/svg" xmlns:xlink="http://www.w3.org/1999/xlink" width="50" height="50" viewBox="0 0 50 50"><defs><linearGradient id="a" x1="0.5" x2="0.5" y2="1" gradientUnits="objectBoundingBox"><stop offset="0" stop-color="#7e97fb"/><stop offset="1" stop-color="#50b3f3"/></linearGradient></defs><circle cx="25" cy="25" r="25" fill="url(#a)"/><g transform="translate(-76.256 -6.384)"><path d="M8.486,13.733c.335.712,1.172,2.135,1.172,2.135L19.246,0,9.909,6.532A4.5,4.5,0,0,0,8.569,8,6.863,6.863,0,0,0,8.486,13.733Z" transform="translate(81.46 14.555)" fill="#fff"/><path d="M.118,33.574A10.691,10.691,0,0,0,4.3,41.32l10.342,7.2S8.157,39.185,2.713,29.889a9.255,9.255,0,0,1-1.089-3.182,4.553,4.553,0,0,1,0-1.507c-.126.251-.419.8-.419.8a13.359,13.359,0,0,0-1.13,3.6A18.024,18.024,0,0,0,.118,33.574Z" transform="translate(86.06 -0.094)" fill="#fff"/><path d="M48.361,45.235c-.335-.712-1.172-2.135-1.172-2.135L37.6,58.927l9.379-6.49a4.5,4.5,0,0,0,1.34-1.465A6.862,6.862,0,0,0,48.361,45.235Z" transform="translate(64.195 -10.499)" fill="#fff"/><path d="M52.229,14.948A10.691,10.691,0,0,0,48.042,7.2L37.7,0s6.49,9.337,11.933,18.632a9.255,9.255,0,0,1,1.089,3.182,4.554,4.554,0,0,1,0,1.507c.126-.251.419-.8.419-.8a13.553,13.553,0,0,0,1.13-3.559A25.714,25.714,0,0,0,52.229,14.948Z" transform="translate(64.137 14.555)" fill="#fff"/><path d="M3.97,8a4.084,4.084,0,0,1,1.34-1.465L14.646,0,5.058,15.827S4.221,14.4,3.886,13.691A6.77,6.77,0,0,1,3.97,8ZM.118,18.925A10.691,10.691,0,0,0,4.3,26.671l10.342,7.2S8.157,24.536,2.713,15.241a9.255,9.255,0,0,1-1.089-3.182,4.553,4.553,0,0,1,0-1.507c-.126.251-.419.8-.419.8a13.359,13.359,0,0,0-1.13,3.6A18.024,18.024,0,0,0,.118,18.925ZM26.5,20.181c-.335-.712-1.172-2.135-1.172-2.135L15.735,33.873l9.379-6.49a4.5,4.5,0,0,0,1.34-1.465,6.862,6.862,0,0,0,.042-5.736Zm3.768-5.192a10.691,10.691,0,0,0-4.187-7.746L15.777,0s6.49,9.337,11.933,18.632A9.255,9.255,0,0,1,28.8,21.814a4.554,4.554,0,0,1,0,1.507c.126-.251.419-.8.419-.8a13.553,13.553,0,0,0,1.13-3.559,20.9,20.9,0,0,0-.084-3.978Z" transform="translate(86.06 14.555)" fill="#fff"/></g></svg>