<?xml version="1.0" encoding="UTF-8"?>
<svg enable-background="new 0 0 40 40" version="1.1" viewBox="0 0 40 40" xml:space="preserve" xmlns="http://www.w3.org/2000/svg">
<style type="text/css">
	.st0{filter:url(#b);}
	.st1{fill-rule:evenodd;clip-rule:evenodd;fill:#FFFFFF;}
	.st2{mask:url(#a);fill-rule:evenodd;clip-rule:evenodd;fill:#0090FF;}
</style>
  <defs>
	<filter id="b" x="0" y="0" width="40" height="40" filterUnits="userSpaceOnUse">
		<feColorMatrix values="1 0 0 0 0  0 1 0 0 0  0 0 1 0 0  0 0 0 1 0"/>
	</filter>
</defs>
  <mask id="a" x="0" y="0" width="40" height="40" maskUnits="userSpaceOnUse">
	<g class="st0">
		<path class="st1" d="M0,0h40v40H0V0z"/>
	</g>
</mask>
  <path class="st2" d="M20,40C9,40,0,31,0,19.9C0.1,8.9,9-0.1,20.1,0C31.1,0.1,40,9,40,20.2C39.9,31.1,31,40,20,40"/>
  <path class="st1" d="m21.9 17.6-0.6 3.2 5.7 0.8-0.4 1.5-5.6-0.8c-0.4 1.3-0.6 2.7-1.1 3.9-0.5 1.4-1 2.8-1.6 4.1-0.8 1.7-2.2 2.9-4.1 3.2-1.1 0.2-2.3 0.1-3.2-0.6-0.3-0.2-0.6-0.6-0.6-0.9 0-0.4 0.2-0.9 0.5-1.1 0.2-0.1 0.7 0 1 0.1 0.3 0.3 0.6 0.7 0.8 1.1 0.6 0.8 1.4 0.9 2.2 0.3 0.9-0.8 1.4-1.9 1.7-3 0.6-2.4 1.2-4.7 1.7-7.1v-0.4l-5.3-0.8 0.2-1.5 5.5 0.8 0.7-3.1-5.7-0.9 0.2-1.6 5.9 0.8c0.2-0.6 0.3-1.1 0.5-1.6 0.5-1.8 1-3.6 2.2-5.2s2.6-2.6 4.7-2.5c0.9 0 1.8 0.3 2.4 1 0.1 0.1 0.3 0.3 0.3 0.5 0 0.4 0 0.9-0.3 1.2-0.4 0.3-0.9 0.2-1.3-0.2-0.3-0.3-0.5-0.6-0.8-0.9-0.6-0.8-1.5-0.9-2.2-0.2-0.5 0.5-1 1.2-1.3 1.9-0.7 2.1-1.2 4.3-1.9 6.5l5.5 0.8-0.4 1.5-5.3-0.8"/>
</svg>
