<svg xmlns="http://www.w3.org/2000/svg" width="50" height="50" viewBox="0 0 50 50"><circle cx="25" cy="25" r="25" fill="#00ef8b"/><path d="M147.968,108.032h7.05v7.05h-7.05Z" transform="translate(-119.068 -86.932)" fill="#fff"/><path d="M60.99,117.732a2.65,2.65,0,1,1-2.65-2.65h2.65v-7.05H58.34a9.7,9.7,0,1,0,9.7,9.7v-2.65H60.99Z" transform="translate(-39.14 -86.932)" fill="#fff"/><path d="M121.572,60.81h7.95V53.76h-7.95a9.709,9.709,0,0,0-9.7,9.7v.9h7.05v-.9a2.668,2.668,0,0,1,2.65-2.65Z" transform="translate(-90.022 -43.26)" fill="#fff"/><path d="M118.922,108.032h-7.05v7.05h7.05Z" transform="translate(-90.022 -86.932)" fill="#16ff99"/></svg>
