<svg xmlns="http://www.w3.org/2000/svg" width="50" height="50" viewBox="0 0 50 50"><path d="M25,50A25,25,0,1,0,0,25,25,25,0,0,0,25,50Z" fill="#1969ee"/><path d="M45.723,20.36a3.791,3.791,0,0,1,3.222,0l9.335,4.889a1.566,1.566,0,0,1,.908,1.162H59.2V50.982a1.527,1.527,0,0,1-.917,1.278l-9.334,4.889a3.792,3.792,0,0,1-3.222,0L36.388,52.26a1.514,1.514,0,0,1-.9-1.278V26.411h0a1.5,1.5,0,0,1,.893-1.162Zm12,19.759-8.782,4.6a3.791,3.791,0,0,1-3.222,0L36.96,40.129v10.8L45.723,55.5a3.964,3.964,0,0,0,1.511.55l.1,0a3.711,3.711,0,0,0,1.547-.511l8.847-4.646V40.118ZM33.972,50.447a4.487,4.487,0,0,0,.33,2,2.55,2.55,0,0,0,.952.974l.028.019.376.239.173.1.53.317-.76,1.246-.593-.355-.1-.061-.446-.284c-1.418-.948-1.947-1.981-1.957-4.131v-.066h1.469ZM46.6,33.532a1.36,1.36,0,0,0-.19.08L37.074,38.5l-.028.015-.008,0,.015.009.021.012,9.335,4.889a1.356,1.356,0,0,0,.19.08V33.533Zm1.469,0v9.977a1.357,1.357,0,0,0,.19-.08l9.335-4.889.028-.016.008,0-.015-.009-.021-.012-9.335-4.889a1.335,1.335,0,0,0-.19-.08Zm9.658-5.379-8.374,4.385,8.374,4.385v-8.77Zm-20.766.01v8.75l8.354-4.375Zm11.3-6.515a2.339,2.339,0,0,0-1.849,0l-9.335,4.889-.028.016-.008,0,.015.009.021.012,9.335,4.889a2.339,2.339,0,0,0,1.849,0l9.335-4.889.028-.016.008,0-.015-.009-.021-.012-9.335-4.889Zm10.848.536.593.356.1.061.446.284c1.418.948,1.947,1.982,1.957,4.131v.066H60.733a4.491,4.491,0,0,0-.33-2,2.551,2.551,0,0,0-.952-.974l-.028-.019-.376-.239-.173-.1-.53-.317.76-1.246Z" transform="translate(-22.353 -13.754)" fill="#fff"/></svg>
