<svg xmlns="http://www.w3.org/2000/svg" width="50" height="50" viewBox="0 0 50 50"><g transform="translate(-2330 -439)"><circle cx="24" cy="24" r="24" transform="translate(2331 440)" fill="#fff"/><path d="M25,0A25,25,0,1,0,50,25,25.027,25.027,0,0,0,25,0Zm0,48.582A23.582,23.582,0,1,1,48.582,25,23.609,23.609,0,0,1,25,48.582Zm4.762-34.129-2.194,2.194a4.553,4.553,0,0,0-7.193,3.711,4.561,4.561,0,0,0,3.8,4.491V26.5a4.554,4.554,0,1,0,1.517,0V24.848a4.553,4.553,0,0,0,2.953-7.129l2.194-2.194Zm-1.8,16.537a3.037,3.037,0,1,1-3.037-3.037A3.04,3.04,0,0,1,27.967,30.99Zm-3.037-7.595a3.037,3.037,0,1,1,3.037-3.037A3.04,3.04,0,0,1,24.929,23.395Z" transform="translate(2330 439)" fill="#181ea9"/></g></svg>
