<svg xmlns="http://www.w3.org/2000/svg" xmlns:xlink="http://www.w3.org/1999/xlink" width="50" height="50" viewBox="0 0 50 50"><defs><linearGradient id="a" x1="0.131" y1="0.157" x2="0.946" y2="0.734" gradientUnits="objectBoundingBox"><stop offset="0" stop-color="#c59d41"/><stop offset="1" stop-color="#eed692"/></linearGradient></defs><g transform="translate(-0.056 -0.056)"><circle cx="25" cy="25" r="25" transform="translate(0.056 0.056)" fill="url(#a)"/><g transform="translate(-8.963 -8.963)"><path d="M34.018,12.85A21.168,21.168,0,1,0,55.187,34.018,21.168,21.168,0,0,0,34.018,12.85Zm0,40.259A19.091,19.091,0,1,1,53.109,34.018,19.091,19.091,0,0,1,34.018,53.109Z"/><path d="M58.141,36.665a1.039,1.039,0,0,0,0-2.069H52.157V29.4a1.039,1.039,0,1,0-2.069,0v5.19H45.949V29.4a1.039,1.039,0,1,0-2.069,0v5.19H37.929a1.039,1.039,0,0,0-1.039,1.039V50.285a1.039,1.039,0,0,0,1.039,1.047h5.922v5.335a1.039,1.039,0,0,0,2.069,0V51.332h4.139v5.335a1.039,1.039,0,0,0,2.069,0V51.332h6.013a1.039,1.039,0,0,0,1.035-1.039V42.682a1.035,1.035,0,0,0-1.035-1.039H44.919a1.039,1.039,0,0,0,0,2.069H57.1v5.55H38.963v-12.6Z" transform="translate(-14.091 -9.036)"/></g></g></svg>