<svg xmlns="http://www.w3.org/2000/svg" xmlns:xlink="http://www.w3.org/1999/xlink" width="50" height="50" viewBox="0 0 50 50"><defs><linearGradient id="a" x1="0.46" y1="0.526" x2="0.198" y2="0.918" gradientUnits="objectBoundingBox"><stop offset="0" stop-color="#401f93"/><stop offset="1" stop-color="#4b87d3"/></linearGradient></defs><g transform="translate(-0.265)"><circle cx="25" cy="25" r="25" transform="translate(0.265)" fill="url(#a)"/><g transform="translate(14.701 11.628)"><path d="M126.156,90.961a6.7,6.7,0,1,1,6.7-6.7,6.684,6.684,0,0,1-6.7,6.7m0-16.761A10.056,10.056,0,1,1,116.1,84.256,10.059,10.059,0,0,1,126.156,74.2Zm9.585,20.636a1.615,1.615,0,0,1,0,2.357l-6.7,6.7a1.667,1.667,0,0,1-2.357-2.357l6.7-6.7A1.615,1.615,0,0,1,135.741,94.836Zm3.876-18.96a1.676,1.676,0,1,1-1.676-1.676A1.688,1.688,0,0,1,139.617,75.876Z" transform="translate(-116.1 -74.2)" fill="#fff" fill-rule="evenodd"/></g></g></svg>
