<svg version="1.1" id="Layer_1" xmlns="http://www.w3.org/2000/svg" x="0" y="0" viewBox="0 0 50 50" xml:space="preserve"><style>.st0{fill:#fff}.st1{display:none}.st2{display:inline}.st4{fill:#f79422}.st5{fill:none;stroke:#221f1f;stroke-linejoin:round}.st6{fill:#5a595c}.st7{fill:#929497}.st8,.st9{fill:none;stroke:#221f1f}.st8{stroke-linecap:round;stroke-linejoin:round}.st9{stroke-miterlimit:10}.st10{fill:none;stroke:#171717;stroke-linecap:round;stroke-linejoin:round}.st12{fill:#221f1f}.st13{fill:#070001}</style><ellipse class="st0" cx="24.7" cy="25" rx="23.2" ry="23.5"/><g id="Layer_2_00000096758436641758334450000017841725478599035553_" class="st1"><g id="Layer_4" class="st2"><path d="M39.5 35.1c-.4 4.8-6.1 8.8-14.6 8.6-8-.2-13.6-3.5-14-8.3-.1-.6 0-1.2.1-1.9.3-1.9.9-3.6 1.9-5.3l.6.3c1.6-.6 3.2-1.1 4.9-1.4 2.2-.3 4.4-.4 6.6-.2 2.2-.2 4.4-.1 6.6.2 1.7.3 3.3.8 4.9 1.4l.6-.3.4-.2c1 1.6 1.6 3.4 2 5.3.1.6.2 1.2.1 1.7" fill="#f4a427"/><path class="st0" d="M39.5 35.1c-.4 4.7-6 8.6-14.6 8.6-8-.2-13.6-3.5-14-8.3-.1-.6 0-1.2.1-1.9.9-.2 1.7-.2 2.6-.1 1.6.3 2.5 1.3 3.7 1.8.7.3 1.3-.2 1.9-.8 1.6-1.6 3.8-2.5 6-2.5 2.3-.1 4.1.9 6.1 2.7.4.4 1 .7 1.5.6.5-.2 1-.4 1.4-.8 1.5-1 3.3-1.4 5.1-1.2.2.7.2 1.3.2 1.9"/><path class="st4" d="M16 23.3c-.6.6-1.3 1-2 1.1l-.3.1c-.3.1-.6.2-1 .2h-.2c-.2-.1-.4-.1-.5-.2-.6-.3-1.1-.6-1.5-1-.9-.8-1.8-1.6-2.4-2.6-2.8-4-1.9-9.5 1.9-12.5.3-.2.6-.2.8.1.1.2.2.3.1.5-.4 1.6-.7 4.1.9 6.3 1.3 1.8 4 3.6 5.7 3.6.2 1.9-.3 3.3-1.5 4.4"/><path class="st5" d="M16 23.3c-.6.6-1.3 1-2 1.1l-.3.1c-.3.1-.6.2-1 .2h-.2c-.2-.1-.4-.1-.5-.2-.6-.3-1.1-.6-1.5-1-.9-.8-1.8-1.6-2.4-2.6-2.8-4-1.9-9.5 1.9-12.5.3-.2.6-.2.8.1.1.2.2.3.1.5-.4 1.6-.7 4.1.9 6.3 1.3 1.8 4 3.6 5.7 3.6.2 1.9-.3 3.3-1.5 4.4z"/><path class="st6" d="M23.3 16.3l-.7 6.5h-.1c-1 .2-2.4.4-4.2.7-1.7.3-4 1.5-5.4 2.3l-.2-1.1c.3-.1.7-.1 1-.2l.3-.1c.8-.2 1.5-.6 2-1.1 1.2-1.2 1.8-2.5 1.4-4.5l.2.1c.6-.7 1.3-1.2 2.1-1.6 1.1-.6 2.3-.9 3.6-1"/><path class="st5" d="M23.3 16.3l-.7 6.5h-.1c-1 .2-2.4.4-4.2.7-1.7.3-4 1.5-5.4 2.3l-.2-1.1c.3-.1.7-.1 1-.2l.3-.1c.8-.2 1.5-.6 2-1.1 1.2-1.2 1.8-2.5 1.4-4.5l.2.1c.6-.7 1.3-1.2 2.1-1.6 1.1-.6 2.3-.9 3.6-1z"/><path class="st7" d="M38 27.9l-.4.2-.4.2-.6.3c-1.6-.6-3.2-1.1-4.9-1.4a36.83 36.83 0 0 0-13.2 0c-1.7.3-3.3.8-4.9 1.4l-.6-.3-.9-.4c.1-.7 0-1.1 0-1.8.2-.1.4-.3.7-.4l.1-.1c1.3-.8 3.6-2 5.4-2.3 1.9-.3 3.2-.5 4.2-.7.7-.1 1.4-.1 2.1-.1 1.1 0 2 0 3 .1 1 .2 2.4.4 4.3.7 1.8.3 4.1 1.5 5.5 2.3h.1c.3.2.5.3.6.4-.1.8-.1 1.2-.1 1.9"/><path class="st8" d="M38 27.9l-.4.2-.4.2-.6.3c-1.6-.6-3.2-1.1-4.9-1.4a36.83 36.83 0 0 0-13.2 0c-1.7.3-3.3.8-4.9 1.4l-.6-.3-.9-.4c.1-.7 0-1.1 0-1.8.2-.1.4-.3.7-.4l.1-.1c1.3-.8 3.6-2 5.4-2.3 1.9-.3 3.2-.5 4.2-.7.7-.1 1.4-.1 2.1-.1 1.1 0 2 0 3 .1 1 .2 2.4.4 4.3.7 1.8.3 4.1 1.5 5.5 2.3h.1c.3.2.5.3.6.4-.1.8-.1 1.2-.1 1.9z"/><path class="st7" d="M27.6 22.8c-.9-.1-1.9-.1-3-.1-.7 0-1.4.1-2.1.1h.1l.7-6.5.2-1.3c.5-.3 1.1-.5 1.7-.5h.1c.6 0 1.2.2 1.7.5l.2 1.3v.1l.4 6.4z"/><path class="st8" d="M27.6 22.8c-.9-.1-1.9-.1-3-.1-.7 0-1.4.1-2.1.1h.1l.7-6.5.2-1.3c.5-.3 1.1-.5 1.7-.5h.1c.6 0 1.2.2 1.7.5l.2 1.3v.1l.4 6.4zM39.5 35.2c-.4 4.8-6.5 8.6-14.6 8.6-8-.2-13.6-3.5-13.9-8.3-.1-.6 0-1.2.1-1.9.3-1.9.9-3.6 1.9-5.3l.6.3c1.6-.6 3.2-1.1 4.9-1.4a36.83 36.83 0 0 1 13.2 0c1.7.3 3.3.8 4.9 1.4l.7-.3.4-.2c1 1.6 1.6 3.4 2 5.3-.2.6-.2 1.2-.2 1.8z"/><path class="st4" d="M42 20.9c-.7 1-1.5 1.9-2.5 2.6-.5.4-1 .7-1.5 1l-.3.1-.2.1c-.4.1-.6 0-1.2-.1l-.3-.2c-.8-.2-1.5-.6-2-1.1a4.52 4.52 0 0 1-1.4-4.5c1.6.1 4.4-1.7 5.7-3.6 1.5-2.2 1.2-4.7.8-6.3-.1-.3.1-.6.4-.7.2-.1.4 0 .5.1a9.4 9.4 0 0 1 2 12.6"/><path class="st5" d="M42 20.9c-.7 1-1.5 1.9-2.5 2.6-.5.4-1 .7-1.5 1l-.3.1-.2.1c-.4.1-.6 0-1.2-.1l-.3-.2c-.8-.2-1.5-.6-2-1.1a4.52 4.52 0 0 1-1.4-4.5c1.6.1 4.4-1.7 5.7-3.6 1.5-2.2 1.2-4.7.8-6.3-.1-.3.1-.6.4-.7.2-.1.4 0 .5.1a9.4 9.4 0 0 1 2 12.6z"/><path class="st6" d="M37.6 24.6l-.2 1.1c-1.4-.8-3.7-2-5.5-2.3-1.9-.3-3.2-.5-4.3-.7l-.7-6.5a8.34 8.34 0 0 1 5.5 2.6l.2-.1c-.4 2 .2 3.4 1.4 4.5.6.6 1.3 1 2 1.1.1 0 .3.1.3.1.4.3.9.3 1.3.2"/><path class="st5" d="M37.6 24.6l-.2 1.1c-1.4-.8-3.7-2-5.5-2.3-1.9-.3-3.2-.5-4.3-.7l-.7-6.5a8.34 8.34 0 0 1 5.5 2.6l.2-.1c-.4 2 .2 3.4 1.4 4.5.6.6 1.3 1 2 1.1l.3.1c.7.2.9.3 1.3.2zM26.9 16.3h-.2"/><path class="st4" d="M37.6 24.3c.4.4.3 1-.2 1.4l-.1.1"/><path class="st9" d="M37.6 24.3c.4.4.3 1-.2 1.4l-.1.1"/><path class="st4" d="M12.7 24.3c-.4.4-.3 1 .2 1.4l.1.1"/><path class="st9" d="M12.7 24.3c-.4.4-.3 1 .2 1.4l.1.1"/><path class="st10" d="M23.3 37.1c.4.1.8.1 1.1-.2.6-.2.9-.8.9-1.4-.1.6.3 1.2.9 1.4.4.2.7.2 1.1.2"/><path d="M27.2 33.8c0 .6-.9 1.4-2 1.4s-2-.8-2-1.4c0-.6.9-.8 2-.8s2 .3 2 .8" fill="#171717"/><path class="st0" d="M26 33.6c0 .2-.4.4-.9.4s-.9-.2-.9-.3c0-.1.4-.1.9-.1s.9-.1.9 0"/><path class="st10" d="M22 35.6c-.1.7.4 1.3 1.1 1.5h.2M25.2 34.9v.7M27.2 37.1h.2c.7-.2 1.2-.8 1.1-1.5"/><path class="st5" d="M40 8.3c3.8 3 4.6 8.5 1.9 12.5M16 23.3c-.6.6-1.3 1-2 1.1l-.3.1c-.3.1-.6.2-1 .2h-.2c-.2-.1-.4-.1-.5-.2-.6-.3-1.1-.6-1.5-1-.9-.8-1.8-1.6-2.4-2.6-2.8-4-1.9-9.5 1.9-12.5.3-.2.6-.2.8.1.1.2.2.3.1.5-.4 1.6-.7 4.1.9 6.3 1.3 1.8 4 3.6 5.7 3.6.2 1.9-.3 3.3-1.5 4.4z"/><path class="st12" d="M21.5 30.6c0 1.1-.7 2-1.5 2s-1.5-.9-1.5-2c0-1 .5-1.8 1.2-2l1.6 1.2c.1.3.2.5.2.8z"/><path class="st0" d="M20.9 30.3c0 .4-.3.7-.5.7s-.5-.3-.5-.7c0-.4.3-.7.5-.7s.5.3.5.7"/><path class="st12" d="M19.7 32.1c-.6.5-1.1 1-1.5 1.5l-.6.9c-.2.3-.3.7-.3 1-.1.2-.1.4-.1.5V37.7c.1.4.1.8.2 1.1.1.2.1.4.1.6.1.2.1.4.2.5-.1-.2-.2-.4-.3-.5-.1-.2-.2-.4-.2-.5l-.3-1.1c-.1-.4-.1-.8-.2-1.1V36v-.6c.1-.4.1-.8.3-1.2.2-.4.3-.7.5-1.1.5-.7.9-1.3 1.5-1.8.2-.2.5-.2.7 0 .2.3.2.6 0 .8z"/><path class="st12" d="M19.4 31.9H19.1l-.3-.1c-.2-.1-.3-.1-.5-.1-.3 0-.7 0-1 .1 0 .2-.2.2-.3.3-.5.2-.9.6-1.1 1 .2-.4.3-.7.6-.9.1-.2.3-.3.4-.4.2-.1.3-.2.5-.3.3-.2.7-.3 1.1-.4.2-.1.4-.1.6-.1h.5s.1 0 0 0c.3 0 .5.2.5.5s-.4.4-.7.4M31.8 30.6c0 1.1-.7 2-1.4 2s-1.5-.9-1.5-2c0-.3.1-.5.1-.8l1.6-1.2c.7.2 1.2 1 1.2 2z"/><path class="st0" d="M29.5 30.3c0 .4.3.7.5.7s.5-.3.5-.7c0-.4-.3-.7-.5-.7s-.5.3-.5.7"/><path class="st12" d="M31.3 31.4c.6.6 1 1.1 1.4 1.8.2.3.4.7.6 1s.3.8.3 1.1c.1.4.1.8 0 1.2-.1.4-.1.8-.2 1.1s-.2.7-.3 1.1c-.1.2-.1.4-.2.5-.1.2-.2.4-.3.5.1-.2.2-.4.2-.5.1-.2.1-.4.2-.5.1-.4.2-.7.2-1.1.1-.4.1-.7.1-1.1 0-.4-.1-.7-.1-1.1a3 3 0 0 0-.4-1l-.6-.9c-.5-.6-1-1.1-1.5-1.5-.2-.2-.2-.5 0-.7.2-.1.4-.1.6.1"/><path class="st12" d="M31 31h.6c.2 0 .4 0 .6.1.4.1.8.2 1.1.3.4.2.7.4 1 .7.3.3.5.6.6.9-.2-.3-.5-.6-.8-.8-.3-.2-.6-.4-1-.4-.4-.1-.7-.1-1.1-.1-.2 0-.4.1-.5.1l-.3.1h-.4c-.3.1-.5-.2-.5-.4-.1-.3.2-.5.4-.5h.1"/></g></g><path d="M24.9 0a25 25 0 0 0 0 50C38.7 50 50 38.8 50 25S38.8 0 24.9 0zM27 17.8l1.1-1.2 3.4-3.9h3.2l-6.4 7.6s-.6-.8-1.1-1.2c-.5-.4-.5-1-.2-1.3zm-8-5.1s5.5 6.4 7.4 8.4c.3.3.2.7 0 1.2-1.1 1.3-1.2 1.3-1.2 1.3l-9.3-10.8H19zm4.3 19.4l-1.1 1.2-3.4 4h-3l6.4-7.6s.6.8 1.1 1.2c.4.2.3.9 0 1.2zm.2-6.7c-2.6 3.2-10.1 11.8-10.1 11.8H10l10.1-11.7c.3-.3.3-.8 0-1.4l-10-11.6h3.3l10 11.7c.3.5.3.9.1 1.2zm7.9 11.8l-6.8-8-.3-.4c-.3-.3-.3-1.1 0-1.4L37 12.6h3.2L27.3 27.3c-.3.3-.3.8 0 1.4l7.4 8.5h-3.3zm5.7 0s-5.6-6.4-7.4-8.5c-.2-.2-.3-.5-.2-.8.1-.1.2-.3.3-.4l.8-.8 9.3 10.9-2.8-.4z"/><g id="页面-1" class="st1"><g id="NFT-TOKEN-TRC721备份" transform="translate(-40 -70)" class="st2"><g id="logo" transform="translate(40 70)"><path id="形状" class="st13" d="M25 7a14 14 0 0 1 9.9 4c2.7 2.6 4.1 6 4.1 9.6V43H11V20.6c0-3.6 1.5-7 4.1-9.6 2.6-2.6 6.1-4 9.9-4m0-.8c-3.9 0-7.6 1.5-10.4 4.2s-4.3 6.3-4.3 10.1v23.2h29.4V20.6c0-3.8-1.5-7.4-4.3-10.1A14.6 14.6 0 0 0 25 6.2z"/><g id="编组_1_" transform="translate(3.46 3.42)"><path id="形状_1_" class="st13" d="M30.2 8.9l-.7-.7c-2.2-1.9-5-2.9-8-2.9-3.2 0-6.4 1.3-8.6 3.6a12.2 12.2 0 0 0-3.6 8.6v20.3h24.4V17.5c.1-3.3-1.2-6.3-3.5-8.6zm-3.8 27.6c-1.1.4-2.4.6-3.6.6H14v-4c-.2-.2-.4-.5-.5-.7-1.5-2-2.3-4.4-2.3-7v-7.6c0-3 1.1-5.8 3.1-8 .3 0 .6 0 .9.1 2.1.2 4.8.9 7.2 2.6 2.1 1.5 4.7 4.1 4.7 8.4v15.4c-.2.1-.4.2-.7.2z"/><path id="形状_2_" class="st13" d="M22.4 12.5c-2.4-1.6-5.2-2.4-7.2-2.6-.3 0-.7-.1-.9-.1-2 2.2-3.1 5-3.1 8v7.6c0 2.5.8 5 2.3 7 .2.2.3.5.5.7v4h8.8c1.3 0 2.5-.2 3.6-.6.3-.1.5-.1.7-.3V20.9c0-4.3-2.5-6.9-4.7-8.4zm-7.7 23.9v-2.6c1.2 1.1 2.6 2.1 4.1 2.6h-4.1zm11.7-.6A11.14 11.14 0 0 1 15 33.2l-.4-.4c-.3-.3-.5-.6-.7-.9-1.4-1.9-2.1-4.1-2.1-6.4v-7.6c0-2.7 1-5.2 2.7-7.2 4.6.2 11.9 3.4 11.9 10.3v14.8z"/></g><g id="编组_2_" transform="translate(9.8 21.44)"><path id="路径_7_" class="st13" d="M12.4 9.5c-.2 0-.4-.2-.4-.4V2.3c0-1.8 1.5-3.2 3.2-3.2s3.2 1.5 3.2 3.2c0 .2-.2.4-.4.4s-.4-.2-.4-.4c0-1.3-1.1-2.5-2.5-2.5S12.8 1 12.8 2.3v6.8c0 .2-.2.4-.4.4z"/><path id="路径_8_" class="st13" d="M16.5 4.2c-.2 0-.4-.2-.4-.4 0-.5-.3-.8-.8-.8s-.8.3-.8.8c0 .2-.2.4-.4.4s-.4-.2-.4-.4c0-.9.7-1.7 1.7-1.7.9 0 1.7.7 1.7 1.7-.2.3-.4.4-.6.4z"/><path id="路径_9_" class="st13" d="M12.4 9.5c-1.2 0-2.2-1-2.2-2.2 0-.2.2-.4.4-.4s.4.2.4.4c0 .7.6 1.3 1.3 1.3s1.3-.6 1.3-1.3c0-.2.2-.4.4-.4s.4.2.4.4a2 2 0 0 1-2 2.2z"/><path id="路径_10_" class="st13" d="M10.1 4.9c-.1 0-.2-.1-.3-.1L8 3v1.5c0 .2-.2.4-.4.4s-.4-.2-.4-.5V2c0-.2.1-.3.3-.4.2-.1.3-.1.5.1l1.8 1.8V2.4c-.1-.2.1-.4.3-.4.2 0 .4.2.4.4v2.1c0 .2-.1.3-.3.4h-.1z"/><path id="路径_11_" class="st13" d="M12.3 2.8c-.2 0-.4-.2-.4-.4 0-.1 0-1.7-1.1-1.7-.2 0-.4-.2-.4-.4s.2-.4.4-.4c1.5 0 1.9 1.7 1.9 2.5 0 .2-.2.4-.4.4z"/></g></g></g></g></svg>