<svg xmlns="http://www.w3.org/2000/svg" xmlns:xlink="http://www.w3.org/1999/xlink" width="50" height="50" viewBox="0 0 50 50"><defs><linearGradient id="a" x1="0.854" y1="0.146" x2="0.146" y2="0.854" gradientUnits="objectBoundingBox"><stop offset="0" stop-color="#ff2d55"/><stop offset="1" stop-color="#ffbc5b"/></linearGradient><linearGradient id="b" x1="0.5" x2="0.5" y2="1" gradientUnits="objectBoundingBox"><stop offset="0" stop-color="#a524b3"/><stop offset="1" stop-color="#ff2d55"/></linearGradient></defs><circle cx="25" cy="25" r="25" fill="url(#a)"/><path d="M125.7,0V18.75h15.625Z" transform="translate(-107.987 16.25)" fill-rule="evenodd" fill="url(#b)"/><path d="M16.7,148.75H32.325V130Z" transform="translate(-14.613 -113.75)" fill="#fff" fill-rule="evenodd"/><path d="M40,320a25.6,25.6,0,0,0,5,5H75a25.6,25.6,0,0,0,5-5Z" transform="translate(-35 -280)" fill="#fc9965" fill-rule="evenodd"/><path d="M80,360a25,25,0,0,0,30,0Z" transform="translate(-70 -315)" fill="#ff2d55" fill-rule="evenodd"/><path d="M252.3,0V13.75h11.463Z" transform="translate(-218.762 26.25)" fill-rule="evenodd" fill="url(#b)"/><path d="M48.15,280H16.7a24.893,24.893,0,0,0,2.913,5h28.55v-5Z" transform="translate(-14.613 -245)" fill="#ffbc5b" fill-rule="evenodd"/><path d="M176.7,223.75h11.45V210Z" transform="translate(-154.613 -183.75)" fill="#fff" fill-rule="evenodd"/><circle cx="6.25" cy="6.25" r="6.25" transform="translate(27.288 10)" fill="#ffc95b"/><circle cx="3.125" cy="3.125" r="3.125" transform="translate(14.587 6.25)" fill="#ffc95b"/></svg>
