<svg xmlns="http://www.w3.org/2000/svg" width="50.002" height="50" viewBox="0 0 50.002 50"><path d="M25,50A25,25,0,1,0,0,25.055,25.017,25.017,0,0,0,25,50Z" fill="#1c68f3"/><path d="M39.174,18.044v8.364H12.857a11.346,11.346,0,0,0,11.185,8.8,11.485,11.485,0,0,0,10.307-6.273h4.934v6.933a2.979,2.979,0,0,1-3.07,2.971H11.87A3.048,3.048,0,0,1,8.8,35.872V18.044ZM31.389,28.829a8.974,8.974,0,0,1-7.347,3.852A8.824,8.824,0,0,1,16.7,28.829Zm-13.816-8.8a4.745,4.745,0,0,0-4.715,3.962h2.632a2.179,2.179,0,0,1,4.167,0h2.522A4.618,4.618,0,0,0,17.572,20.025Zm12.939,0A4.745,4.745,0,0,0,25.8,23.987h2.632a2.179,2.179,0,0,1,4.167,0h2.632A4.815,4.815,0,0,0,30.511,20.025ZM36.1,8.8a3.048,3.048,0,0,1,3.07,2.971V15.4H8.8V11.771A2.979,2.979,0,0,1,11.87,8.8Z" transform="translate(0.85 0.85)" fill="#fff" fill-rule="evenodd"/></svg>