<svg xmlns="http://www.w3.org/2000/svg" xmlns:xlink="http://www.w3.org/1999/xlink" width="50" height="50" viewBox="0 0 50 50"><defs><clipPath id="a"><rect width="26.25" height="22.9" fill="#fff"/></clipPath></defs><circle cx="25" cy="25" r="25" fill="#8247e5"/><g transform="translate(11.875 13.438)" clip-path="url(#a)"><path d="M57.824,49.822a1.741,1.741,0,0,0-1.64,0l-3.828,2.256-2.6,1.436L46,55.77a1.742,1.742,0,0,1-1.641,0l-2.939-1.777a1.666,1.666,0,0,1-.82-1.436V49.139a1.686,1.686,0,0,1,.82-1.436l2.939-1.709a1.742,1.742,0,0,1,1.641,0l2.939,1.777a1.666,1.666,0,0,1,.82,1.436v2.256l2.6-1.5V47.635a1.686,1.686,0,0,0-.82-1.436l-5.469-3.213a1.742,1.742,0,0,0-1.641,0L38.82,46.268A1.5,1.5,0,0,0,38,47.635v6.426a1.686,1.686,0,0,0,.82,1.436l5.537,3.213a1.742,1.742,0,0,0,1.641,0l3.76-2.187,2.6-1.5,3.76-2.187a1.742,1.742,0,0,1,1.641,0L60.7,54.539a1.666,1.666,0,0,1,.82,1.436v3.418a1.686,1.686,0,0,1-.82,1.435l-2.871,1.709a1.741,1.741,0,0,1-1.64,0l-2.939-1.709a1.666,1.666,0,0,1-.82-1.435V57.205l-2.6,1.5v2.256a1.686,1.686,0,0,0,.82,1.436l5.537,3.213a1.741,1.741,0,0,0,1.64,0L63.361,62.4a1.666,1.666,0,0,0,.82-1.436V54.471a1.686,1.686,0,0,0-.82-1.436Z" transform="translate(-38 -42.85)" fill="#fff"/></g></svg>
