<?xml version="1.0" encoding="utf-8"?>
<!-- Generator: Adobe Illustrator 27.0.0, SVG Export Plug-In . SVG Version: 6.00 Build 0)  -->
<svg version="1.1" id="Layer_1" xmlns="http://www.w3.org/2000/svg" xmlns:xlink="http://www.w3.org/1999/xlink" x="0px" y="0px"
	 viewBox="0 0 50 50" style="enable-background:new 0 0 50 50;" xml:space="preserve">
<style type="text/css">
	.st0{fill:#FFFFFF;}
	.st1{fill:#8ACAFF;}
	.st2{fill:#4187F7;}
</style>
<circle class="st0" cx="25" cy="25" r="25"/>
<g>
	<g id="Layer_1-2">
		<path class="st1" d="M26.36,22.7L25.03,25l-1.34,2.3l-2.51-1.44l-10.05-5.77v10.9c-1.6-1.18-3.74-1.18-5.34,0V19.07
			c1.98,1.5,4.81,1.07,6.25-0.91c0.59-0.75,0.91-1.71,0.91-2.67c0-0.16,0-0.32-0.05-0.53l10.9,6.31l1.18,0.69L26.36,22.7z"/>
		<path class="st1" d="M42.72,33.92c0.11,0.21,0.16,0.43,0.16,0.64h-4.01l1.98-1.18C41.54,33.07,42.34,33.28,42.72,33.92
			L42.72,33.92z"/>
		<path class="st1" d="M44.21,19.07v11.92c-1.6-1.18-3.74-1.18-5.34,0v-10.9l-9.99,5.77l-2.51,1.44L25.03,25l-1.34-2.3l1.34-0.75
			l1.18-0.69l10.9-6.31c0,0.16-0.05,0.32-0.05,0.53c0,2.46,2.03,4.49,4.49,4.49C42.5,19.98,43.46,19.66,44.21,19.07z"/>
		<path class="st1" d="M25.72,4.8L25.72,4.8C25.67,4.75,25.67,4.75,25.72,4.8L25.72,4.8l-0.05-0.05c0,0,0,0-0.05,0c0,0,0,0-0.05,0
			l0,0c0,0,0,0-0.05,0l0,0h-0.05l0,0l0,0l0,0H25.4l0,0l0,0l0,0l0,0l0,0h-0.05h-0.05c-0.05,0-0.11,0-0.11,0c-0.05,0-0.11,0-0.11,0
			s0,0-0.05,0h-0.05h-0.05l0,0l0,0c-0.05,0-0.05,0-0.11,0l0,0l0,0l0,0h-0.05h-0.05l0,0l0,0l0,0h-0.05l0,0c0,0,0,0-0.05,0l0,0l0,0
			l0,0l-13.09,7.43c0.69,0.64,1.12,1.44,1.34,2.3l10.85-6.25v8.02c0,0.75,0.59,1.34,1.34,1.34s1.34-0.59,1.34-1.34V8.22l0,0
			l10.85,6.25c0.21-0.91,0.64-1.71,1.34-2.3L25.72,4.8z"/>
		<path class="st1" d="M42.88,34.57h-4.01l1.98-1.18c0.64-0.37,1.44-0.16,1.82,0.48C42.82,34.08,42.88,34.35,42.88,34.57z"/>
		<path class="st1" d="M37.16,35.58l-10.79,6.25v-8.02c0-0.75-0.59-1.34-1.34-1.34s-1.34,0.59-1.34,1.34v8.02l-10.85-6.25
			c-0.21,0.91-0.64,1.71-1.34,2.3l12.83,7.37l0,0c0,0,0,0,0.05,0h0.05h0.05c0,0,0,0,0.05,0h0.05h0.05h0.05h0.05h0.05
			c0.05,0,0.11,0,0.16,0h0.05h0.05h0.05h0.05c0.05,0,0.11,0,0.16,0c0,0,0,0,0.05,0l0,0h0.05h0.05c0.05,0,0.11-0.05,0.11-0.05
			s0,0,0.05,0h0.05c0,0,0,0,0.05,0l0,0l12.83-7.37C37.85,37.24,37.37,36.44,37.16,35.58z"/>
		<circle class="st2" cx="25.03" cy="25" r="3.95"/>
		<circle class="st2" cx="8.46" cy="15.49" r="3.95"/>
		<circle class="st2" cx="8.46" cy="34.57" r="3.95"/>
		<circle class="st2" cx="41.54" cy="15.49" r="3.95"/>
		<circle class="st2" cx="41.54" cy="34.57" r="3.95"/>
	</g>
</g>
</svg>
