<svg xmlns="http://www.w3.org/2000/svg" xmlns:xlink="http://www.w3.org/1999/xlink" width="50" height="50" viewBox="0 0 50 50"><defs><linearGradient id="a" x1="0.5" y1="1.003" x2="0.5" y2="0.003" gradientUnits="objectBoundingBox"><stop offset="0" stop-color="#4fa89b"/><stop offset="1" stop-color="#6acebb"/></linearGradient></defs><g transform="translate(0 0.065)"><g transform="translate(0 -0.065)"><circle cx="25" cy="25" r="25" fill="url(#a)"/><path d="M127.278,225.068V213.3l8.923,6.716v5.051h2.277v-5.525a1.328,1.328,0,0,0-.529-1.058l-10.822-8.148A1.333,1.333,0,0,0,125,211.4v13.667Zm24.678,0V213.3l-8.923,6.716v5.051h-2.278v-5.525a1.328,1.328,0,0,1,.529-1.058l10.822-8.144a1.333,1.333,0,0,1,2.128,1.061v13.667Z" transform="translate(-114.583 -192.526)" fill="#fff"/></g></g></svg>