<svg xmlns="http://www.w3.org/2000/svg" width="50" height="50" viewBox="0 0 50 50"><g transform="translate(-1653 -603)"><g transform="translate(1653 603)"><circle cx="25" cy="25" r="25" fill="#242424"/></g><path d="M20.49,1.305,15.155,9.223a.568.568,0,0,0,.851.738l5.25-4.569a.205.205,0,0,1,.341.17V19.837a.212.212,0,0,1-.369.142L5.335.965A2.626,2.626,0,0,0,3.264,0H2.7A2.719,2.719,0,0,0,0,2.724V22.817a2.725,2.725,0,0,0,5.052,1.419l5.335-7.918a.568.568,0,0,0-.851-.738l-5.25,4.541a.205.205,0,0,1-.341-.17V5.7a.212.212,0,0,1,.369-.142L20.206,24.577a2.667,2.667,0,0,0,2.072.965h.568a2.725,2.725,0,0,0,2.724-2.724V2.724a2.744,2.744,0,0,0-5.08-1.419Z" transform="translate(1665.215 615.229)" fill="#fff"/></g></svg>
