<?xml version="1.0" encoding="UTF-8"?>
<svg id="Layer_2" data-name="Layer 2" xmlns="http://www.w3.org/2000/svg" viewBox="0 0 50 50">
  <defs>
    <style>
      .cls-1 {
        fill: #fff;
      }

      .cls-2 {
        fill: #050708;
      }
    </style>
  </defs>
  <g id="Layer_2-2" data-name="Layer 2">
    <g id="Layer_1-2" data-name="Layer 1-2">
      <circle class="cls-1" cx="25" cy="25" r="25"/>
    </g>
    <g id="Layer_2-3" data-name="Layer 2">
      <g id="Layer_1-2-2" data-name="Layer 1-2">
        <path class="cls-2" d="M44.54,32.51c0-5.01,0-10.02,0-15.02,.02-.51-.24-1.02-.65-1.32-5.97-4.36-11.94-8.72-17.9-13.08-.37-.29-.84-.4-1.29-.31-.28,.05-.53,.19-.75,.36-5.93,4.33-11.85,8.66-17.78,12.99-.45,.31-.72,.83-.71,1.37,0,5.01,0,10.01,0,15.02,0,.54,.27,1.07,.72,1.37,5.93,4.33,11.85,8.66,17.77,12.99,.57,.48,1.46,.52,2.04,.05,5.95-4.34,11.9-8.69,17.84-13.04,.45-.3,.74-.84,.71-1.38"/>
        <path class="cls-1" d="M22.94,6.35c.16-.18,.32-.46,.59-.42,.94,0,1.88-.01,2.82,.01,.16,.1,.29,.25,.43,.38,0,.97,0,1.94,0,2.91-.28,0-.56,.02-.84,0-.02-.07-.05-.2-.07-.27,0-.72,.06-1.45,0-2.17-.69,0-1.38,0-2.07,0,0,.24,0,.49,0,.73-.29,0-.58,0-.87,0,0-.39-.04-.78,.02-1.17"/>
        <path class="cls-1" d="M20.59,7.53c.32-.01,.64-.01,.95,0,0,1.34,.01,2.68,0,4.02-.3,0-.61,0-.91,0-.1-1.34-.02-2.68-.04-4.02"/>
        <path class="cls-1" d="M28.68,8.98c.85-.01,1.69,0,2.54,0,0,.31,0,.62,0,.93-.85,0-1.69,.01-2.54,0,0-.31,0-.62,0-.92"/>
        <path class="cls-1" d="M23.55,9.43c.34,0,.68,0,1.02,0,.33,.64,.74,1.23,1,1.89-.31,.01-.63,.01-.94,.02-.37-.63-.73-1.26-1.09-1.9"/>
        <path class="cls-1" d="M27.03,10.55c.3,0,.59,0,.89,0,.8,1.25,1.58,2.51,2.39,3.75,0,.38,0,.76,0,1.14-.09-.02-.26-.05-.35-.06-.69-1.02-1.32-2.08-2-3.11-.01,1.16,0,2.32,0,3.47-.31,0-.62,0-.93,0,0-1.73,0-3.46,0-5.19"/>
        <path class="cls-1" d="M30.7,11.25c.31,0,.63,0,.94,0,0,.3,0,.59,0,.89-.31,0-.63,0-.94,0,0-.3,0-.6,0-.89"/>
        <path class="cls-1" d="M15.16,11.54c.25,0,.5,0,.74,0,.66-.04,1.32-.03,1.99,0,0,.29,0,.58,0,.86-.98,.59-1.92,1.24-2.91,1.8-.29-.11-.52-.35-.76-.54,.65-.4,1.29-.81,1.94-1.2-.33-.02-.67-.01-1-.02,0-.31,0-.61,0-.91"/>
        <path class="cls-1" d="M22.99,11.89c.3,0,.61,0,.91,0,0,.31,0,.61,0,.92-.3,0-.61,0-.91,0,0-.31,0-.61,0-.92"/>
        <path class="cls-1" d="M18.53,12.78c.49,.74,.96,1.49,1.45,2.22,.49-.74,.97-1.5,1.47-2.24,0,.49,.03,.98-.01,1.47-.45,.77-.97,1.5-1.46,2.26-.48-.74-.98-1.46-1.44-2.22-.05-.5-.01-1-.01-1.5"/>
        <path class="cls-1" d="M32.02,12.9c1.46,0,2.93,0,4.39,0,0,.3,0,.59,0,.89-1.46,0-2.92,0-4.39,0,0-.3,0-.6,0-.89"/>
        <path class="cls-1" d="M24.28,14.06c.29,0,.59,0,.88,0,.01,1.3,0,2.6,0,3.9-.14,.13-.27,.26-.41,.4-1.01,.01-2.03,0-3.04,0-.13-.13-.27-.25-.39-.39-.05-.4-.01-.8-.01-1.2,.28,0,.56,0,.85,0,0,.23,0,.46,0,.69,.7,.08,1.4,.02,2.1,.04,0-1.14,0-2.29,0-3.43"/>
        <path class="cls-1" d="M38.42,17.9c0-.98,0-1.96,0-2.94,.31,0,.61,0,.92,0,0,.98,0,1.96,0,2.94-.31,0-.61,0-.92,0"/>
        <path class="cls-1" d="M34.05,15.7c.58,0,1.16-.1,1.74,0,.38,1.23,.7,2.48,1.08,3.71-.3,0-.59,0-.89,0-.28-.96-.52-1.92-.82-2.88-.16,0-.33,0-.49,0-.24,.96-.53,1.91-.78,2.87-.3,0-.6,0-.9,0,.37-1.23,.71-2.47,1.06-3.71"/>
        <path class="cls-1" d="M9.3,16.17c1.33,0,2.67-.01,4,0,0,.31,0,.61,0,.92-1.34,.01-2.67,0-4,0,0-.31,0-.61,0-.92"/>
        <path class="cls-1" d="M13.93,16.17c.3,0,.61,0,.91,0,0,.31,0,.62,0,.92-.3,0-.61,0-.91,0,0-.31,0-.61,0-.92"/>
        <path class="cls-1" d="M17.29,16.21c.3,0,.6,0,.89,0,0,.71,0,1.43,0,2.14-.3,0-.6,0-.9,0,0-.71-.01-1.43,0-2.14"/>
        <path class="cls-1" d="M40.6,16.85c.34,0,.69,0,1.03,0,.34,.63,.75,1.22,1,1.9-.31,.01-.63,.01-.94,.01-.37-.63-.72-1.27-1.09-1.9"/>
        <path class="cls-1" d="M27.1,17.61c.3,0,.59,0,.89,0,0,.98,0,1.95,0,2.93-.3,0-.6,0-.89,0,0-.98,0-1.96,0-2.93"/>
        <path class="cls-1" d="M30.23,18.8c0-.31,0-.61,0-.92,.3,0,.6,0,.9,0,0,.31,0,.61,0,.92-.3,0-.6,0-.9,0"/>
        <path class="cls-1" d="M13.29,20.15c.72-.53,1.49-.98,2.23-1.48,.49,0,.98,0,1.46,0-.73,.52-1.5,.97-2.23,1.48,.75,.47,1.49,.97,2.23,1.44-.5,0-1,0-1.51,0-.72-.49-1.48-.94-2.19-1.45"/>
        <path class="cls-1" d="M38.42,19.3c.31,0,.62,0,.92,0,0,.31,0,.61,0,.92-.31,0-.61,0-.92,0,0-.31,0-.61,0-.92"/>
        <path class="cls-1" d="M6.84,19.42c1.54,0,3.07-.01,4.61,0,0,.29,0,.58,0,.87-.69,.45-1.37,.9-2.08,1.32-.3-.11-.52-.36-.78-.54,.38-.24,.77-.47,1.14-.73-.96,0-1.93,0-2.89,0,0-.31,0-.62,0-.92"/>
        <path class="cls-1" d="M19.99,20.32c1.33,0,2.66,0,3.99,0,.03,.3,.03,.61-.01,.91-1.33,0-2.65,0-3.98,0,0-.31,0-.61,0-.92"/>
        <path class="cls-1" d="M24.85,20.32c.32,0,.64,0,.96,0,0,.3,0,.6,0,.89-.32,0-.64,0-.96,0,0-.3,0-.6,0-.9"/>
        <path class="cls-1" d="M29.03,21.61c-.04-.32,.28-.48,.45-.69,.39,0,.78,0,1.17,0,0,.29,0,.59,0,.88-.25,0-.5,0-.74,0v2.09c1.15,0,2.3,0,3.45,0,0,.3,0,.6,0,.89-1.29,0-2.59,0-3.88,0-.16-.22-.48-.38-.44-.69,0-.84,0-1.67,0-2.51"/>
        <path class="cls-1" d="M33.39,21.33c.32-.01,.64-.01,.95,0,0,.3,0,.61,0,.91-.32,.01-.63,.01-.95,0,0-.3,0-.61,0-.91"/>
        <path class="cls-1" d="M36.41,21.33c1.34-.02,2.68,0,4.01,0,0,.31,0,.62,0,.93-1.34,0-2.67,.01-4.01,0,0-.31,0-.61,0-.92"/>
        <path class="cls-1" d="M17.88,22.4c.75,0,1.5,0,2.25,0,0,.31,0,.62,0,.94-.75,0-1.5,0-2.25,0-.01-.31-.01-.62,0-.93"/>
        <path class="cls-1" d="M22.82,22.4c1.18,0,2.35,0,3.53,0,.43-.07,.86,.38,.8,.8,0,.86,0,1.73,0,2.6-.15,.16-.3,.32-.45,.48-.39,0-.78,0-1.17,0,0-.3,0-.59,0-.89,.24,0,.49,0,.73,0,0-.68,0-1.36,0-2.04-1.14-.1-2.29-.02-3.44-.05,0-.3,0-.59,0-.89"/>
        <path class="cls-1" d="M14.53,22.67c.57,0,1.15,0,1.72,0,.35,1.24,.72,2.48,1.05,3.73-.29,0-.58,0-.87,0-.3-.96-.52-1.94-.83-2.89-.16,.01-.33,.02-.49,.03-.22,.96-.53,1.9-.77,2.85-.3,0-.6,0-.89,0,.35-1.24,.71-2.49,1.07-3.73"/>
        <path class="cls-1" d="M39.61,23.79c1-.01,2.01-.02,3.01,0,.25,.16,.54,.41,.48,.74,0,.71,0,1.43,0,2.14,0,.34,0,.68,0,1.03,.02,.28-.06,.55-.04,.84-.29,0-.57,0-.86,0,0-1.29,0-2.57,0-3.86-.7-.02-1.4,0-2.1-.01,0,.24,0,.48,0,.72-.29,0-.59,0-.88,0,0-.39,0-.79,0-1.18,.14-.14,.27-.27,.4-.41"/>
        <path class="cls-1" d="M11.1,23.83h.93c0,.98,0,1.95,0,2.93h-.94c0-.98,0-1.95,0-2.93"/>
        <path class="cls-1" d="M8.18,24.65c.31,0,.61,0,.92,.02,0,.29,0,.58,0,.87-.31,0-.62,0-.92,0,0-.3,0-.6,0-.89"/>
        <path class="cls-1" d="M19.11,30.01c0-1.73,0-3.46,0-5.19,.3,0,.61,0,.91,0,.71,1.15,1.45,2.28,2.17,3.43,.31,.41,.13,.95,.18,1.42-.11,0-.21,0-.32,0-.65-1.04-1.34-2.06-1.96-3.12-.11,1.15-.02,2.3-.06,3.46-.31,0-.62,0-.92,0"/>
        <path class="cls-1" d="M23.15,25.48c.31,0,.62,0,.93,0,0,.76,0,1.51,0,2.27-.31,0-.62,0-.93,0,0-.75,0-1.51,0-2.26"/>
        <path class="cls-1" d="M28.75,26.49c.3,0,.61,0,.91,0,0,.31,0,.62,0,.92-.3,0-.61,0-.91,0,0-.31,0-.61,0-.92"/>
        <path class="cls-1" d="M31.7,26.53c.94-.01,1.88,0,2.82,0,.04,.27,.06,.55,.03,.83-.09,.18-.3,.11-.46,.13-.8-.02-1.61,.05-2.4-.04,0-.3,0-.61,0-.91"/>
        <path class="cls-1" d="M35.49,26.66c.3,0,.61-.02,.91,.02,.03,1.06,.01,2.13,0,3.19-.31,0-.61,0-.92,0-.01-1.07-.01-2.14,0-3.21"/>
        <path class="cls-1" d="M27.1,27.29c.3,0,.59,0,.89,0,0,.31,0,.61,0,.92-.3,0-.59,0-.89,0,0-.31,0-.61,0-.92"/>
        <path class="cls-1" d="M12.83,27.95c1.06-.11,2.13-.02,3.19-.06,.27,0,.55,0,.82,.04,0,.31,0,.62,0,.93-1.34,0-2.67,0-4,0,0-.3,0-.6,0-.9"/>
        <path class="cls-1" d="M6.84,28.63c.14-.14,.29-.28,.44-.43,.39,0,.77,0,1.16,0,0,.29,0,.58,0,.88-.24,0-.48,0-.72,0,0,.7,0,1.39,0,2.09,1.14,0,2.27,0,3.41,0,0,.29,0,.57,0,.86-.28,0-.56,0-.85,0-1.01-.01-2.02,.02-3.03-.01-.17-.1-.34-.25-.41-.43-.03-.99,0-1.99,0-2.98"/>
        <path class="cls-1" d="M30.43,29.21c.15-.14,.3-.29,.46-.42,.98,0,1.97,0,2.95,0,.15,.14,.3,.28,.45,.42,0,.97,0,1.95,0,2.92-.3,0-.6,0-.9,0,0-.82,0-1.64,0-2.45-.69,0-1.38,0-2.07,0,0,.25,0,.5,0,.75-.3,0-.59,0-.88,0,0-.4,0-.81,0-1.21"/>
        <path class="cls-1" d="M36.74,30.93c1.09-.71,2.19-1.4,3.29-2.1,.26,.18,.52,.36,.78,.54-.79,.5-1.58,1.01-2.37,1.51,1.16,.01,2.32,0,3.49,0,0,.31,0,.62,0,.93-1.73,0-3.45,0-5.18,0,0-.3,0-.6,0-.89"/>
        <path class="cls-1" d="M24.4,31.1c1.09-.73,2.22-1.4,3.32-2.13,.26,.18,.52,.36,.78,.53-.76,.53-1.56,1-2.33,1.51,1.16,.02,2.31,0,3.47,.01,0,.32,0,.64,0,.95-1.73,.01-3.46,0-5.19,0-.04-.29-.04-.59-.05-.88"/>
        <path class="cls-1" d="M13.03,30.32c.48,.73,.96,1.47,1.44,2.21,.51-.73,.97-1.49,1.47-2.22,.01,.5,0,.99,0,1.49-.5,.74-.96,1.5-1.48,2.23-.48-.73-.94-1.47-1.44-2.19,0-.5-.01-1.01,0-1.51"/>
        <path class="cls-1" d="M18.3,32.2c-.01-.31-.01-.63,0-.94,.3,0,.61,0,.91,.02,0,.31,0,.61,0,.92-.3,0-.61,0-.91,0"/>
        <path class="cls-1" d="M22.58,32.66c.31,0,.61,0,.92,0,0,1.14,0,2.28,0,3.43-.22,0-.44,.02-.65,.04-.07-.01-.21-.04-.28-.05,0-1.14,0-2.28,0-3.41"/>
        <path class="cls-1" d="M28.92,33.37c.58-.01,1.16,0,1.73,0,.35,1.24,.71,2.49,1.07,3.73-.3,0-.6,0-.89,0-.25-.95-.53-1.89-.79-2.84-.16-.01-.32-.02-.48-.02-.27,.96-.53,1.92-.8,2.88-.3,0-.6,0-.89,0,.36-1.24,.73-2.47,1.06-3.72"/>
        <path class="cls-1" d="M15.82,35.43c1.1-.71,2.2-1.42,3.32-2.1,.26,.18,.52,.36,.77,.54-.8,.5-1.58,1.02-2.39,1.5,1.17,.02,2.34,0,3.51,.01,0,.31,0,.62,0,.92-1.73,0-3.47,.01-5.2,0,0-.29,0-.58,0-.88"/>
        <path class="cls-1" d="M24.91,33.55c.32,0,.64-.02,.96-.06,.38,.62,.83,1.24,1.02,1.95-.3,0-.6,0-.9,0-.36-.64-.72-1.27-1.08-1.9"/>
        <path class="cls-1" d="M37.66,33.93c.32-.01,.63-.01,.95,0,0,.3,0,.6,0,.91-.32,0-.63,0-.95,0,0-.3,0-.6,0-.9"/>
        <path class="cls-1" d="M35.34,36.35c.38-.61,.79-1.21,1.17-1.82,.01,.45,.02,.91,0,1.37,.01,.17-.11,.3-.19,.44-.42,.63-.83,1.26-1.24,1.89-.5-.75-.98-1.5-1.48-2.25,0-.5,0-1,0-1.49,.48,.73,.94,1.47,1.44,2.19,.14-.06,.2-.21,.29-.33"/>
        <path class="cls-1" d="M11.84,35.47c.81-.03,1.62-.01,2.43,0,0,.3,.02,.6-.01,.9-.8,.04-1.61,.02-2.41,0,0-.3,0-.6,0-.9"/>
        <path class="cls-1" d="M21.71,37.42c1.3-.02,2.59,0,3.89-.01,.15,.15,.3,.3,.45,.45,0,.99,0,1.98,0,2.98-.13,.14-.26,.27-.39,.41-.42,0-.83,.01-1.25,0,0-.28-.03-.57,.04-.84,.23-.02,.47-.02,.71-.02,0-.69,0-1.39,0-2.08-1.15,0-2.3,.01-3.45-.01,0-.29,0-.58,0-.87"/>
        <path class="cls-1" d="M15.48,37.75c.3,0,.61,0,.91,0,0,.3,0,.61,0,.91-.31,0-.61,0-.91,0,0-.31,0-.61,0-.92"/>
        <path class="cls-1" d="M31.53,38.24c.34-.29,.66,.19,.95,.33v.11c-.77,.5-1.55,.96-2.3,1.48h.44c.23,0,.46,0,.7,0,0,.3,0,.61,0,.91-.95,.01-1.89,.01-2.84,0-.02-.29-.02-.57-.02-.86,1.01-.69,2.06-1.31,3.09-1.99"/>
        <path class="cls-1" d="M17.18,39.09c1.23,0,2.46-.01,3.68,0,0,.3,0,.6,0,.91-1.23,.02-2.46,.01-3.68,0,0-.31,0-.61,0-.92"/>
        <path class="cls-1" d="M20.45,41.42c.35,0,.69,0,1.04,0,.32,.64,.75,1.22,.99,1.9-.31,.02-.62,.02-.93,.02-.38-.63-.73-1.28-1.1-1.92"/>
        <path class="cls-1" d="M26.58,42.38c.3,0,.6,0,.9,.02,0,.3,0,.61-.03,.91-.29,0-.58,0-.86,0-.01-.31-.01-.62,0-.93"/>
        <path class="cls-1" d="M24.48,45.39c0-.71-.02-1.41,.01-2.12,.3,0,.61,.02,.91,.04,0,.69,0,1.38,0,2.07-.31,0-.62,0-.92,0"/>
      </g>
    </g>
  </g>
</svg>