<?xml version="1.0" encoding="utf-8"?>
<!-- Generator: Adobe Illustrator 27.7.0, SVG Export Plug-In . SVG Version: 6.00 Build 0)  -->
<svg version="1.1" id="Layer_1" xmlns="http://www.w3.org/2000/svg" xmlns:xlink="http://www.w3.org/1999/xlink" x="0px" y="0px"
	 width="50px" height="50px" viewBox="0 0 50 50" style="enable-background:new 0 0 50 50;" xml:space="preserve">
<style type="text/css">
	.st0{fill:#FFFFFF;}
</style>
<circle class="st0" cx="25" cy="25" r="25"/>
<g transform="translate(0.000000,250.000000) scale(0.100000,-0.100000)">
	<path d="M218.9,2498.7C110.9,2484,24,2402.7,4.2,2297.8c-12.4-66.2,1.2-132.7,39.1-189.5c13.2-19.7,46.4-53,65.4-65.6
		c29.1-19.1,58.8-31.5,93.1-38.9c23.7-5,72.7-5,96.3,0c49,10.4,88.5,30.9,123.4,63.8c36.9,35.1,61.4,77.7,72.2,125.6
		c18.9,83.1-4.2,167.6-62.6,229.6c-34.3,36.1-84.1,63.6-133.5,73.1C277.1,2499.9,237.6,2501.3,218.9,2498.7z M275.1,2478.8
		c59.6-6.8,116-37.3,152.7-82.7c23.7-29.5,37.3-56.8,46.4-93.9c4.4-17.7,5.2-25.7,5.4-50.2c0-34.9-3.6-56.4-15.1-85.3
		c-60.4-155.1-260.1-197.1-377.1-79.3c-66,66.2-85.5,162.6-50.4,249.5c17.9,44.8,55.2,87.9,96.5,111.4
		C178.8,2474.2,225.7,2484.2,275.1,2478.8z"/>
	<path d="M88.1,2309c-26.1-9.4-42.7-41.7-36.7-71.8c3-15.1,6.4-22.1,15.9-31.9c12.4-13.4,20.5-16.5,42.3-16.5
		c17.5,0,20.1,0.6,29.7,5.8c17.9,10,27.7,25.9,29.9,48.4c2.8,30.9-15.1,59.8-41.3,67.2C117.6,2313,97.9,2312.4,88.1,2309z
		 M132,2283.9c11.8-8.6,17.9-28.5,13.6-46c-8-33.7-52.4-40.3-67.6-10c-9.2,18.1-4.4,46.4,9.6,56.2
		C99.3,2292.6,120,2292.4,132,2283.9z"/>
	<path d="M359.6,2308.2c-37.7-15.1-48.4-70.6-19.9-104.4c15.5-18.5,52-21.9,68.2-6.2l4.4,4.2l0.6-5.6c0.6-5,1.2-5.4,10.6-5.4h10
		l0.6,31.7l0.6,31.5h-28.3h-28.1v-10v-10h17.1c18.5,0,19.1-0.4,13.8-11.2c-3.6-7.4-16.5-14.9-26.1-14.9c-23.1,0-36.9,16.3-36.9,42.5
		c0.2,29.1,18.9,45.8,44.4,39.7c9.8-2.4,19.9-11,19.9-17.3c0-2,3-2.8,12-2.8h11.8l-2.8,9c-6.2,21.1-21.7,31.7-47.2,32.5
		C373.2,2312,367,2311.2,359.6,2308.2z"/>
	<path d="M185.8,2250v-60.2h10h10l0.4,40.5l0.6,40.7l14.9-40.7l14.9-40.7l10,0.6l10,0.6l14.7,40.1l14.7,40.1l0.6-40.1l0.6-40.1
		l10.6-0.6l10.4-0.6l-0.4,59.8l-0.6,59.8h-13.8h-14l-16.1-44.6c-8.8-24.7-16.7-44.2-17.3-43.1c-0.8,0.8-8,19.9-16.1,42.5
		s-15.7,42.3-16.7,43.8c-1.2,1.4-6.8,2.4-14.7,2.4h-12.8C185.8,2310.2,185.8,2250,185.8,2250z"/>
</g>
</svg>
