<svg xmlns="http://www.w3.org/2000/svg" xmlns:xlink="http://www.w3.org/1999/xlink" width="50" height="50" viewBox="0 0 50 50"><defs><linearGradient id="a" x1="0.921" y1="0.094" x2="0.188" y2="0.918" gradientUnits="objectBoundingBox"><stop offset="0" stop-color="#67f9be"/><stop offset="1" stop-color="#01afe8"/></linearGradient></defs><circle cx="25" cy="25" r="25" fill="url(#a)"/><path d="M82.381,59.891a6.154,6.154,0,0,0-6.159,6.138v6.806c-.634.043-1.283.07-1.955.07s-1.318.027-1.955.065v-6.94a6.158,6.158,0,1,0-12.317,0V82.294a6.158,6.158,0,1,0,12.317,0V75.489c.634-.043,1.283-.07,1.955-.07s1.318-.027,1.955-.065v6.94a6.158,6.158,0,1,0,12.317,0V66.029A6.154,6.154,0,0,0,82.381,59.891ZM66.153,62.405a3.633,3.633,0,0,1,3.634,3.623v7.207a20.715,20.715,0,0,0-5.233,1.479,9.513,9.513,0,0,0-2.03,1.211v-9.9A3.633,3.633,0,0,1,66.153,62.405Zm3.634,19.889a3.634,3.634,0,1,1-7.269,0V80.663c0-1.441,1.142-2.807,3.056-3.657a17.918,17.918,0,0,1,4.213-1.232Zm12.593,3.623a3.633,3.633,0,0,1-3.634-3.623V75.088a20.715,20.715,0,0,0,5.233-1.479,9.514,9.514,0,0,0,2.03-1.211v9.9A3.633,3.633,0,0,1,82.381,85.918Zm.579-14.61a17.918,17.918,0,0,1-4.213,1.232V66.029a3.634,3.634,0,0,1,7.269,0V67.66C86.015,69.1,84.873,70.461,82.959,71.307Z" transform="translate(-49.267 -49.162)" fill="#fff"/></svg>
