<svg xmlns="http://www.w3.org/2000/svg" width="50" height="50" viewBox="0 0 50 50"><g transform="translate(-1653 -603)"><circle cx="25" cy="25" r="25" transform="translate(1653 603)"/><g transform="translate(1658.599 606.935)"><path d="M102.3,2.516l10.692,12.527,7.177-4.222S111.51-.758,109.2.061C107.03.888,102.3,2.516,102.3,2.516Z" transform="translate(-93.523 0)" fill="#fff"/><path d="M312.8,54.577a25.754,25.754,0,0,0,2.438-6.677s8.124,3.265,5.006,11.441Z" transform="translate(-285.888 -43.756)" fill="#fff"/><path d="M399.2,180.572l.681,8.581,3.11-.4s.81-.276.681-1.766c-.138-1.637-.4-5.04-.4-5.04s.138-.818-1.758-1.086C399.2,180.434,399.2,180.572,399.2,180.572Z" transform="translate(-364.844 -164.978)" fill="#fff"/><path d="M340.929,280.4l-6.229,5.04,2.843,5.583s.681,2.18,2.705-.276c1.9-2.455,2.705-2.86,2.567-4.359C342.7,284.889,342.282,281.348,340.929,280.4Z" transform="translate(-305.901 -256.225)" fill="#fff"/><path d="M163.01,298.317,154.48,294.5l-7.444,15.12s-.543,1.086,1.353,1.223c1.9.276,5.006.956,6.634-.681C156.651,308.672,163.01,298.317,163.01,298.317Z" transform="translate(-134.34 -269.11)" fill="#fff"/><path d="M20.141,186.08,19.331,176,.919,177.232s-1.086.138-.948,2.18c.138,2.722.4,5.721.4,5.721s-.138,1.223,2.3,1.361S19.873,186.623,20.141,186.08Z" transform="translate(0 -160.819)" fill="#fff"/></g></g></svg>