<svg xmlns="http://www.w3.org/2000/svg" xml:space="preserve" id="Layer_2_00000079443542776338363820000014648452339022055089_" x="0" y="0" version="1.1" viewBox="0 0 50 50"><style>.st0{fill:#fff}</style><g id="Layer_2-2"><circle id="Layer_1-2" cx="25" cy="25" r="25" class="st0"/></g><path fill="#0b4431" d="M24.6 48c-9.7 0-14.3-4.6-16.5-8.5-2-3.6-2.8-7.5-2.2-11.6.4-3.5 1.8-7.1 4-10.4 1.4-2.1 3.2-4.3 5.1-6.1 1.4-1.3 2.6-2.1 3.5-2.5-.3-1.2-.5-3.1-.5-3.7v-.1c0-1.5 1.6-2.1 2.2-2.4 1-.4 2.3-.7 3.5-.7 1.2 0 2.4.1 3.3.3.6.1 2.4.5 2.5 2.1l.1 2.7c0 .5 0 .9-.1 1.3 5.2 1.8 9.5 7.3 11.3 10.2.7 1.2 2.5 4.4 3.3 8.4.9 4.8.1 9.1-2.3 12.8-5.3 7.6-14.4 8.2-17.2 8.2zm-5.2-36.2c-1.2.6-4.5 3.4-7 7.3C10 22.9 6.5 30.4 10.8 38c2.5 4.5 7.3 6.9 13.7 6.9h.1c2.4 0 10.2-.5 14.4-6.8 4.9-7.4.1-16.2-1-17.8-.9-1.5-2.7-3.9-5-5.9L23.6 13l-7.1 1.4 3.8-2.1c-.1-.1-.3-.1-.4-.2-.2-.1-.4-.2-.5-.3zm8.7 0 3.5 1.4c-1-.7-1.9-1.3-3-1.7-.1.1-.3.2-.5.3.1 0 0 0 0 0zm-8.4-.1zm1.4-6c.1 1.2.3 2.4.4 2.7.2.6.6 1 1.2 1.3l1.2.5 1-.5c.5-.3.9-.7.9-.7l.1-.2h.1c.1-.1.4-.6.3-1.5V5.4c-.5-.1-1.5-.3-2.6-.2-1.1 0-2.1.2-2.6.5z"/><path fill="#77baa1" d="M40.3 38.9c-4.7 7.1-13.5 7.5-15.7 7.5-2.8 0-10.9-.3-15.1-7.7-4-7-2.1-14.6 1.7-20.5 3-4.6 7.2-8 8.3-8.1.2 0 .5.2 1 .4.7.3 1.8.7 3.4.6 1.9-.2 3-.5 3.6-.8.7-.3.9-.6 1.2-.5 5 1.7 9.2 7.1 10.7 9.6 1.6 2.7 6.1 11.7.9 19.5z"/><path fill="#f3acbb" d="M12 23.4s-2.2 5.3-1.7 9.2c.4 3.8 3 9.5 9.3 10.8s10.3-.2 13.8-1.8 5.9-4.8 6.2-7.9c.3-3.1.4-7.6-1.4-11.2"/><path fill="#89b772" d="M27.4 13.7c-.2.7-3.5 1.4-5 1-1.5-.4-1.6-1.4-1.9-4.2.7.3 1.8.7 3.4.6 1.9-.2 3-.5 3.6-.8 0 .8.1 2.8-.1 3.4z"/><path d="M19.6 40.2c-.2-.4-.2-.8-.1-1.3.2-1.6 1.3-5.7 7-8.8 7.1-3.9 10.9-.6 10.9-.6s2.2 2 .5 6.7c-1.7 4.7-10 6.4-10 6.4s-6.8 1.6-8.3-2.4zm-6.9-8.6c-.5 0-.5-1.8.1-2.6.9-1.3 2.5-.1 2.5-.1s-1.4 2.7-2.6 2.7z" style="fill:#f08fa2"/><path fill="#f8d0d9" d="M38.3 22.6c0-.7-5.9-1.2-13.1-1.2S12 22.7 12 23.4s5.9 1.9 13.1 1.9 13.2-2 13.2-2.7z"/><path fill="#dd8843" d="M19.5 5s.5 3 .7 3.9c.2.7 1.3 2.3 3.4 2.5 2.2.2 3.5-1.7 3.5-1.7s.9-.8.8-2.6c-.1-1.8-.1-2.7-.1-2.7s-4.7.5-8.3.6z"/><path fill="#ebb646" d="M27.8 4.5c0-.4-1.9-1-4.2-.9-2.3.1-4.2 1-4.1 1.5 0 .4 1.9 1.1 4.2 1 2.2-.1 4.1-1.2 4.1-1.6z"/><path d="M13.1 24.3c-.2-.1-.4-.2-.5-.4-.4-.6-1-2.3 1.3-5.5 3-4.2 4.6-2.8 4.6-2.8s2 1-.2 4.6c0 0 0 .1-.1.1-.1.4-2.3 4.7-5.1 4zm21.4 16.9c-.5-.1-.8-.5-.7-1 .1-.6.5-1.5 1.5-2.4 1.6-1.4 2.7-.1 2.9.2.1.1.1.2.1.3.1.3 0 .9-.7 1.7-.9 1-2 1.5-3.1 1.2z" class="st0"/><path fill="#a5d4c1" d="M41.7 28.5c.3.7-1.8-2-2.1-2.1-.4-.1-2.6 5.2-3.2 5.4-.7.2-6.3-3.9-7.5-3.8-2.2.1-6.6 6.7-7.2 6.8-.7.1-5.7-5.8-7.4-6.1-.6-.1-4.8 5-5.1 4.6-.2-.2-.6-4.2-.6-5.3.1-.7.5 2.8.7 2.8.3 0 4.2-3.8 5-3.7.7.1 6.4 5.1 6.9 5 .5-.1 6.1-5.5 7.2-5.7.9-.1 5.8 3.4 7.1 3.2.8-.1 3.3-4.5 3.7-4.6.6-.1 2.2 2.7 2.5 3.5z"/></svg>