<svg xmlns="http://www.w3.org/2000/svg" xmlns:xlink="http://www.w3.org/1999/xlink" width="50" height="50" viewBox="0 0 50 50"><defs><linearGradient id="a" x1="2.235" y1="0.311" x2="2.235" y2="-0.042" gradientUnits="objectBoundingBox"><stop offset="0" stop-color="#090220"/><stop offset="1" stop-color="#170659"/></linearGradient></defs><circle cx="25" cy="25" r="25" transform="translate(0 0)" fill="url(#a)"/><path d="M42.5,57.23a1.053,1.053,0,0,0-.827-.386H34.992a.222.222,0,0,1-.145-.055.173.173,0,0,1-.055-.124v-4.5a.173.173,0,0,1,.055-.124.169.169,0,0,1,.145-.055h7.056a5.986,5.986,0,0,1,4.61,2.184l1.716,2.095-3.342,4.072L42.5,57.23Zm12.335-3.08a6.009,6.009,0,0,1,4.631-2.164H66.5a.177.177,0,0,1,.131.041.16.16,0,0,1,.041.138v4.5a.192.192,0,0,1-.041.124.144.144,0,0,1-.131.055H59.82a1.052,1.052,0,0,0-.827.386l-4.92,5.988,4.941,6.029a1.047,1.047,0,0,0,.8.358H66.49a.154.154,0,0,1,.131.055.222.222,0,0,1,.041.145v4.5a.192.192,0,0,1-.041.124.144.144,0,0,1-.131.055H59.462a5.935,5.935,0,0,1-4.61-2.184l-4.093-5-4.093,5a5.986,5.986,0,0,1-4.631,2.184H34.992a.154.154,0,0,1-.131-.055.189.189,0,0,1-.041-.145v-4.5a.192.192,0,0,1,.041-.124.144.144,0,0,1,.131-.055h6.677a1.1,1.1,0,0,0,.827-.386l4.83-5.9,7.5-9.172Z" transform="translate(-25.731 -38.446)" fill="#00d1ff"/></svg>
