<?xml version="1.0" encoding="utf-8"?>
<!-- Generator: Adobe Illustrator 27.0.0, SVG Export Plug-In . SVG Version: 6.00 Build 0)  -->
<svg version="1.1" id="Layer_1" xmlns="http://www.w3.org/2000/svg" xmlns:xlink="http://www.w3.org/1999/xlink" x="0px" y="0px"
	 viewBox="0 0 50 50" style="enable-background:new 0 0 50 50;" xml:space="preserve">
<style type="text/css">
	.st0{fill:#FFFFFF;}
	.st1{opacity:0.62;fill:#1BA5F8;enable-background:new    ;}
	.st2{fill:#1BA5F8;}
</style>
<circle class="st0" cx="25" cy="25" r="25"/>
<g>
	<path class="st1" d="M19.3,36l4.8-5.9c0.4-0.5,1.2-0.6,1.7-0.2c0.1,0.1,0.1,0.1,0.2,0.2l4.8,5.9c0.4,0.5,0.4,1.1,0,1.6L26,43.5
		c-0.4,0.5-1.2,0.6-1.7,0.2c-0.1-0.1-0.1-0.1-0.2-0.2l-4.8-5.9C18.9,37.1,18.9,36.5,19.3,36z"/>
	<path class="st2" d="M26.7,21.6l4.8-5.9c0.4-0.5,1.2-0.6,1.7-0.2c0.1,0.1,0.1,0.1,0.2,0.2l4.8,5.9c0.4,0.5,0.4,1.1,0,1.6l-4.8,5.9
		c-0.4,0.5-1.2,0.6-1.7,0.2c-0.1-0.1-0.1-0.1-0.2-0.2l-4.8-5.9C26.3,22.7,26.3,22.1,26.7,21.6L26.7,21.6z M11.8,21.6l4.8-5.9
		c0.4-0.5,1.2-0.6,1.7-0.2c0.1,0.1,0.1,0.1,0.2,0.2l4.8,5.9c0.4,0.5,0.4,1.1,0,1.6l-4.8,5.9c-0.4,0.5-1.2,0.6-1.7,0.2
		c-0.1-0.1-0.1-0.1-0.2-0.2l-4.8-5.9C11.5,22.7,11.5,22.1,11.8,21.6L11.8,21.6z M19.3,12.4L24,6.5c0.4-0.5,1.2-0.6,1.7-0.2
		c0.1,0.1,0.1,0.1,0.2,0.2l4.8,5.9c0.4,0.5,0.4,1.1,0,1.6L26,19.9c-0.4,0.5-1.2,0.6-1.7,0.2c-0.1-0.1-0.1-0.1-0.2-0.2L19.3,14
		C18.9,13.5,18.9,12.9,19.3,12.4z"/>
</g>
</svg>
