<?xml version="1.0" encoding="utf-8"?>
<!-- Generator: Adobe Illustrator 27.0.0, SVG Export Plug-In . SVG Version: 6.00 Build 0)  -->
<svg version="1.1" id="Layer_2_00000057831913997483745970000006876376234650179000_"
	 xmlns="http://www.w3.org/2000/svg" xmlns:xlink="http://www.w3.org/1999/xlink" x="0px" y="0px" viewBox="0 0 50 50"
	 style="enable-background:new 0 0 50 50;" xml:space="preserve">
<style type="text/css">
	.st0{fill:#FFFFFF;}
	.st1{fill:#2683FF;}
</style>
<g id="Layer_2-2">
	<g id="Layer_1-2">
		<circle class="st0" cx="25" cy="25" r="25"/>
	</g>
</g>
<g>
	<path class="st1" d="M7.8,33.7c-0.7,0-1.3,0.6-1.3,1.3s0.6,1.3,1.3,1.3s1.3-0.6,1.3-1.3l0,0c0-0.2-0.1-0.4-0.2-0.7
		C8.7,33.9,8.3,33.7,7.8,33.7 M26.4,5c0-0.7-0.6-1.3-1.3-1.3c-0.7,0-1.3,0.6-1.3,1.3s0.6,1.3,1.3,1.3C25.8,6.3,26.4,5.8,26.4,5
		 M42.4,16.4c0.7,0,1.3-0.6,1.3-1.3s-0.6-1.3-1.3-1.3c-0.7,0-1.3,0.6-1.3,1.3v0c0,0.2,0.1,0.4,0.2,0.6C41.5,16.2,42,16.4,42.4,16.4
		 M8.4,13.9c-0.6-0.4-1.4-0.1-1.8,0.5c-0.4,0.6-0.1,1.4,0.5,1.8c0.6,0.4,1.4,0.1,1.8-0.5C9.3,15.1,9,14.3,8.4,13.9 M43,33.9
		c-0.2-0.1-0.4-0.2-0.7-0.2c-0.7,0-1.3,0.6-1.3,1.3c0,0.7,0.6,1.3,1.3,1.3c0,0,0,0,0,0c0.5,0,0.9-0.3,1.1-0.7
		C43.8,35.1,43.6,34.3,43,33.9 M23.8,44.9c-0.1,0.6,0.3,1.2,0.8,1.4c0.1,0,0.3,0.1,0.4,0.1c0.7,0,1.2-0.5,1.4-1.1
		c0.1-0.7-0.4-1.4-1.1-1.5C24.5,43.7,23.9,44.2,23.8,44.9C23.8,44.9,23.8,44.9,23.8,44.9"/>
	<path class="st1" d="M44.3,31.5c-0.2-0.1-0.3-0.2-0.5-0.2V19c0.2-0.1,0.4-0.2,0.6-0.3c2-1.1,2.7-3.6,1.6-5.6s-3.6-2.7-5.6-1.6
		c-0.2,0.1-0.3,0.2-0.5,0.3L29.1,5.6c0-0.2,0-0.4,0-0.6c0-2.3-1.8-4.1-4.1-4.1S20.9,2.8,20.9,5c0,0.2,0,0.4,0,0.6l-10.7,6.2
		c-1.8-1.4-4.4-1.1-5.8,0.7s-1.1,4.4,0.7,5.8c0,0,0,0,0.1,0.1c0.1,0.1,0.3,0.2,0.5,0.3c0.2,0.1,0.4,0.2,0.6,0.3v12.3
		c-2.1,0.8-3.1,3.2-2.3,5.3c0.8,2.1,3.2,3.1,5.3,2.3c0.2-0.1,0.4-0.2,0.5-0.3c0.2-0.1,0.3-0.2,0.5-0.3l10.6,6.1
		c-0.4,2.2,1.2,4.3,3.4,4.7c2.2,0.4,4.3-1.2,4.7-3.4c0-0.2,0-0.4,0-0.7c0-0.2,0-0.4,0-0.6l10.6-6.1c0.2,0.1,0.3,0.3,0.5,0.4
		c2,1.1,4.5,0.4,5.6-1.6C46.8,35.1,46.1,32.6,44.3,31.5L44.3,31.5z M45,36.6c-0.9,1.5-2.8,2-4.3,1.1c-1.2-0.7-1.8-2.1-1.5-3.4
		l-5-2.9c-1.6,1.6-3.9,2.1-6,1.3c-0.7,0.2-2.3,0.4-2.3,0.4v8.7c1.7,0.5,2.7,2.4,2.2,4.1c-0.5,1.7-2.4,2.7-4.1,2.2c0,0,0,0-0.1,0
		c-0.1,0-0.3-0.1-0.4-0.2c-1.6-0.8-2.3-2.8-1.5-4.4c0.4-0.8,1.1-1.4,2-1.7v-8.9c-0.6-0.2-1.2-0.4-1.8-0.7c-1.9,0.4-3.9-0.1-5.4-1.3
		l-5.9,3.4c0.4,1.7-0.6,3.4-2.3,3.8c-1.7,0.4-3.4-0.6-3.8-2.3c-0.4-1.7,0.6-3.4,2.3-3.8c1-0.3,2.1,0,2.9,0.8l5.5-3.2
		c-1.9-2.6-1.6-6.2,0.7-8.5l-6.3-3.6c-1.3,1.2-3.2,1.1-4.4-0.1C4.3,16,4.4,14,5.6,12.8c0,0,0,0,0,0c1.3-1.2,3.2-1.1,4.4,0.1
		c0.7,0.8,1,1.8,0.8,2.8l7,4c0.9-0.5,1.9-0.8,3-0.8c1-0.8,3.5-1.6,3.5-1.6V7.8c-1.6-0.5-2.4-2.1-2-3.7s2.1-2.4,3.7-1.9
		c1.6,0.5,2.4,2.1,2,3.7c-0.3,0.9-1,1.7-2,2v9.4c0,0,4.6,1.1,6,2.9l7.4-4.2c-0.4-1.7,0.7-3.4,2.4-3.8c1.7-0.4,3.4,0.7,3.8,2.4
		c0.4,1.7-0.7,3.4-2.4,3.8c-1,0.2-2.1-0.1-2.9-0.8L33,21.6c0.2,0.4,0.4,0.9,0.5,1.4c2.3,1.6,3.1,4.5,1.9,7l4.9,2.8
		c1-0.9,2.5-1.1,3.7-0.4C45.4,33.2,45.9,35.1,45,36.6L45,36.6z"/>
	<path class="st1" d="M31.3,24.6c0-0.2,0-0.3-0.1-0.5c0-0.1,0-0.2-0.1-0.3c0,0,0-0.1,0-0.1c0-0.1-0.1-0.3-0.1-0.4v0
		c-0.3-0.7-0.7-1.4-1.2-1.9c-0.1-0.1-0.2-0.2-0.4-0.4l0,0c-0.1-0.1-0.3-0.2-0.4-0.3l0,0c-0.1-0.1-0.3-0.2-0.4-0.3l0,0
		c-0.1-0.1-0.3-0.2-0.4-0.2l0,0c-0.1-0.1-0.3-0.1-0.5-0.2l0,0c-0.2,0-0.3-0.1-0.5-0.1h0c-0.2,0-0.3-0.1-0.5-0.1h0
		c-0.9-0.1-1.8,0-2.7,0.3l-0.1,0.1c-0.1,0-0.3,0.1-0.5,0.2c-0.1,0-0.1,0.1-0.2,0.1c-0.1,0-0.2,0.1-0.2,0.1s-0.2,0.1-0.3,0.2l-0.1,0
		c-0.1,0.1-0.2,0.2-0.4,0.3L22,21.2c-0.1,0.1-0.2,0.2-0.3,0.4c-0.3,0-0.5-0.1-0.8-0.1c-0.1,0-0.1,0-0.2,0c-1,0-1.9,0.4-2.6,1.1
		c-0.4,0.3-0.7,0.7-0.9,1.1l0,0c-0.1,0.1-0.1,0.3-0.2,0.4c0,0,0,0.1,0,0.1c0,0.1-0.1,0.2-0.1,0.3c0,0,0,0.1,0,0.1
		c0,0.1,0,0.2-0.1,0.3c0,0,0,0.1,0,0.1c0,0.2,0,0.3,0,0.5c0,0.1,0,0.3,0,0.4c0,0,0,0.1,0,0.1c0,0.1,0,0.2,0,0.3c0,0.1,0,0.1,0,0.2
		c0,0.1,0,0.1,0,0.2c0,0.1,0,0.1,0.1,0.2c0,0.1,0,0.1,0.1,0.1c0,0.1,0.1,0.1,0.1,0.2c0,0,0,0.1,0,0.1c0.3,0.7,0.8,1.3,1.4,1.7
		c0.3,0.2,0.6,0.4,1,0.5c0.1,0,0.3,0.1,0.4,0.1l0,0l0.4,0.1l0.1,0c0.1,0,0.3,0,0.5,0c0.6,0,1.1-0.1,1.6-0.3c0.1,0.1,0.2,0.2,0.4,0.3
		l0,0c0.1,0.1,0.2,0.1,0.4,0.2h0c1.2,0.6,2.6,0.8,3.9,0.4h0c0.2,0,0.4-0.1,0.6-0.2l0.6-0.3c0.5,0.4,1.2,0.7,1.9,0.7
		c0.1,0,0.3,0,0.4,0l0.1,0c0.1,0,0.3,0,0.4-0.1c0.1,0,0.3-0.1,0.4-0.1l0.1,0c0.1-0.1,0.2-0.1,0.4-0.2c0.5-0.3,0.9-0.8,1.2-1.4
		c0.1-0.2,0.1-0.4,0.2-0.6v-0.1c0-0.1,0-0.2,0-0.3c0-0.1,0-0.2,0-0.3C33.5,26.2,32.6,25,31.3,24.6"/>
</g>
</svg>
