<svg xmlns="http://www.w3.org/2000/svg" xmlns:xlink="http://www.w3.org/1999/xlink" width="50" height="50" viewBox="0 0 50 50"><defs><linearGradient id="a" x1="0.873" y1="51.754" x2="1.032" y2="51.105" gradientUnits="objectBoundingBox"><stop offset="0" stop-color="#03b8ff"/><stop offset="1" stop-color="#fa52a0"/></linearGradient><linearGradient id="b" x1="0.983" y1="66.413" x2="1.174" y2="65.582" xlink:href="#a"/><linearGradient id="c" x1="0.908" y1="65.434" x2="1.098" y2="64.608" xlink:href="#a"/></defs><circle cx="25" cy="25" r="25" transform="translate(0 0)" fill="#f0f3fa"/><g transform="translate(5.29 5.398)"><path d="M7.865,2.3,38.052,22.911,30.586,33.947.4,13.174Z" transform="translate(0.249 1.433)" fill="url(#a)"/><path d="M35.437,23.7c-2.6,3.733-11.36,2.272-19.637-3.57C7.361,14.448,2.817,6.82,5.251,3.087c2.6-3.733,11.36-2.272,19.637,3.57C33.328,12.176,37.872,19.966,35.437,23.7Z" transform="translate(2.863 0.645)" fill="url(#b)"/><path d="M30.8,30.461c-2.6,3.733-11.36,2.272-19.637-3.57S-1.822,13.582.774,9.687c2.6-3.733,11.36-2.272,19.637,3.57S33.233,26.728,30.8,30.461Z" transform="translate(0.037 4.757)" fill="url(#c)"/><path d="M35.747,17.151h0L28.281,28.187h0c-2.6,3.733-11.36,2.11-19.637-3.57A48.894,48.894,0,0,1,4.1,21.046a6.906,6.906,0,0,0,4.057-2.434c2.6-2.759,3.895-3.408,5.031-3.246,1.136,0,2.434,1.136,4.544,3.895s5.031,3.57,6.816,2.11c.162-.162.325-.162.487-.325,1.461-1.136,1.947-1.623,4.706-6.816a5.1,5.1,0,0,1,6-2.434A6.152,6.152,0,0,1,35.747,17.151Z" transform="translate(2.554 7.193)" fill="#0e0f23"/><path d="M33.839,22.59c-2.272,3.246-10.224,1.623-17.852-3.733C8.2,13.5,3.653,6.686,5.925,3.44S16.149,1.817,23.777,7.173,35.949,19.345,33.839,22.59ZM26.7,17.722c-1.136,1.623-5.031.811-8.926-1.785-3.733-2.6-6-6-4.869-7.628s5.031-.811,8.926,1.785C25.562,12.691,27.834,16.1,26.7,17.722Z" transform="translate(3.326 1.104)" fill="#fff" fill-rule="evenodd"/><path d="M4.849,4.688c0-.162-.162-.325-.325-.162S4.2,4.688,4.2,4.85a4.128,4.128,0,0,1,.325,1.136c0,.162.162.325.325.162.162,0,.325-.162.162-.325A3.168,3.168,0,0,0,4.849,4.688Z" transform="translate(2.616 2.777)" fill="#fff"/><path d="M5.287,6.288c0-.162-.162-.325-.325-.162S4.8,6.288,4.8,6.45A29.051,29.051,0,0,0,15.187,18.135c.162.162.325,0,.487,0,.162-.162,0-.325,0-.487A28.218,28.218,0,0,1,5.287,6.288Z" transform="translate(2.99 3.774)" fill="#fff"/><path d="M17.325,16c-.162,0-.325,0-.325.162s0,.325.162.325c.487.162,1.136.325,1.623.487.162,0,.325,0,.325-.162s0-.325-.162-.325C18.461,16.325,17.811,16.162,17.325,16Z" transform="translate(10.59 9.967)" fill="#fff"/><path d="M19.125,16.4a.325.325,0,0,0,0,.649,15.994,15.994,0,0,0,3.895.162.325.325,0,1,0,0-.649A15.681,15.681,0,0,1,19.125,16.4Z" transform="translate(11.711 10.216)" fill="#fff"/></g></svg>