<?xml version="1.0" encoding="utf-8"?>
<!-- Generator: Adobe Illustrator 27.0.0, SVG Export Plug-In . SVG Version: 6.00 Build 0)  -->
<svg version="1.1" id="Layer_1" xmlns="http://www.w3.org/2000/svg" xmlns:xlink="http://www.w3.org/1999/xlink" x="0px" y="0px"
	 viewBox="0 0 50 50" style="enable-background:new 0 0 50 50;" xml:space="preserve">
<style type="text/css">
	.st0{fill:#7D00FF;}
	.st1{fill:#FFFFFF;}
</style>
<circle class="st0" cx="25" cy="25.01" r="25"/>
<g id="Layer_x0020_1">
	<g id="_1881543886672">
		<g>
			<path class="st1" d="M44.34,15.64h-12.9v4.3h12.9V15.64z M22.86,19.94h-4.3v4.3h4.3V19.94z M18.56,41.42h4.3v-12.9h-4.3V41.42z
				 M27.16,19.94v4.3h4.3v-4.3H27.16z M27.16,41.42h4.3v-12.9h-4.3V41.42z M27.16,15.64h-4.3v4.3h4.3V15.64z M5.66,15.64v4.3h12.9
				v-4.3H5.66z M44.34,28.54v-4.3h-12.9v4.3H44.34z M22.86,24.24v4.3h4.3v-4.3H22.86z M5.66,24.24v4.3h12.9v-4.3H5.66z"/>
		</g>
	</g>
</g>
</svg>
