<?xml version="1.0" encoding="utf-8"?>
<!-- Generator: Adobe Illustrator 27.0.0, SVG Export Plug-In . SVG Version: 6.00 Build 0)  -->
<svg version="1.1" id="Layer_1" xmlns="http://www.w3.org/2000/svg" xmlns:xlink="http://www.w3.org/1999/xlink" x="0px" y="0px"
	 viewBox="0 0 56 56" style="enable-background:new 0 0 56 56;" xml:space="preserve">
<style type="text/css">
	.st0{fill:#0088CC;}
	.st1{fill-rule:evenodd;clip-rule:evenodd;fill:#FFFFFF;}
</style>
<circle class="st0" cx="28" cy="28" r="28"/>
<path class="st1" d="M18.75,17.61h18.6c0.71,0,1.3,0.12,2.01,0.47c0.83,0.36,1.3,0.95,1.54,1.42c0,0,0,0.12,0.12,0.12
	c0.36,0.59,0.59,1.3,0.59,2.13c0,0.71-0.12,1.42-0.59,2.13l0,0L29.3,44.03c-0.24,0.47-0.71,0.71-1.3,0.71
	c-0.47,0-0.95-0.24-1.3-0.71L15.2,23.89l0,0c-0.24-0.47-0.71-1.07-0.71-2.01c-0.12-0.83,0.12-1.54,0.47-2.25
	c0.36-0.71,0.95-1.3,1.78-1.54C17.45,17.61,18.28,17.61,18.75,17.61z M26.57,20.45h-7.82c-0.47,0-0.71,0-0.83,0.12
	c-0.24,0.12-0.36,0.24-0.47,0.47c-0.12,0.12-0.12,0.36-0.12,0.59c0,0.12,0.12,0.24,0.36,0.71l0,0l8.89,15.4V20.45z M29.41,20.45
	v17.42l9-15.52c0.12-0.24,0.12-0.47,0.12-0.71s0-0.47-0.12-0.59c-0.12-0.12-0.12-0.24-0.24-0.24l-0.12-0.12
	c-0.24-0.12-0.47-0.12-0.83-0.12h-7.82V20.45z"/>
</svg>
