<svg xmlns="http://www.w3.org/2000/svg" xmlns:xlink="http://www.w3.org/1999/xlink" width="50" height="50" viewBox="0 0 50 50"><defs><linearGradient id="a" x1="0.128" y1="0.128" x2="0.866" y2="0.878" gradientUnits="objectBoundingBox"><stop offset="0" stop-color="#fef4fb"/><stop offset="1" stop-color="#ffe4f3"/></linearGradient></defs><circle cx="25" cy="25" r="25" fill="url(#a)"/><g transform="translate(7.178 4.436)"><path d="M64.539,43.616c-.409-.058-.429-.078-.234-.1a6.431,6.431,0,0,1,1.832.156,7.878,7.878,0,0,1,4.016,2.69l.351.409.507-.078a10.87,10.87,0,0,1,6.238.78,8.082,8.082,0,0,1,1.4.819,1.885,1.885,0,0,1,.136.546,3.306,3.306,0,0,1-.214,2.125.57.57,0,0,0-.058.624.587.587,0,0,0,.526.331c.468,0,.955-.741,1.189-1.774l.1-.409.175.195A7.677,7.677,0,0,1,82.4,53.675l.039.292-.175-.253a3.292,3.292,0,0,0-.936-.994c-.663-.448-1.365-.585-3.217-.682a13.179,13.179,0,0,1-3.567-.546c-1.6-.526-2.417-1.209-4.308-3.723a17.918,17.918,0,0,0-1.891-2.222A6.613,6.613,0,0,0,64.539,43.616Z" transform="translate(-52.37 -35.833)" fill="#ff007a"/><path d="M129.627,48.508a4.215,4.215,0,0,1,.351-1.677,1.344,1.344,0,0,1,.175-.331c.019,0-.02.136-.078.292A3.723,3.723,0,0,0,130,48.508c.136.877.195.994,1.131,1.949.429.448.936,1.014,1.131,1.248l.331.429-.331-.312a11.864,11.864,0,0,0-1.56-1.228c-.136-.078-.156-.078-.253.019-.078.078-.1.195-.1.76a4.176,4.176,0,0,1-.429,1.988c-.156.292-.175.234-.039-.1A2.841,2.841,0,0,0,130,52.056c0-1.7-.195-2.105-1.384-2.788-.292-.175-.8-.429-1.092-.565a4.315,4.315,0,0,1-.526-.253,8.71,8.71,0,0,1,1.638.487c.682.273.8.292.877.273C129.569,49.151,129.608,49,129.627,48.508Z" transform="translate(-102.934 -38.249)" fill="#ff007a"/><path d="M64.961,52.7a6.888,6.888,0,0,1-1.228-4.191l.039-.409.195.039a4.575,4.575,0,0,1,1.248.468c.78.468,1.131,1.111,1.462,2.71.1.468.234,1.014.292,1.189a7.038,7.038,0,0,0,.78,1.4c.214.312.078.468-.409.429A3.994,3.994,0,0,1,64.961,52.7Z" transform="translate(-51.992 -39.537)" fill="#ff007a"/><path d="M113.824,91.29c-3.86-1.56-5.224-2.9-5.224-5.185,0-.331.02-.6.02-.6a3.662,3.662,0,0,1,.331.253c.78.624,1.657.9,4.094,1.248a16.979,16.979,0,0,1,2.983.624,5.7,5.7,0,0,1,4.172,4.542,7.884,7.884,0,0,1-.117,2.437,4.886,4.886,0,0,1-.624,1.4c-.019,0-.058-.1-.058-.253a3.172,3.172,0,0,0-1.131-2.2A15.578,15.578,0,0,0,113.824,91.29Z" transform="translate(-88.126 -69.646)" fill="#ff007a"/><path d="M87.178,113.911a4.619,4.619,0,0,0-.195-.819l-.1-.292.175.214a3.432,3.432,0,0,1,.624,1.131,2.433,2.433,0,0,1,.136,1.092,2.487,2.487,0,0,1-.136,1.053,3.528,3.528,0,0,1-.819,1.306,4.692,4.692,0,0,1-2.924,1.287c-.234.019-.9.078-1.482.117a11.435,11.435,0,0,0-3.314.546c-.117.039-.234.078-.253.058a4.415,4.415,0,0,1,1.053-.624,10.609,10.609,0,0,1,2.924-.78,13.359,13.359,0,0,0,1.735-.351A3.37,3.37,0,0,0,87.178,113.911Z" transform="translate(-64.208 -91.624)" fill="#ff007a"/><path d="M128.459,120.753a4.549,4.549,0,0,1-.351-3.158c.039-.1.078-.195.117-.195a.838.838,0,0,1,.273.136c.234.156.721.429,1.969,1.111a9.956,9.956,0,0,1,3.1,2.281,4.821,4.821,0,0,1,1.033,2.359,7.733,7.733,0,0,1-.1,2.32,5.746,5.746,0,0,1-2.827,3.743,2.71,2.71,0,0,1-.409.195,1.549,1.549,0,0,1,.175-.429,3.869,3.869,0,0,0,.175-3.022,12.412,12.412,0,0,0-1.56-2.807A18.516,18.516,0,0,1,128.459,120.753Z" transform="translate(-103.716 -95.328)" fill="#ff007a"/><path d="M54.309,155.263a10.6,10.6,0,0,1,4.854-2.339,7.224,7.224,0,0,1,2.515.1,4.341,4.341,0,0,1,2.456,1.579,5.822,5.822,0,0,1,.9,2.651c.078.526.175,1.072.195,1.189a2.616,2.616,0,0,0,.858,1.54,2.967,2.967,0,0,0,2.69.078,1.311,1.311,0,0,1,.331-.1,2.988,2.988,0,0,1-.838.565,2.76,2.76,0,0,1-1.4.331,2.815,2.815,0,0,1-2.378-1.462,10.958,10.958,0,0,1-.643-1.287c-.682-1.579-1.033-2.047-1.832-2.573a2.4,2.4,0,0,0-2.281-.214,1.468,1.468,0,0,0-.507,2.281,1.993,1.993,0,0,0,1.111.585A1.189,1.189,0,0,0,61.678,157a.933.933,0,0,0-.643-.955c-.624-.273-1.306.039-1.287.643a.536.536,0,0,0,.37.526c.156.078.156.078.039.058A.723.723,0,0,1,59.9,156a1.4,1.4,0,0,1,2.086.448,2.042,2.042,0,0,1,.039,1.326,1.823,1.823,0,0,1-2.222,1.053,3.179,3.179,0,0,1-1.7-1.15,5.18,5.18,0,0,0-3.84-1.969l-.37-.059Z" transform="translate(-44.089 -123.873)" fill="#ff007a"/><path d="M11.858,14.586c.292.39.175.76-.312,1.033a2.983,2.983,0,0,1-1.111.312,1.407,1.407,0,0,1-.936-.409c-.175-.175-.936-1.287-2.651-3.957C5.542,9.518,4.43,7.822,4.411,7.8c-.078-.039-.078-.039,2.3,4.211A34.123,34.123,0,0,1,8.7,15.756c0,.253-.078.39-.39.741a4.338,4.338,0,0,0-.936,2.632c-.195,1.54-.721,2.632-2.222,4.484a8.022,8.022,0,0,0-1.228,1.735,3.3,3.3,0,0,0-.39,1.56,4.877,4.877,0,0,0,.253,1.91,6.512,6.512,0,0,0,.936,1.832,4.536,4.536,0,0,1,.721,1.423c0,.156.039.156.741,0A7.711,7.711,0,0,0,10.006,30.2a1.764,1.764,0,0,0,.585-1.482,1.59,1.59,0,0,0-.136-.819,3.5,3.5,0,0,0-1.365-1.326A3.081,3.081,0,0,1,7.471,24.49a3.669,3.669,0,0,1,.6-2.339,6.992,6.992,0,0,0,.858-3.08c.058-.819.156-1.15.39-1.4a1.454,1.454,0,0,1,1.072-.448,3.573,3.573,0,0,0,2.144-.877,1.832,1.832,0,0,0,.663-1.423l.019-.448-.253-.273C12.053,13.144,3.846,4.144,3.787,4.144,3.768,4.144,11.507,14.119,11.858,14.586ZM5.951,27.745A.8.8,0,0,0,5.7,26.673c-.331-.214-.838-.117-.838.175a.2.2,0,0,0,.156.195c.175.1.195.195.058.409s-.136.409.039.546A.558.558,0,0,0,5.951,27.745Z" transform="translate(0)" fill="#ff007a" fill-rule="evenodd"/><path d="M70.089,93.7a1.731,1.731,0,0,0-1.053,1.15,1.68,1.68,0,0,0,.1,1.053c.214.273.409.351.955.351,1.072,0,1.988-.468,2.086-1.033a1.507,1.507,0,0,0-.877-1.4A1.982,1.982,0,0,0,70.089,93.7Zm1.248.975a.439.439,0,0,0-.195-.663c-.526-.331-1.326-.058-1.326.448,0,.253.409.526.8.526A1.077,1.077,0,0,0,71.336,94.678Z" transform="translate(-56.242 -76.212)" fill="#ff007a" fill-rule="evenodd"/></g></svg>
