<svg xmlns="http://www.w3.org/2000/svg" width="50" height="50" viewBox="0 0 50 50"><path d="M25,50A25,25,0,1,0,0,25,24.94,24.94,0,0,0,25,50Z" fill="#2775ca"/><path d="M730.628,524.58c0-3.646-2.187-4.9-6.562-5.417-3.125-.417-3.75-1.25-3.75-2.708s1.042-2.4,3.125-2.4c1.875,0,2.917.625,3.438,2.188a.783.783,0,0,0,.729.521h1.667a.712.712,0,0,0,.729-.729v-.1a5.2,5.2,0,0,0-4.687-4.271v-2.5c0-.417-.313-.729-.833-.833H722.92c-.417,0-.729.312-.833.833v2.4c-3.125.417-5.1,2.5-5.1,5.1,0,3.438,2.083,4.792,6.458,5.313,2.917.521,3.854,1.146,3.854,2.813s-1.458,2.813-3.437,2.813c-2.708,0-3.646-1.146-3.958-2.708a.761.761,0,0,0-.729-.625H717.4a.712.712,0,0,0-.729.729v.1c.416,2.6,2.083,4.479,5.521,5v2.5c0,.417.312.729.833.833h1.562c.417,0,.729-.312.834-.833v-2.5C728.545,529.58,730.628,527.392,730.628,524.58Z" transform="translate(-698.753 -495.622)" fill="#fff"/><path d="M261.454,324.274a15.588,15.588,0,0,1,0-29.271,1.046,1.046,0,0,0,.625-1.042V292.5a.792.792,0,0,0-.625-.833.627.627,0,0,0-.417.1,18.745,18.745,0,0,0,0,35.729.633.633,0,0,0,.938-.417c.1-.1.1-.208.1-.417v-1.458A1.388,1.388,0,0,0,261.454,324.274Zm11.042-32.5a.633.633,0,0,0-.937.417c-.1.1-.1.208-.1.417v1.458a1.382,1.382,0,0,0,.625,1.042,15.588,15.588,0,0,1,0,29.271,1.046,1.046,0,0,0-.625,1.042v1.458a.792.792,0,0,0,.625.833.627.627,0,0,0,.417-.1,18.825,18.825,0,0,0,0-35.833Z" transform="translate(-241.766 -284.378)" fill="#fff"/></svg>