<svg xmlns="http://www.w3.org/2000/svg" width="50" height="50" viewBox="0 0 50 50"><circle cx="24" cy="24" r="24" transform="translate(1 1)" fill="#fff"/><path d="M87.463,22.892,86.09,24.265a19.435,19.435,0,0,1,0,26.231l1.373,1.373a21.4,21.4,0,0,0,0-29.009Z" transform="translate(-46.693 -12.399)" fill="#5a5564"/><path d="M24.335,14.848a19.435,19.435,0,0,1,26.231,0l1.373-1.373a21.4,21.4,0,0,0-29.009,0Z" transform="translate(-12.437 -4.235)" fill="#5a5564"/><path d="M14.848,50.58a19.435,19.435,0,0,1,0-26.217L13.475,22.99a21.4,21.4,0,0,0,0,29.009Z" transform="translate(-4.235 -12.469)" fill="#5a5564"/><path d="M50.564,86.05a19.435,19.435,0,0,1-26.231,0L22.96,87.423a21.4,21.4,0,0,0,29.009,0Z" transform="translate(-12.453 -46.671)" fill="#5a5564"/><path d="M52.808,35.063c-.275-2.865-2.746-3.826-5.871-4.119V27H44.52v3.872H42.589V27h-2.4v3.972h-4.9v2.586s1.785-.032,1.757,0a1.249,1.249,0,0,1,1.373,1.062V45.493a.847.847,0,0,1-.293.59.837.837,0,0,1-.622.211c.032.027-1.757,0-1.757,0l-.458,2.888h4.855v4.036h2.416V49.241h1.931V53.2h2.421v-3.99c4.082-.247,6.928-1.254,7.285-5.075.288-3.075-1.158-4.448-3.469-5A3.735,3.735,0,0,0,52.808,35.063Zm-3.386,8.594c0,3-5.144,2.659-6.782,2.659V40.99C44.278,40.994,49.421,40.523,49.421,43.658ZM48.3,36.152c0,2.746-4.293,2.412-5.656,2.412V33.722C44.008,33.722,48.3,33.292,48.3,36.152Z" transform="translate(-19.14 -14.644)" fill="#f09242"/><path d="M25,50A25,25,0,1,1,50,25,25,25,0,0,1,25,50ZM25,1.949A23.037,23.037,0,1,0,41.3,8.694,23.037,23.037,0,0,0,25,1.949Z" transform="translate(0 0)" fill="#282138"/></svg>
