<?xml version="1.0" encoding="utf-8"?>
<!-- Generator: Adobe Illustrator 27.7.0, SVG Export Plug-In . SVG Version: 6.00 Build 0)  -->
<svg version="1.1" id="Layer_1" xmlns="http://www.w3.org/2000/svg" xmlns:xlink="http://www.w3.org/1999/xlink" x="0px" y="0px"
	 width="50px" height="50px" viewBox="0 0 50 50" style="enable-background:new 0 0 50 50;" xml:space="preserve">
<style type="text/css">
	.st0{fill:#FFFFFF;}
	.st1{fill:#1E1E1B;}
</style>
<circle class="st0" cx="25" cy="25" r="25"/>
<path class="st1" d="M48.2,15.7c-0.7-1.7-1.5-3.2-2.5-4.7C41.2,4.4,33.6,0,25,0C11.2,0,0,11.2,0,25c0,13.8,11.2,25,25,25
	c8.6,0,16.2-4.4,20.7-11c1-1.5,1.8-3,2.5-4.7c1.2-2.9,1.8-6,1.8-9.3C50,21.7,49.3,18.6,48.2,15.7z M44.9,22.4H16.3
	c0.4-1.5,1.3-2.9,2.4-4c1.7-1.7,4-2.7,6.6-2.7h17.6C43.8,17.8,44.6,20,44.9,22.4z M24.9,4.9c5.7,0,10.8,2.4,14.5,6.2H25.8
	c-3.9,0-7.4,1.6-9.9,4.1c-2,2-3.3,4.5-3.9,7.3H4.9C6.1,12.5,14.6,4.9,24.9,4.9z M24.9,45.1c-10.3,0-18.7-7.7-20-17.6h7.2
	C13.3,34.1,19,39,25.8,39h13.5C35.7,42.8,30.6,45.1,24.9,45.1z M25.2,34.3c-4.2,0-7.8-2.8-8.9-6.7h28.6c-0.3,2.4-1,4.7-2.1,6.7H25.2
	z"/>
</svg>
