<svg xmlns="http://www.w3.org/2000/svg" width="50" height="50" viewBox="0 0 50 50"><circle cx="25" cy="25" r="25"/><path d="M32.766,10.534l-3.75,1.913-18.122,9.23A10.8,10.8,0,0,1,26.86,10.856l2.147-1.094.32-.164A13.186,13.186,0,0,0,8.435,21.273a2.4,2.4,0,0,1-1.3,2.319L6,24.17v2.694l3.334-1.7,1.08-.552,1.064-.542,19.1-9.734,2.147-1.092,4.438-2.261V8.29Zm4.4,3.144L12.565,26.2,10.418,27.3,6,29.551v2.692l4.388-2.234L14.14,28.1,32.28,18.853A10.8,10.8,0,0,1,16.3,29.681l-.133.07-2.328,1.188A13.186,13.186,0,0,0,34.73,19.259a2.4,2.4,0,0,1,1.3-2.317l1.134-.578V13.679Z" transform="translate(3.374 3.985)" fill="#fff"/></svg>
