<svg xmlns="http://www.w3.org/2000/svg" width="49.991" height="49.999" viewBox="0 0 49.991 49.999"><g transform="translate(-1265.8 -348.4)"><path d="M1315.791,373.4a25,25,0,1,1-25-25A24.995,24.995,0,0,1,1315.791,373.4Z" transform="translate(0 0)" fill="#fff"/><path d="M1290.992,348.4a25.024,25.024,0,0,0-23.725,32.89h7.479V360.263l16.246,16.246,16.245-16.246v21.028h7.48a25.018,25.018,0,0,0-23.725-32.887Z" transform="translate(-0.196 0)" fill="#f26822"/><path d="M1556.426,2215.29l-7.09-7.09v13.231H1538.8a25,25,0,0,0,42.723,0h-10.539V2208.2l-7.09,7.09-3.735,3.735-3.733-3.736Z" transform="translate(-269.367 -1835.047)" fill="#4d4d4d"/></g></svg>
