<svg xmlns="http://www.w3.org/2000/svg" viewBox="0 0 2470 2500"><ellipse cx="1235" cy="1250" rx="1235" ry="1250" fill="#fff"/><path d="M1908 1682.5c89.4 121.2 181.6 245.3 273.8 369.4-184.4 219.9-413.5 360.9-690 420.1-307.3 64.9-597.8 16.9-880-141 251.4-188.9 497.3-375 745.9-561.1 55.9 53.6 109 107.1 162 157.9 58.7 56.4 36.3 59.2 111.7 16.9 103.4-59.2 190-141 257-239.7 2.8-5.6 8.4-11.3 11.2-16.9-2.7 0 .1 0 8.4-5.6zM810.1 1930.6c-69.8 53.6-134.1 101.5-198.3 152.3-47.5 36.7-95 70.5-142.5 107.1-19.6 16.9-33.5 16.9-55.9-2.8C201.1 1995.4 67 1758.6 16.7 1476.6c-50.3-284.8-5.6-555.5 128.5-812.1 2.8-5.6 8.4-14.1 11.2-19.7 0-2.8 2.8-2.8 8.4-5.6 184.4 245.3 371.6 490.6 555.9 735.9-5.6 8.5-8.4 14.1-14 19.7-55.9 59.2-111.7 118.4-170.4 174.8-16.8 16.9-19.6 31-8.4 50.8 58.7 112.8 139.7 205.8 240.3 282 14 8.5 25.2 16.9 41.9 28.2zm1042.1-1751c-89.4 64.9-178.8 129.7-268.2 191.7-153.7 110-307.3 222.8-458.2 332.7-19.6 14.1-33.5 16.9-50.3-2.8-50.3-53.6-103.4-101.5-153.7-155.1-14-14.1-27.9-16.9-47.5-8.5C754.2 599.6 659.2 687 581 797c-5.6 5.6-11.2 14.1-16.8 22.6-44.7-59.2-86.6-112.8-128.5-169.2C391 591.2 349.1 532 307.2 475.6c-14-19.7-16.8-33.8 2.8-53.6C525.1 182.3 790.5 41.3 1109 7.5c251.4-28.2 491.7 22.6 715.2 143.8 8.4 5.6 16.8 8.5 25.1 14.1.1 8.6.1 11.4 2.9 14.2zm455.3 1691.8c-58.7-76.1-111.7-146.6-164.8-217.1-122.9-163.5-245.8-329.9-371.6-493.4-16.8-22.6-16.8-36.7 2.8-56.4 53.1-53.6 103.4-107.1 156.4-160.7 14-14.1 19.6-28.2 8.4-47.9-61.5-118.4-145.3-217.1-254.2-296.1-8.4-5.6-16.8-14.1-27.9-19.7 8.4-8.5 16.8-14.1 22.3-19.7 106.2-81.8 212.3-160.7 318.5-242.5 16.8-14.1 30.7-19.7 50.3 0 265.4 242.5 407.9 544.2 421.8 907.9 5.6 211.5-41.9 411.7-136.9 600.6-8.3 11.1-16.7 25.2-25.1 45z" fill="#231815"/></svg>