<svg xmlns="http://www.w3.org/2000/svg" xmlns:xlink="http://www.w3.org/1999/xlink" viewBox="195 77 358 360" xmlns:v="https://vecta.io/nano"><path d="M535 316h-24.4v-1H508v1h-24.4v-1h-2.7v1h-24.4v-1h-2.7v1h-24.4v-1h-2.7v1h-24.4v-1h-2.7v1h-24.4v-1h-2.7v1h-24.4v-1h-2.7v1H321v-1h-2.7v1h-24.4v-1h-2.7v1h-24.4v-1h-2.7v1H240v-1h-2.7v1H213v-1h-2l2.2 5.8h8v1.9H214l1.5 3.5h8.8v-5.8h1.9v11.2h3.5v-11.2h1.9v11.2h3.5v-11.2h1.9v13.1h-12.8v-5.4h-7.9l1.6 3.5h3.2v1.9h-2.3C247.1 390.7 305.9 430 374 430s126.9-39.3 155.2-96.5h-7.3v-5.4H513v5.8h-2v-7.7h12.8v5.4h6.3c.6-1.2 1.1-2.3 1.6-3.5h-4.8v-1.9h5.7l1.5-3.5h-23.4v-1.9h24.2c.8-1.9 1.5-3.9 2.2-5.8h-2v1zm-295 4.8h35.2v1.9H240v-1.9zm8.2 12.7h-2.7v-1.9h2.7v1.9zm15.8 0h-12.8v-5.4h-8.9v5.8h-1.9v-7.7h12.8v5.4h8.9v-3.5h-5.8v-1.9h7.7v7.3zm27.1 0h-12.8v-5.4h-8.9v3.5h5.8v1.9h-7.7v-7.3h10.8v-5.8h1.9v11.2h3.5v-11.2h1.9v11.2h3.5v-11.2h1.9v13.1zm3.1-12.7h35.2v1.9h-35.2v-1.9zm8.1 12.7h-2.7v-1.9h2.7v1.9zm15.8 0h-12.8v-5.4h-8.9v5.8h-1.9v-7.7h12.8v5.4h8.9v-3.5h-5.8v-1.9h7.7v7.3zm27.1 0h-12.8v-5.4h-8.9v3.5h5.8v1.9h-7.7v-7.3h10.8v-5.8h1.9v11.2h3.5v-11.2h1.9v11.2h3.5v-11.2h1.9v13.1zm11.2 0h-2.7v-1.9h2.7v1.9zm15.9 0h-12.8v-5.4h-8.9v5.8h-1.9v-7.7h12.8v5.4h8.9v-3.5h-5.8v-1.9h7.7v7.3zm-24-10.8v-1.9h35.2v1.9h-35.2zm51 10.8h-12.8v-5.4h-8.9v3.5h5.8v1.9h-7.7v-7.3h10.8v-5.8h1.9v11.2h3.5v-11.2h1.9v11.2h3.5v-11.2h1.9v13.1zm3.1-12.7h35.2v1.9h-35.2v-1.9zm8.1 12.7h-2.7v-1.9h2.7v1.9zm15.9 0h-12.8v-5.4h-8.9v5.8h-1.9v-7.7h12.8v5.4h8.9v-3.5h-5.8v-1.9h7.7v7.3zm27 0h-12.8v-5.4h-8.9v3.5h5.8v1.9h-7.7v-7.3h10.8v-5.8h1.9v11.2h3.5v-11.2h1.9v11.2h3.5v-11.2h1.9v13.1zm3.1-12.7h35.2v1.9h-35.2v-1.9zm8.2 12.7H462v-1.9h2.7v1.9zm15.8 0h-12.8v-5.4h-8.9v5.8h-1.9v-7.7h12.8v5.4h8.9v-3.5h-5.8v-1.9h7.7v7.3zm27.1 0h-12.8v-5.4h-8.9v3.5h5.8v1.9H484v-7.3h10.8v-5.8h1.9v11.2h3.5v-11.2h1.9v11.2h3.5v-11.2h1.9v13.1zm8.5-1.9h2.7v1.9h-2.7v-1.9z" fill="#da0000"/><path d="M535 200h-24.4v-1H508v1h-24.4v-1h-2.7v1h-24.4v-1h-2.7v1h-24.4v-1h-2.7v1h-24.4v-1h-2.7v1h-24.4v-1h-2.7v1h-24.4v-1h-2.7v1H321v-1h-2.7v1h-24.4v-1h-2.7v1h-24.4v-1h-2.7v1H240v-1h-2.7v1H213v-1h-2c-6.4 18.1-10 37.6-10 58s3.5 39.9 10 58h2v-1h24.4v1h2.7v-1h24.4v1h2.7v-1h24.4v1h2.7v-1h24.4v1h2.7v-1h24.4v1h2.7v-1h24.4v1h2.7v-1H400v1h2.7v-1h24.4v1h2.7v-1h24.4v1h2.7v-1h24.4v1h2.7v-1h24v1h2.7v-1H535v1h2c6.4-18.1 10-37.6 10-58s-3.5-39.9-10-58h-2v1zm-172 14.9c.6 3.2 3.7 5.3 6.9 4.7a5.71 5.71 0 0 0 4-2.9c.9 1.5 2.3 2.5 4 2.9 3.2.6 6.3-1.5 6.9-4.7 1.1 2.7.2 5.8-2.2 7.5-2.8 2-6.8 1.3-8.7-1.5-2 2.8-5.9 3.5-8.7 1.5-2.3-1.7-3.2-4.8-2.2-7.5zm-28 25.5c4.5-7.8 12-13.4 20.7-15.6-19.2 14.4-23.1 41.7-8.6 60.9 0 0 0 .1.1.1-16-9.2-21.4-29.5-12.2-45.4zm45.8 50.4c5.4 2 11.2 2.9 17 2.6-6.8 2.2-13.8 2.5-20.4 1.1l-.1 1.4-3.4 4.7-3.4-4.7-.1-1.4c-6.6 1.4-13.6 1.1-20.4-1.1 5.8.3 11.6-.6 17-2.6-8.9-4.6-16-12.6-19.3-22.9-4.9-15.2-.3-31.9 11.9-42.3-13.2 19.5-8.4 45.8 10.5 59.5l-1.3-32.5V227c2-1 3.8-2.5 5.1-4.3 1.3 1.8 3.1 3.3 5.1 4.3v25.6l-1.3 32.5c18.9-13.7 23.6-40 10.5-59.5 12.1 10.4 16.8 27.1 11.9 42.3-3.3 10.3-10.4 18.2-19.3 22.9zm20.1-5c0-.1 0-.1 0 0 14.5-19.3 10.6-46.6-8.6-61 8.7 2.2 16.2 7.8 20.7 15.6 9.2 15.9 3.8 36.2-12.1 45.4z" fill="#fff"/><path d="M374 84c-68.1 0-126.9 39.3-155.2 96.5h2.3v1.9h-3.2c-.6 1.2-1.1 2.3-1.6 3.5h7.9v-5.8h1.9v11.2h3.5v-11.2h1.9v11.2h3.5v-11.2h1.9v13.1h-12.8v-5.4h-8.8c0 .1-.1.2-.1.2v3.2h5.8v1.9h-7.7v-.6l-2.4 6.4h2v-1h24.4v1h2.7v-1h24.4v1h2.7v-1h24.4v1h2.7v-1h24.4v1h2.7v-1h24.4v1h2.7v-1h24.4v1h2.7v-1h24.4v1h2.7v-1H427v1h2.7v-1h24.4v1h2.7v-1h24.4v1h2.7v-1H508v1h2.7v-1H535v1h2l-2.4-6.4v.6h-12.8v-5.4H513v5.8h-2v-7.7h12.8v5.4h8.9V188c0-.1-.1-.2-.1-.2h-5.7v-1.9h4.8c-.5-1.2-1.1-2.3-1.6-3.5h-19.5v-1.9h18.5C500.9 123.3 442.1 84 374 84zM248.2 193.2h-2.7v-1.9h2.7v1.9zm15.8 0h-12.8v-5.4h-8.9v5.8h-1.9v-7.7h12.8v5.4h8.9v-3.5h-5.8v-1.9h7.7v7.3zm-24-10.8v-1.9h35.2v1.9H240zm51.1 10.8h-12.8v-5.4h-8.9v3.5h5.8v1.9h-7.7v-7.3h10.8v-5.8h1.9v11.2h3.5v-11.2h1.9v11.2h3.5v-11.2h1.9v13.1zm11.2 0h-2.7v-1.9h2.7v1.9zm15.8 0h-12.8v-5.4h-8.9v5.8h-1.9v-7.7h12.8v5.4h8.9v-3.5h-5.8v-1.9h7.7v7.3zm-23.9-10.8v-1.9h35.2v1.9h-35.2zm51 10.8h-12.8v-5.4h-8.9v3.5h5.8v1.9h-7.7v-7.3h10.8v-5.8h1.9v11.2h3.5v-11.2h1.9v11.2h3.5v-11.2h1.9v13.1zm11.2 0h-2.7v-1.9h2.7v1.9zm15.9 0h-12.8v-5.4h-8.9v5.8h-1.9v-7.7h12.8v5.4h8.9v-3.5h-5.8v-1.9h7.7v7.3zm-24-10.8v-1.9h35.2v1.9h-35.2zm51 10.8h-12.8v-5.4h-8.9v3.5h5.8v1.9h-7.7v-7.3h10.8v-5.8h1.9v11.2h3.5v-11.2h1.9v11.2h3.5v-11.2h1.9v13.1zm11.2 0h-2.7v-1.9h2.7v1.9zm15.9 0h-12.8v-5.4h-8.9v5.8h-1.9v-7.7h12.8v5.4h8.9v-3.5h-5.8v-1.9h7.7v7.3zm-24-10.8v-1.9h35.2v1.9h-35.2zm51 10.8h-12.8v-5.4h-8.9v3.5h5.8v1.9h-7.7v-7.3h10.8v-5.8h1.9v11.2h3.5v-11.2h1.9v11.2h3.5v-11.2h1.9v13.1zm62.7-1.9h2.7v1.9h-2.7v-1.9zm-51.4 1.9H462v-1.9h2.7v1.9zm15.8 0h-12.8v-5.4h-8.9v5.8h-1.9v-7.7h12.8v5.4h8.9v-3.5h-5.8v-1.9h7.7v7.3zm-24-10.8v-1.9h35.2v1.9h-35.2zm43.7 8.9v-11.2h1.9v11.2h3.5v-11.2h1.9v13.1h-12.8v-5.4h-8.9v3.5h5.8v1.9H484v-7.3h10.8v-5.8h1.9v11.2h3.5z" fill="#239f40"/><g fill="#fff"><path d="M221.1 180.5h-2.3l-.9 1.9h3.2v-1.9zm0 12.7v-1.9h-5.8V188l-1.9 4.6v.6h7.7zm3.1 0H237v-13.1h-2v11.2h-3.5v-11.2h-1.9v11.2h-3.5v-11.2h-1.9v5.8h-7.9c-.3.6-.6 1.3-.8 1.9h8.8v5.4zm13.1 6.8v-1-1H213v1 1zm0 116v-1-1H213v1 1zm-16.2 4.8h-8c.3.6.5 1.3.8 1.9h7.2v-1.9zm0 10.8h-3.2l.9 1.9h2.3v-1.9zm3.1 1.9H237v-13.1h-2v11.2h-3.5v-11.2h-1.9v11.2h-3.5v-11.2h-1.9v5.8h-8.8c.3.6.6 1.3.8 1.9h7.9v5.4zm15.8-153h35.2v1.9H240zm49.1 10.8h-3.4v-11.2h-2v11.2h-3.4v-11.2h-2v5.8h-10.8v7.3h7.7v-1.9h-5.8v-3.5h8.9v5.4h12.8v-13.1h-2zm-32.8-3.5h5.8v3.5h-8.9v-5.4h-12.8v7.7h2v-5.8h8.9v5.4H264v-7.3h-7.7zm-10.8 3.5h2.7v1.9h-2.7zm18.9 8.7v-1-1H240v1 1zm27.1 0v-1-1h-24.4v1 1zm-27.1 116v-1-1H240v1 1zm27.1 0v-1-1h-24.4v1 1z"/><path d="M245.5 331.6h2.7v1.9h-2.7zm10.8-3.5h5.8v3.5h-8.9v-5.4h-12.8v7.7h2v-5.8h8.9v5.4H264v-7.3h-7.7zm32.8 3.5h-3.4v-11.2h-2v11.2h-3.4v-11.2h-2v5.8h-10.8v7.3h7.7v-1.9h-5.8v-3.5h8.9v5.4h12.8v-13.1h-2zM240 320.8h35.2v1.9H240zm70.4-133h5.8v3.5h-8.9v-5.4h-12.7v7.7h1.9v-5.8h8.9v5.4h12.7v-7.3h-7.7z"/><use xlink:href="#B"/><path d="M299.6 191.3h2.7v1.9h-2.7zm-5.4-10.8h35.2v1.9h-35.2zm51.4 19.5v-1-1h-24.4v1 1zm-27.1 0v-1-1h-24.3v1 1zm27.1 116v-1-1h-24.4v1 1zm-27.1 0v-1-1h-24.3v1 1zm-18.9 15.6h2.7v1.9h-2.7zm-5.4-10.8h35.2v1.9h-35.2z"/><use xlink:href="#B" y="140.3"/><path d="M310.4 328.1h5.8v3.5h-8.9v-5.4h-12.7v7.7h1.9v-5.8h8.9v5.4h12.7v-7.3h-7.7zm37.9-147.6h35.2v1.9h-35.2zm16.2 7.3h5.8v3.5h-8.9v-5.4h-12.7v7.7h1.9v-5.8h8.9v5.4h12.8v-7.3h-7.8z"/><use xlink:href="#C"/><path d="M353.7 191.3h2.7v1.9h-2.7zm46 8.7v-1-1h-24.3v1 1zm-27.1 0v-1-1h-24.3v1 1zm27.1 116v-1-1h-24.3v1 1zm-27.1 0v-1-1h-24.3v1 1zm-18.9 15.6h2.7v1.9h-2.7zm10.8-3.5h5.8v3.5h-8.9v-5.4h-12.7v7.7h1.9v-5.8h8.9v5.4h12.8v-7.3h-7.8z"/><use xlink:href="#C" y="140.3"/><path d="M348.3 320.8h35.2v1.9h-35.2zm59.5-129.5h2.7v1.9h-2.7z"/><use xlink:href="#D"/><path d="M418.7 187.8h5.8v3.5h-8.9v-5.4h-12.8v7.7h1.9v-5.8h8.9v5.4h12.8v-7.3h-7.7zm-16.3-7.3h35.2v1.9h-35.2zm51.4 19.5v-1-1h-24.3v1 1zm-27 0v-1-1h-24.4v1 1zm27 116v-1-1h-24.3v1 1zm-27 0v-1-1h-24.4v1 1zm-8.1 12.1h5.8v3.5h-8.9v-5.4h-12.8v7.7h1.9v-5.8h8.9v5.4h12.8v-7.3h-7.7z"/><use xlink:href="#D" y="140.3"/><path d="M407.8 331.6h2.7v1.9h-2.7zm-5.4-10.8h35.2v1.9h-35.2zm54.1-140.3h35.2v1.9h-35.2zm16.3 7.3h5.8v3.5h-8.9v-5.4h-12.8v7.7h2v-5.8h8.8v5.4h12.8v-7.3h-7.7zm22-7.7v5.8H484v7.3h7.7v-1.9h-5.8v-3.5h8.9v5.4h12.8v-13.1h-2v11.2h-3.4v-11.2h-2v11.2h-3.5v-11.2zm-32.9 11.2h2.7v1.9h-2.7zM508 200v-1-1h-24.4v1 1zm-27.1 0v-1-1h-24.4v1 1z"/><path d="M480.9 316v-1-1h-24.4v1 1zm27.1 0v-1-1h-24.4v1 1zm-46.1 15.6h2.7v1.9h-2.7zm43.7 0h-3.4v-11.2h-2v11.2h-3.5v-11.2h-1.9v5.8H484v7.3h7.7v-1.9h-5.8v-3.5h8.9v5.4h12.8v-13.1h-2zm-49.1-10.8h35.2v1.9h-35.2zm16.3 7.3h5.8v3.5h-8.9v-5.4h-12.8v7.7h2v-5.8h8.8v5.4h12.8v-7.3h-7.7zm54.1-140.3h5.7c-.3-.6-.6-1.3-.8-1.9H527v1.9zm-3.1 3.5v-5.4H511v7.7h1.9v-5.8h8.9v5.4h12.8v-.6l-1.9-4.6v3.2h-8.9zm-13.1-8.9h19.5l-.9-1.9h-18.5v1.9zm5.4 8.9h2.7v1.9h-2.7zM535 200v-1-1h-24.3v1 1zm0 116v-1-1h-24.3v1 1zm-18.9 15.6h2.7v1.9h-2.7zm10.8-3.5h4.8c.3-.6.6-1.3.8-1.9h-5.7v1.9zm-16.2-5.4h23.4c.3-.6.5-1.3.8-1.9h-24.2v1.9zm13.1 3.5H511v7.7h1.9v-5.8h8.9v5.4h7.3l.9-1.9h-6.3v-5.4z"/></g><g fill="#da0000"><path d="M367.2 290.8c-5.4 2-11.2 2.9-17 2.6 6.8 2.2 13.8 2.5 20.4 1.1l-.1-2.2c-1.1-.4-2.2-1-3.3-1.5zm21.1-65.2c13.2 19.5 8.4 45.8-10.5 59.5l-.2 4.4c1 .5 2.1.9 3.2 1.3 8.9-4.6 16-12.6 19.3-22.9 5-15.2.3-31.9-11.8-42.3zm4-.8c19.2 14.4 23.1 41.7 8.6 60.9 0 0 0 .1-.1.1 15.9-9.2 21.3-29.5 12.1-45.4-4.4-7.8-11.8-13.4-20.6-15.6zm-17.7 63.1l3 1.5.2-4.4 1.3-32.5v-25.6c-2-1-3.8-2.5-5.1-4.3l2.2 34.2-1.6 31.1zm-.6 12.6l3.4-4.7.1-1.4c-1-.2-2.1-.5-3.1-.8l-.4 6.9zm0-79.7c2 2.8 5.9 3.5 8.7 1.5 2.4-1.7 3.3-4.8 2.2-7.5-.6 3.2-3.7 5.3-6.9 4.7a5.71 5.71 0 0 1-4-2.9l.9 3.2-.9 1z"/><path d="M370.2 285.1c-18.9-13.7-23.6-40-10.5-59.5-12.1 10.4-16.8 27.1-11.9 42.3 3.3 10.3 10.5 18.2 19.3 22.9 1.1.6 2.2 1.1 3.3 1.5l-.2-7.2zm4.4 2.8l-.3 5.7 3.1.8c6.6 1.4 13.6 1.1 20.4-1.1-5.8.3-11.6-.6-17-2.6-1.1-.4-2.1-.8-3.2-1.3-1-.4-2-.9-3-1.5z"/><path d="M355.7 224.8c-8.7 2.2-16.2 7.8-20.7 15.6-9.2 15.9-3.7 36.2 12.1 45.4 0 0 0-.1-.1-.1-14.4-19.2-10.5-46.5 8.7-60.9zm18.9 63.1l1.5-30.9-2.2-34.2c-1.3 1.8-3.1 3.3-5.1 4.3v25.6l1.3 32.5.3 7.2.1 2.2.1 1.4 3.4 4.7.3-6.8.3-6zm-9.3-65.5c2.8 2 6.8 1.3 8.7-1.5l.9-.8-.9-3.2c-.9 1.5-2.3 2.5-4 2.9-3.2.6-6.3-1.5-6.9-4.7-1.1 2.5-.2 5.6 2.2 7.3z"/></g><defs ><path id="B" d="M343.3 191.3h-3.5v-11.2h-1.9v11.2h-3.5v-11.2h-2v5.8h-10.8v7.3h7.7v-1.9h-5.8v-3.5h8.9v5.4h12.8v-13.1h-1.9z"/><path id="C" d="M397.4 191.3h-3.5v-11.2H392v11.2h-3.5v-11.2h-1.9v5.8h-10.9v7.3h7.8v-1.9h-5.8v-3.5h8.9v5.4h12.7v-13.1h-1.9z"/><path id="D" d="M451.5 191.3H448v-11.2h-1.9v11.2h-3.5v-11.2h-1.9v5.8h-10.8v7.3h7.7v-1.9h-5.8v-3.5h8.9v5.4h12.7v-13.1h-1.9z"/></defs></svg>